<svg id="Layer_1" data-name="Layer 1" xmlns="http://www.w3.org/2000/svg" viewBox="0 0 992 255"><defs><style>.cls-1{fill:#010101;}.cls-2{fill:#fff;}</style></defs><rect class="cls-1" width="992" height="255" rx="30.01"/><path class="cls-2" d="M292.62,134.06l-9.42,28.51H271.1l30.8-90.64H316L347,162.57h-12.5l-9.69-28.51Zm29.72-9.14-8.87-26.09c-2-5.92-3.37-11.3-4.71-16.55h-.27c-1.35,5.38-2.83,10.9-4.57,16.41L295,124.92Z"/><path class="cls-2" d="M359.47,118.73c0-8.34-.27-15.06-.54-21.25h10.62l.54,11.16h.27C375.2,100.71,382.87,96,393.49,96c15.74,0,27.57,13.32,27.57,33.09,0,23.4-14.25,35-29.59,35-8.6,0-16.13-3.76-20-10.22h-.27V189.2h-11.7Zm11.7,17.35a27.47,27.47,0,0,0,.53,4.84,18.27,18.27,0,0,0,17.76,13.85c12.5,0,19.77-10.22,19.77-25.15,0-13-6.86-24.2-19.37-24.2-8.07,0-15.6,5.78-17.89,14.66a19.22,19.22,0,0,0-.8,4.84Z"/><path class="cls-2" d="M436,118.73c0-8.34-.27-15.06-.54-21.25h10.63l.54,11.16h.26C451.73,100.71,459.39,96,470,96c15.73,0,27.57,13.32,27.57,33.09,0,23.4-14.26,35-29.59,35-8.61,0-16.14-3.76-20-10.22h-.27V189.2H436Zm11.7,17.35a26.53,26.53,0,0,0,.54,4.84A18.26,18.26,0,0,0,466,154.77c12.51,0,19.77-10.22,19.77-25.15,0-13-6.86-24.2-19.36-24.2-8.07,0-15.6,5.78-17.89,14.66a19.22,19.22,0,0,0-.81,4.84Z"/><path class="cls-2" d="M539.82,148.32a41.42,41.42,0,0,0,21,5.92c12,0,19-6.33,19-15.47,0-8.47-4.84-13.32-17.08-18-14.79-5.25-23.94-12.91-23.94-25.69,0-14.12,11.7-24.61,29.32-24.61,9.28,0,16,2.15,20,4.44l-3.23,9.55a36,36,0,0,0-17.21-4.31c-12.37,0-17.08,7.4-17.08,13.58,0,8.48,5.51,12.65,18,17.49,15.33,5.92,23.13,13.31,23.13,26.63,0,14-10.35,26.09-31.74,26.09-8.74,0-18.29-2.56-23.13-5.78Z"/><path class="cls-2" d="M621.19,78.79V97.48h16.94v9H621.19v35.1c0,8.07,2.29,12.65,8.88,12.65a26.33,26.33,0,0,0,6.85-.81l.54,8.88A29,29,0,0,1,627,163.92c-5.51,0-10-1.75-12.77-5-3.37-3.49-4.58-9.28-4.58-16.94V106.49H599.54v-9h10.08V81.88Z"/><path class="cls-2" d="M709.55,129.49c0,24.07-16.68,34.56-32.41,34.56-17.62,0-31.2-12.91-31.2-33.48,0-21.79,14.25-34.57,32.27-34.57C696.91,96,709.55,109.58,709.55,129.49Zm-51.64.67c0,14.26,8.2,25,19.77,25,11.29,0,19.77-10.63,19.77-25.29,0-11-5.52-25-19.5-25S657.91,117.79,657.91,130.16Z"/><path class="cls-2" d="M724.48,117.79c0-7.67-.13-14.26-.54-20.31H734.3l.4,12.78h.54c3-8.74,10.09-14.26,18-14.26a13.12,13.12,0,0,1,3.36.4v11.17a17.67,17.67,0,0,0-4-.41c-8.34,0-14.26,6.32-15.87,15.2a33.3,33.3,0,0,0-.54,5.52v34.69h-11.7Z"/><path class="cls-2" d="M773.71,132.18c.27,16,10.49,22.59,22.32,22.59,8.48,0,13.59-1.48,18-3.36l2,8.47c-4.17,1.89-11.3,4-21.65,4-20,0-32-13.18-32-32.82S774,96,792.94,96c21.25,0,26.9,18.7,26.9,30.67a43.23,43.23,0,0,1-.41,5.51Zm34.7-8.47c.13-7.54-3.1-19.24-16.41-19.24-12,0-17.22,11-18.16,19.24Z"/><g id="GHhOeA"><path class="cls-2" d="M163.47,219.87h-3.75c-5.91-1.86-11.82-3.7-17.72-5.57a36.66,36.66,0,0,0-22.46-.24c-5.68,1.76-11.25,3.86-16.87,5.81H95.16c-4.29-2.61-9.3-4.49-12.75-7.94a109.91,109.91,0,0,1-28.66-48.27c-2-6.89-2.94-14.06-4.37-21.1V129.8c.22-.82.43-1.65.66-2.46,2-7.16,3.25-14.69,6.27-21.4,8.78-19.48,32.56-30.62,53.34-23.36,3.76,1.32,7.57,2.55,11.26,4a17.61,17.61,0,0,0,13.08.25c4-1.44,8-2.72,12-4.1,8.68-3,17.46-3.91,26.53-1.83,10.84,2.48,19.83,7.67,26.46,17-1.84,1.35-3.47,2.49-5,3.72a39.45,39.45,0,0,0-12.71,45.74c4.22,11.12,12.1,18.71,22.73,23.67v.75c-3.2,6.73-5.91,13.76-9.7,20.14C187,204.35,179.13,216.54,163.47,219.87Z"/><path class="cls-2" d="M165,36c2.94,21.33-17.91,45.56-37.68,43.35a31.4,31.4,0,0,1,2-15.26c5.86-15.18,16.91-24.29,32.88-27.42a15.6,15.6,0,0,0,2.07-.67Z"/></g></svg>