<svg id="Layer_1" data-name="Layer 1" xmlns="http://www.w3.org/2000/svg" viewBox="0 0 992 255"><defs><style>.cls-1{fill:#010101;}.cls-2{fill:#fff;}.cls-3{fill:#00cfff;}.cls-4{fill:lime;}.cls-5{fill:#ff0020;}.cls-6{fill:#ffd300;}</style></defs><rect class="cls-1" width="992" height="255" rx="30.01"/><path class="cls-2" d="M347,158.54a84.47,84.47,0,0,1-27.84,5c-13.71,0-25-3.5-33.89-12-7.8-7.54-12.64-19.64-12.64-33.76.13-27,18.69-46.8,49.09-46.8,10.49,0,18.69,2.28,22.59,4.17l-2.82,9.54c-4.84-2.15-10.9-3.9-20-3.9C299.34,80.8,285,94.52,285,117.25c0,23,13.86,36.58,35,36.58,7.67,0,12.91-1.07,15.6-2.42v-27H317.1V115H347Z"/><path class="cls-2" d="M424,129.49c0,24.07-16.68,34.56-32.41,34.56-17.62,0-31.21-12.91-31.21-33.48,0-21.79,14.26-34.57,32.28-34.57C411.38,96,424,109.58,424,129.49Zm-51.65.67c0,14.26,8.21,25,19.77,25,11.3,0,19.77-10.63,19.77-25.29,0-11-5.51-25-19.5-25S372.37,117.79,372.37,130.16Z"/><path class="cls-2" d="M497.86,129.49c0,24.07-16.68,34.56-32.42,34.56-17.61,0-31.2-12.91-31.2-33.48,0-21.79,14.26-34.57,32.28-34.57C485.21,96,497.86,109.58,497.86,129.49Zm-51.65.67c0,14.26,8.21,25,19.77,25,11.3,0,19.77-10.63,19.77-25.29,0-11-5.51-25-19.5-25S446.21,117.79,446.21,130.16Z"/><path class="cls-2" d="M568.87,97.48c-.27,4.71-.54,10-.54,17.89v37.79c0,14.93-3,24.07-9.28,29.72-6.32,5.92-15.47,7.8-23.67,7.8-7.8,0-16.41-1.88-21.65-5.38l3-9a36.66,36.66,0,0,0,19.09,5.11c12.11,0,21-6.32,21-22.73v-7.26h-.26c-3.64,6.05-10.63,10.9-20.72,10.9-16.14,0-27.7-13.72-27.7-31.74,0-22.06,14.39-34.57,29.32-34.57,11.3,0,17.48,5.92,20.31,11.3H558l.54-9.82Zm-12.24,25.69a16.78,16.78,0,0,0-.67-5.38c-2.15-6.86-7.94-12.51-16.54-12.51-11.3,0-19.37,9.55-19.37,24.61,0,12.78,6.45,23.4,19.23,23.4a17.31,17.31,0,0,0,16.41-12.1,20.66,20.66,0,0,0,.94-6.32Z"/><path class="cls-2" d="M588,67.09H599.8v95.48H588Z"/><path class="cls-2" d="M626.3,132.18c.27,16,10.49,22.59,22.32,22.59,8.48,0,13.59-1.48,18-3.36l2,8.47c-4.17,1.89-11.29,4-21.65,4-20,0-32-13.18-32-32.82S626.57,96,645.53,96c21.25,0,26.9,18.7,26.9,30.67a45.63,45.63,0,0,1-.4,5.51Zm34.7-8.47c.13-7.54-3.1-19.24-16.41-19.24-12,0-17.22,11-18.16,19.24Z"/><path class="cls-2" d="M716,73a135.8,135.8,0,0,1,22.46-1.75c11.57,0,20,2.69,25.42,7.54,5,4.3,7.94,10.89,7.94,19s-2.42,14.66-7,19.37c-6.18,6.59-16.27,9.95-27.7,9.95a40.29,40.29,0,0,1-9.41-.81v36.31H716Zm11.71,43.71a38.83,38.83,0,0,0,9.68.94c14.12,0,22.73-6.85,22.73-19.36,0-12-8.48-17.76-21.39-17.76a48.71,48.71,0,0,0-11,1Z"/><path class="cls-2" d="M786.48,67.09h11.84v95.48H786.48Z"/><path class="cls-2" d="M854.27,162.57l-.95-8.2h-.4a24.25,24.25,0,0,1-19.9,9.68c-13.18,0-19.91-9.28-19.91-18.69,0-15.74,14-24.34,39.14-24.21v-1.34c0-5.38-1.48-15.07-14.8-15.07a32.49,32.49,0,0,0-16.94,4.84l-2.69-7.8C823.2,98.29,831,96,839.2,96,859.11,96,864,109.58,864,122.63V147a92.33,92.33,0,0,0,1.07,15.6Zm-1.75-33.22c-12.91-.26-27.57,2-27.57,14.66,0,7.67,5.11,11.3,11.16,11.3a16.19,16.19,0,0,0,15.73-10.89,12.2,12.2,0,0,0,.68-3.77Z"/><path class="cls-2" d="M886.28,97.48l14.25,38.46c1.48,4.31,3.09,9.42,4.17,13.32H905c1.21-3.9,2.56-8.88,4.17-13.58l12.91-38.2h12.51l-17.75,46.4c-8.48,22.33-14.26,33.76-22.33,40.75A32.13,32.13,0,0,1,880,192.3l-3-10a31.15,31.15,0,0,0,10.35-5.78,35.83,35.83,0,0,0,9.95-13.18,8.51,8.51,0,0,0,1-2.82,10.27,10.27,0,0,0-.81-3.1l-24.08-60Z"/><path class="cls-3" d="M54.67,36.15A8.22,8.22,0,0,0,48,44.24V214.76A8.23,8.23,0,0,0,55.66,223l92.54-93.09Z"/><path class="cls-4" d="M177.45,100.48,60.14,37a8.15,8.15,0,0,0-5.47-.85l93.53,93.74Z"/><path class="cls-5" d="M60.14,222,177,158.76,148.2,129.89,55.66,223A8.18,8.18,0,0,0,60.14,222Z"/><path class="cls-6" d="M177,158.76l40.71-22a8.24,8.24,0,0,0,0-14.48l-40.27-21.78L148.2,129.89Z"/></svg>