<?xml version="1.0" standalone="no"?>
<svg xmlns="http://www.w3.org/2000/svg" viewBox="0 0 148.824 29" width="148.824" height="29"><g fill="#000000" color="#000000" transform="translate(0, 0) scale(0.0566407)"><svg width="512.0" height="512.0" x="0.0" y="0.0" viewBox="0 0 512 512"><g><path d="M512,339.141c0-5.873-4.784-10.658-10.656-10.658h-38.56h-9.44c0,0-44.608-72.293-154.687-72.293   c-3.607,0-7.157,0.078-10.657,0.235v-85.01c17.941,3.323,32.98,14.853,41.099,30.549c9.687-18.726,29.226-31.529,51.774-31.529   c18.578,0,35.127,8.701,45.784,22.255v-1.348c0-78.888-61.157-143.48-138.657-148.946V31.341l0,0   c0-5.892-4.784-10.667-10.656-10.667c-5.902,0-10.687,4.775-10.687,10.667c0,0.005,0,0.015,0,0.02v11.034   C189.171,47.861,128,112.454,128,191.341v1.348c10.667-13.554,27.22-22.255,45.799-22.255c22.539,0,42.083,12.804,51.765,31.529   c8.122-15.696,23.171-27.226,41.093-30.549v86.902c-88.236,11.902-130.515,70.049-130.515,70.049   C-44,329.189,6.525,448.189,6.525,448.189h58.26c4.858,24.598,26.529,43.137,52.554,43.137c26.015,0,47.691-18.539,52.544-43.137   h172.246c4.843,24.598,26.529,43.137,52.529,43.137c26.029,0,47.706-18.539,52.559-43.137h22.128c0.313,0,0.627,0,0.921,0   c19.138,0,30.48-4.422,36.393-7.863c0.156-0.088,0.313-0.197,0.47-0.305c2.932-1.912,4.873-5.195,4.873-8.941l0,0V339.141   L512,339.141z M235.368,161.057c-3.461,2.152-6.735,4.554-9.804,7.181c-3.064-2.627-6.338-5.029-9.799-7.181   c-12.584-7.819-27.094-11.96-41.966-11.96c-6.157,0-12.191,0.686-18.054,2.049c6.176-18.75,16.706-35.937,31.083-50.313   c24.171-24.172,56.313-37.49,90.515-37.49c34.186,0,66.313,13.318,90.5,37.49c14.372,14.367,24.901,31.554,31.098,50.313   c-5.883-1.363-11.912-2.049-18.068-2.049c-14.873,0-29.393,4.142-41.971,11.96c-3.461,2.152-6.726,4.554-9.804,7.181   c-3.069-2.627-6.353-5.029-9.784-7.181c-12.599-7.819-27.108-11.96-41.971-11.96C262.471,149.096,247.951,153.238,235.368,161.057z    M403.128,308.453c10.107,7.127,17.716,14.334,22.97,20.029h-95.44v-48.578c10.559,1.617,20.706,4.049,30.372,7.314   C376.285,292.326,390.441,299.482,403.128,308.453z M234.706,287.326c20.049-6.5,41.579-9.805,63.951-9.805   c3.599,0,7.157,0.09,10.687,0.266v50.695H164.892c5.937-5.656,14.147-12.607,24.638-19.5   C203.451,299.826,218.647,292.551,234.706,287.326z M117.338,469.982c-17.784,0-32.245-14.451-32.245-32.215   c0-17.785,14.461-32.246,32.245-32.246c17.77,0,32.23,14.461,32.23,32.246C149.569,455.531,135.108,469.982,117.338,469.982z    M394.657,469.982c-17.765,0-32.216-14.451-32.216-32.215c0-17.785,14.451-32.246,32.216-32.246   c17.784,0,32.245,14.461,32.245,32.246C426.902,455.531,412.441,469.982,394.657,469.982z M469.5,426.865h-0.098h-0.059h-22.216   c-5.03-24.383-26.608-42.676-52.471-42.676c-25.843,0-47.402,18.293-52.441,42.676H169.79   c-5.029-24.383-26.603-42.676-52.451-42.676c-25.853,0-47.421,18.293-52.46,42.676H22.643c-2.093-11.441-2.735-28.393,6.774-42.627   c14.912-22.344,51.858-34.295,106.829-34.559l6.74,0.088v0.059h347.671v74.314c-4.216,1.381-10.813,2.725-20.393,2.725   C470.02,426.865,469.745,426.865,469.5,426.865z"></path><path d="M298.657,362.865h-21.313c-5.902,0-10.687,4.766-10.687,10.656c0,5.902,4.784,10.668,10.687,10.668h21.313   c5.902,0,10.687-4.766,10.687-10.668C309.344,367.631,304.56,362.865,298.657,362.865z"></path><path d="M117.338,427.1c-5.892,0-10.671,4.766-10.671,10.668c0,5.871,4.779,10.656,10.671,10.656   c5.888,0,10.662-4.785,10.662-10.656C128,431.865,123.226,427.1,117.338,427.1z"></path><path d="M394.657,427.1c-5.872,0-10.657,4.766-10.657,10.668c0,5.871,4.785,10.656,10.657,10.656   c5.901,0,10.687-4.785,10.687-10.656C405.344,431.865,400.559,427.1,394.657,427.1z"></path></g></svg></g><line x1="41" y1="1" x2="41" y2="28" stroke="#ec7c12" stroke-linecap="round"></line><path fill="#ec7c12" fill-rule="nonzero" d="M3.31 15.89L0 15.89L0 15.65L0.60 15.43Q1.08 15.24 1.34 14.96Q1.61 14.69 1.78 14.18L1.78 14.18L6.72 0L8.76 0L13.63 14.28Q13.82 14.81 14.06 15.08Q14.30 15.36 14.81 15.55L14.81 15.55L15.10 15.65L15.10 15.89L9 15.89L9 15.65L9.36 15.53Q9.86 15.34 9.97 14.99Q10.08 14.64 9.94 14.16L9.94 14.16L8.81 10.70L3.48 10.70L2.33 14.09Q2.16 14.62 2.22 14.93Q2.28 15.24 2.78 15.43L2.78 15.43L3.31 15.65L3.31 15.89ZM6.24 2.76L3.65 10.22L8.66 10.22L6.24 2.76ZM20.23 16.25L20.23 16.25Q19.30 16.25 18.52 15.89Q17.74 15.53 17.29 14.72Q16.85 13.92 16.87 12.60L16.87 12.60L16.94 6.43Q16.94 5.88 16.75 5.64Q16.56 5.40 16.15 5.30L16.15 5.30L15.86 5.21L15.86 4.97L20.16 4.13L20.40 4.37L20.28 7.78L20.28 13.56Q20.28 14.33 20.72 14.69Q21.17 15.05 21.84 15.05L21.84 15.05Q22.51 15.05 23.04 14.86Q23.57 14.66 24.10 14.28L24.10 14.28L24.19 6.46Q24.19 5.90 24.02 5.68Q23.86 5.45 23.40 5.35L23.40 5.35L23.16 5.28L23.16 5.04L27.36 4.13L27.60 4.37L27.53 7.78L27.53 14.28Q27.53 14.81 27.67 15.10Q27.82 15.38 28.30 15.58L28.30 15.58L28.54 15.65L28.54 15.89L24.34 16.13L24.12 14.71Q23.33 15.36 22.40 15.80Q21.48 16.25 20.23 16.25ZM34.06 16.25L34.06 16.25Q32.52 16.25 31.67 15.48Q30.82 14.71 30.82 13.03L30.82 13.03L30.82 4.82L29.16 4.82L29.16 4.58L29.74 4.49Q30.48 4.32 31.02 4.01Q31.56 3.70 32.09 3.17L32.09 3.17L34.06 0.98L34.30 0.98L34.22 4.34L36.91 4.34L36.91 4.82L34.20 4.82L34.20 13.46Q34.20 14.30 34.57 14.74Q34.94 15.17 35.52 15.17L35.52 15.17Q36.02 15.17 36.41 14.92Q36.79 14.66 37.18 14.23L37.18 14.23L37.42 14.47Q36.94 15.29 36.10 15.77Q35.26 16.25 34.06 16.25ZM44.23 16.25L44.23 16.25Q42.41 16.25 41.06 15.49Q39.72 14.74 38.99 13.34Q38.26 11.95 38.26 10.08L38.26 10.08Q38.26 8.21 39.04 6.84Q39.82 5.47 41.17 4.73Q42.53 3.98 44.23 3.98L44.23 3.98Q45.94 3.98 47.28 4.72Q48.62 5.45 49.40 6.82Q50.18 8.18 50.18 10.08L50.18 10.08Q50.18 11.98 49.45 13.36Q48.72 14.74 47.39 15.49Q46.06 16.25 44.23 16.25ZM44.23 15.77L44.23 15.77Q45.07 15.77 45.58 15.29Q46.08 14.81 46.31 13.58Q46.54 12.36 46.54 10.13L46.54 10.13Q46.54 7.87 46.31 6.65Q46.08 5.42 45.58 4.94Q45.07 4.46 44.23 4.46L44.23 4.46Q43.39 4.46 42.88 4.94Q42.36 5.42 42.13 6.65Q41.90 7.87 41.90 10.13L41.90 10.13Q41.90 12.36 42.13 13.58Q42.36 14.81 42.88 15.29Q43.39 15.77 44.23 15.77ZM55.39 16.25L55.39 16.25Q54.22 16.25 53.28 15.97Q52.34 15.70 51.55 15.29L51.55 15.29L51.58 12.43L51.82 12.43L52.63 13.87Q53.16 14.83 53.80 15.30Q54.43 15.77 55.42 15.77L55.42 15.77Q56.57 15.77 57.28 15.25Q57.98 14.74 57.98 13.87L57.98 13.87Q57.98 13.08 57.48 12.58Q56.98 12.07 55.61 11.66L55.61 11.66L54.60 11.35Q53.14 10.92 52.30 10.01Q51.46 9.10 51.46 7.78L51.46 7.78Q51.46 6.19 52.70 5.09Q53.95 3.98 56.28 3.98L56.28 3.98Q57.22 3.98 58.04 4.19Q58.87 4.39 59.64 4.80L59.64 4.80L59.50 7.39L59.26 7.39L58.42 5.90Q57.96 5.11 57.52 4.79Q57.07 4.46 56.18 4.46L56.18 4.46Q55.37 4.46 54.65 4.92Q53.93 5.38 53.93 6.22L53.93 6.22Q53.93 7.03 54.54 7.51Q55.15 7.99 56.35 8.40L56.35 8.40L57.43 8.71Q59.16 9.24 59.90 10.16Q60.65 11.09 60.65 12.38L60.65 12.38Q60.65 14.14 59.27 15.19Q57.89 16.25 55.39 16.25ZM65.21 16.25L65.21 16.25Q63.82 16.25 62.87 15.46Q61.92 14.66 61.92 13.18L61.92 13.18Q61.92 12.05 63.07 11.10Q64.22 10.15 66.70 9.67L66.70 9.67Q67.08 9.60 67.56 9.52Q68.04 9.43 68.57 9.34L68.57 9.34L68.57 7.44Q68.57 5.81 68.17 5.15Q67.78 4.49 66.94 4.49L66.94 4.49Q66.36 4.49 66.02 4.86Q65.69 5.23 65.59 6.14L65.59 6.14L65.54 6.41Q65.50 7.44 65.04 7.92Q64.58 8.40 63.91 8.40L63.91 8.40Q63.29 8.40 62.88 8.02Q62.47 7.63 62.47 6.98L62.47 6.98Q62.47 6 63.16 5.33Q63.84 4.66 64.97 4.32Q66.10 3.98 67.42 3.98L67.42 3.98Q69.55 3.98 70.72 5.03Q71.88 6.07 71.88 8.42L71.88 8.42L71.88 13.73Q71.88 14.81 72.89 14.81L72.89 14.81L73.42 14.81L73.63 15Q73.18 15.58 72.64 15.89Q72.10 16.20 71.11 16.20L71.11 16.20Q70.06 16.20 69.44 15.71Q68.83 15.22 68.64 14.40L68.64 14.40Q67.92 15.17 67.16 15.71Q66.41 16.25 65.21 16.25ZM66.67 14.78L66.67 14.78Q67.15 14.78 67.57 14.56Q67.99 14.33 68.57 13.85L68.57 13.85L68.57 9.82Q68.33 9.86 68.09 9.91Q67.85 9.96 67.54 10.01L67.54 10.01Q66.43 10.30 65.77 10.98Q65.11 11.66 65.11 12.82L65.11 12.82Q65.11 13.80 65.57 14.29Q66.02 14.78 66.67 14.78ZM80.90 15.96L79.51 15.96L75.26 5.76Q74.93 4.94 74.11 4.68L74.11 4.68L73.78 4.58L73.78 4.34L79.99 4.34L79.99 4.58L79.56 4.68Q78.62 4.92 78.98 5.93L78.98 5.93L81.50 12.62L83.86 5.98Q84.05 5.50 83.95 5.18Q83.86 4.87 83.38 4.73L83.38 4.73L82.78 4.58L82.78 4.34L86.26 4.34L86.26 4.58L85.56 4.75Q85.10 4.87 84.85 5.11Q84.60 5.35 84.43 5.83L84.43 5.83L80.90 15.96ZM92.88 3.98L92.88 3.98Q94.44 3.98 95.54 4.62Q96.65 5.26 97.24 6.35Q97.82 7.44 97.82 8.83L97.82 8.83Q97.82 9.10 97.80 9.37Q97.78 9.65 97.70 9.86L97.70 9.86L90.55 9.86Q90.58 12.46 91.48 13.60Q92.38 14.74 94.15 14.74L94.15 14.74Q95.35 14.74 96.10 14.35Q96.84 13.97 97.49 13.22L97.49 13.22L97.73 13.44Q96.98 14.76 95.75 15.50Q94.51 16.25 92.78 16.25L92.78 16.25Q91.08 16.25 89.76 15.52Q88.44 14.78 87.70 13.42Q86.95 12.05 86.95 10.15L86.95 10.15Q86.95 8.18 87.82 6.80Q88.68 5.42 90.04 4.70Q91.39 3.98 92.88 3.98ZM92.81 4.46L92.81 4.46Q92.11 4.46 91.62 4.88Q91.13 5.30 90.85 6.37Q90.58 7.44 90.55 9.38L90.55 9.38L94.66 9.38Q94.90 6.77 94.46 5.62Q94.03 4.46 92.81 4.46Z" transform="translate(51, 6.556)"></path></svg>