<svg id="Layer_1" data-name="Layer 1" xmlns="http://www.w3.org/2000/svg" viewBox="0 0 727.96 84.5"><defs><style>.cls-1{fill:#e97113;}.cls-2{fill:#29332b;}</style></defs><path class="cls-1" d="M241,63.24H203.15L195.88,83h-8.81L217.44.84h9.4L257.09,83h-8.81ZM222.08,11.32l-16.43,45h32.86Z"/><path class="cls-1" d="M319.59,83h-8.34V71.58c-3.93,8.21-12.5,12.5-22.15,12.5-14.76,0-26.43-9-26.43-28.1V18h8.21V55c0,14.41,7.86,21.8,19.77,21.8,12.15,0,20.6-7.63,20.6-23.46V18h8.34Z"/><path class="cls-1" d="M336.26,25h-9.05V18h9.05V1.67h8.46V18h17.86v7H344.72V65.38c0,8,2.74,10.48,10.24,10.48h7.62V83h-8.93c-11.31,0-17.39-4.65-17.39-17.63Z"/><path class="cls-1" d="M400,84C381.63,84,367.7,71.1,367.7,50.5S382,17,400.21,17s32.51,12.74,32.51,33.46S418.31,84,400,84Zm0-7.26c12.27,0,24.18-8.34,24.18-26.2s-11.67-26.2-24.06-26.2-23.93,8.34-23.93,26.2S387.59,76.7,400,76.7Z"/><path class="cls-1" d="M470.5,84c-17.75,0-29.66-9.88-30.61-22.74H460c.47,4.64,4.64,7.74,10.24,7.74,5.24,0,8-2.39,8-5.36,0-10.72-36.2-3-36.2-27.39,0-11.31,9.64-20.6,27-20.6,17.14,0,26.67,9.52,28,22.62H478.24c-.6-4.52-4.05-7.5-9.77-7.5-4.76,0-7.38,1.91-7.38,5.12,0,10.6,36,3.1,36.32,27.87C497.41,75.27,487.17,84,470.5,84Z"/><path class="cls-1" d="M535.16,15.61c9.88,0,16.91,4.52,20.48,10.36V16.56H576V83H555.64V73.6C552,79.44,544.93,84,535,84c-16.19,0-29.17-13.34-29.17-34.3S518.85,15.61,535.16,15.61Zm6,17.74c-7.63,0-14.53,5.72-14.53,16.31s6.9,16.56,14.53,16.56,14.52-5.84,14.52-16.44S548.86,33.35,541.12,33.35Z"/><path class="cls-1" d="M606.26,16.56,620.66,64l14.41-47.39h21.68L633.17,83H608L584.46,16.56Z"/><path class="cls-1" d="M694.86,84c-19.53,0-33.59-13.1-33.59-34.18s13.82-34.17,33.59-34.17c19.41,0,33.1,12.86,33.1,33.1a51.18,51.18,0,0,1-.36,6H681.52c.71,8.69,6.07,12.74,12.62,12.74,5.72,0,8.93-2.86,10.6-6.43h21.67C723.2,74,711.41,84,694.86,84ZM681.64,43.35h25.48c0-7.26-5.71-11.43-12.5-11.43S682.83,36,681.64,43.35Z"/><circle class="cls-2" cx="24.81" cy="76.23" r="8.27"/><circle class="cls-2" cx="118.66" cy="76.23" r="8.27"/><path class="cls-2" d="M120.57,51.63a79.69,79.69,0,0,1-21.68-5.85c-11.38-4.85-33.22-6.37-52.59,9.38C63.05,61.28,88.46,59,88.46,59c-16.55,7.19-45.67-1.08-45.67-1.08S22.29,52.5,14,56.45,2.52,63.64,0,80.54l13.36-.4a1,1,0,0,0,1-1.29,10.66,10.66,0,0,1-.26-3.8,10.79,10.79,0,1,1,21.32,3.17,1.05,1.05,0,0,0,1.08,1.22l70.36-2.12a1.06,1.06,0,0,0,1-1.08h0a10.79,10.79,0,1,1,21.58,0c0,.14,0,.27,0,.41l13.68-.41S145.29,54.63,120.57,51.63Z"/><path class="cls-1" d="M72.63,0A61.13,61.13,0,0,0,12.52,50.07l-1,3.87c8.27-4,30.92,0,30.92,0l3.51-2.74C65.31,35.46,87.15,37,98.53,41.83a79.67,79.67,0,0,0,21.68,5.84,30.8,30.8,0,0,1,11.56,3.56l1.24.3A61.14,61.14,0,0,0,72.63,0Z"/></svg>