<?xml version="1.0" standalone="no"?>
<!DOCTYPE svg PUBLIC "-//W3C//DTD SVG 20010904//EN"
 "http://www.w3.org/TR/2001/REC-SVG-20010904/DTD/svg10.dtd">
<svg version="1.0" xmlns="http://www.w3.org/2000/svg"
 width="256.000000pt" height="256.000000pt" viewBox="0 0 256.000000 256.000000"
 preserveAspectRatio="xMidYMid meet">
<metadata>
Created by potrace 1.16, written by Peter Selinger 2001-2019
</metadata>
<g transform="translate(0.000000,256.000000) scale(0.100000,-0.100000)"
fill="#000000" stroke="none">
<path d="M1090 2181 c-292 -62 -545 -272 -660 -548 -37 -89 -70 -234 -70 -310
l0 -53 50 0 50 0 0 50 c0 73 27 194 62 278 82 198 249 361 453 443 104 41 192
59 303 59 l92 0 0 50 0 50 -97 -1 c-54 0 -136 -8 -183 -18z"/>
<path d="M1158 2000 c-153 -28 -268 -89 -383 -205 -100 -99 -146 -175 -187
-305 -19 -63 -23 -96 -23 -205 1 -113 4 -140 26 -203 l26 -73 -35 -195 c-20
-106 -32 -197 -29 -201 4 -3 87 7 185 24 l177 31 59 -30 c185 -93 433 -91 631
6 176 87 317 260 371 456 28 101 26 293 -4 390 -41 130 -87 206 -187 305 -98
99 -175 146 -300 185 -79 24 -249 35 -327 20z m255 -105 c224 -47 414 -232
472 -460 19 -75 19 -212 0 -293 -30 -127 -113 -259 -213 -337 -198 -156 -462
-180 -684 -63 l-57 30 -133 -24 -134 -24 27 147 27 148 -25 73 c-34 97 -43
245 -19 338 57 228 247 417 468 465 83 18 187 18 271 0z"/>
<path d="M880 1507 c-28 -14 -50 -51 -50 -84 0 -21 5 -23 50 -23 28 0 50 5 50
10 0 6 20 10 45 10 25 0 45 -4 45 -9 0 -6 -38 -37 -83 -70 -46 -34 -89 -72
-95 -86 -19 -42 -15 -108 8 -133 19 -20 30 -22 140 -22 l120 0 0 50 0 50 -90
0 c-49 0 -90 3 -90 8 0 4 32 29 71 57 39 27 80 60 90 73 43 55 32 140 -22 167
-35 18 -154 20 -189 2z"/>
<path d="M1210 1463 c-25 -31 -66 -83 -92 -116 -33 -40 -48 -68 -48 -88 l0
-29 100 0 100 0 0 -61 0 -60 48 3 47 3 3 58 c3 49 6 57 22 57 17 0 20 7 20 50
0 43 -3 50 -20 50 -18 0 -20 8 -22 93 l-3 92 -55 2 -55 2 -45 -56z"/>
<path d="M1507 1404 c-4 -4 -7 -72 -7 -151 l0 -143 50 0 50 0 0 50 c0 38 4 50
15 50 11 0 15 -12 15 -50 l0 -50 50 0 50 0 0 71 c0 65 -2 73 -29 100 -21 21
-39 29 -65 29 -35 0 -35 0 -38 48 l-3 47 -40 3 c-23 2 -44 0 -48 -4z"/>
</g>
</svg>
