<?xml version="1.0" standalone="no"?>
<!DOCTYPE svg PUBLIC "-//W3C//DTD SVG 20010904//EN"
 "http://www.w3.org/TR/2001/REC-SVG-20010904/DTD/svg10.dtd">
<svg version="1.0" xmlns="http://www.w3.org/2000/svg"
 width="497.000000pt" height="350.000000pt" viewBox="0 0 497.000000 350.000000"
 preserveAspectRatio="xMidYMid meet">
<metadata>
Created by potrace 1.16, written by Peter Selinger 2001-2019
</metadata>
<g transform="translate(0.000000,350.000000) scale(0.100000,-0.100000)"
fill="#000000" stroke="none">
<path d="M3510 3253 c-14 -3 -36 -15 -50 -28 -14 -13 -34 -25 -45 -27 -14 -3
-19 -11 -18 -26 2 -13 -4 -39 -12 -59 -13 -31 -13 -38 -1 -52 8 -9 16 -25 17
-35 3 -12 16 -23 37 -28 40 -11 40 -18 3 -46 -38 -27 -84 -158 -62 -171 35
-22 -57 -181 -105 -181 -27 0 -68 -35 -58 -51 3 -6 11 -3 20 8 10 13 13 14 14
4 0 -10 8 -7 27 10 23 21 25 21 19 5 -7 -20 -7 -20 16 -1 69 57 119 113 129
142 17 54 29 28 29 -64 l0 -85 30 6 c17 3 65 8 108 12 l79 7 -5 106 c-4 105
-4 106 15 86 38 -40 105 -278 92 -327 -5 -21 -4 -28 7 -28 8 0 14 -7 14 -15 0
-18 9 -19 33 -1 16 13 16 17 3 47 -8 19 -22 78 -30 132 -9 53 -25 123 -35 155
-11 31 -16 61 -12 65 5 5 -10 43 -34 85 -37 68 -40 78 -26 89 24 17 23 108 -1
129 -10 10 -18 26 -18 36 0 21 -38 62 -82 91 -27 17 -48 19 -98 10z"/>
<path d="M1950 2549 c0 -5 -14 -6 -30 -2 -24 4 -29 3 -25 -9 4 -11 -3 -17 -26
-22 -23 -4 -30 -10 -25 -22 4 -9 1 -23 -5 -31 -9 -11 -7 -19 12 -39 12 -13 29
-22 36 -20 7 3 10 -1 6 -10 -3 -7 0 -14 6 -14 12 0 15 32 4 43 -3 4 -12 2 -20
-4 -21 -18 -15 6 6 25 15 13 20 14 24 4 3 -10 9 -9 23 4 17 16 19 16 41 -8 13
-14 28 -22 33 -19 10 6 8 50 -5 90 -6 20 -55 51 -55 34z"/>
<path d="M2037 2300 c-18 -14 -33 -18 -56 -14 -26 5 -36 1 -64 -27 -19 -19
-42 -56 -52 -84 -38 -106 -64 -154 -129 -234 l-68 -84 25 -24 c21 -21 28 -23
46 -14 28 16 113 119 148 180 15 28 31 51 35 51 12 0 17 -37 21 -155 l4 -110
44 -8 c37 -7 188 4 239 17 56 14 59 17 53 50 -6 37 -61 274 -69 299 -12 38 58
15 149 -49 26 -19 51 -34 55 -34 5 0 18 11 31 24 l22 23 -39 35 c-63 57 -144
115 -206 147 -72 38 -149 43 -189 11z"/>
<path d="M2910 2075 c-30 -13 -94 -31 -142 -40 -49 -10 -90 -20 -92 -24 -2 -3
-7 -85 -10 -182 -5 -144 -10 -190 -30 -260 -37 -127 -37 -121 11 -135 41 -12
43 -12 61 14 29 41 67 145 102 277 48 185 47 183 83 194 49 15 150 23 166 12
12 -8 12 -27 3 -123 -7 -63 -12 -120 -12 -126 0 -7 16 -12 39 -12 37 0 40 2
55 43 28 77 46 149 52 212 6 58 5 64 -22 94 -30 33 -145 82 -187 80 -12 -1
-47 -12 -77 -24z"/>
<path d="M4116 1453 c-132 -324 -243 -592 -248 -598 -4 -5 -8 4 -8 20 1 63
-44 435 -52 435 -4 0 -6 -17 -3 -37 4 -21 17 -130 30 -243 l23 -205 -80 -195
c-100 -246 -94 -227 -79 -214 7 7 81 179 165 385 l153 373 214 102 c118 57
219 105 224 107 6 2 7 7 4 11 -3 3 -100 -39 -214 -94 -114 -55 -210 -99 -211
-97 -2 2 64 170 147 373 192 469 190 464 181 464 -4 0 -115 -264 -246 -587z"/>
<path d="M1097 1749 c-15 -11 -31 -37 -37 -58 -5 -20 -23 -50 -40 -66 -19 -18
-30 -39 -30 -55 0 -15 -9 -35 -20 -45 -23 -21 -26 -48 -7 -64 10 -8 22 -5 47
14 18 13 57 30 87 36 30 7 57 19 60 26 6 14 -22 63 -44 76 -17 10 -17 27 0 27
7 0 23 18 37 40 29 47 42 49 76 15 21 -21 24 -31 18 -62 -4 -21 -13 -45 -20
-54 -24 -27 -17 -49 15 -49 33 0 37 8 40 87 2 63 -18 106 -62 133 -41 26 -88
25 -120 -1z"/>
<path d="M3338 1678 c-2 -15 -19 -31 -47 -47 -38 -21 -42 -26 -25 -32 13 -5 7
-8 -23 -8 -23 -1 -45 4 -48 9 -13 21 -81 48 -108 43 -20 -4 -27 -11 -27 -29 0
-24 -1 -24 -105 -24 l-105 0 0 -140 0 -140 -70 0 c-38 0 -70 4 -70 9 0 17 -53
73 -79 82 -20 8 -28 7 -38 -7 -19 -27 -17 -30 40 -55 l52 -24 -192 -3 -193 -2
0 -159 0 -159 -92 -4 c-135 -5 -253 4 -254 20 -1 6 -2 22 -2 33 -2 19 -7 21
-46 17 -45 -5 -106 -40 -106 -61 0 -9 -27 -11 -95 -9 l-95 4 -2 -199 -3 -198
-96 0 c-69 0 -95 3 -92 12 6 16 -32 27 -96 28 l-54 0 -61 90 c-47 69 -62 100
-64 131 -2 22 -6 64 -11 92 -4 29 -5 54 -2 56 12 8 105 -14 129 -30 24 -16 25
-18 19 -113 -4 -53 -9 -112 -13 -132 l-6 -36 52 -10 c49 -10 52 -9 60 12 10
26 50 258 50 290 0 31 -47 77 -128 124 -65 38 -68 39 -127 30 -37 -5 -81 -5
-114 1 -30 6 -56 8 -58 7 -1 -2 -9 -21 -16 -42 l-13 -38 -48 67 c-27 37 -51
65 -54 62 -2 -3 8 -22 23 -41 15 -20 25 -38 23 -40 -2 -3 -20 0 -39 5 -41 12
-59 13 -59 2 0 -4 25 -13 56 -20 95 -20 96 -22 57 -164 -19 -68 -41 -138 -50
-156 -15 -29 -76 -82 -152 -132 -23 -15 -23 -15 -5 -55 10 -22 19 -42 20 -43
1 -2 38 20 81 49 121 82 171 134 213 221 l37 76 89 -126 c49 -69 97 -137 106
-151 l17 -26 -130 0 -129 0 0 -28 c0 -16 -9 -40 -20 -54 -11 -14 -17 -30 -13
-36 4 -7 0 -8 -13 -3 -33 14 -48 12 -52 -7 -5 -25 22 -31 59 -13 41 21 41 21
33 -11 -9 -36 -9 -36 -32 -22 -25 15 -55 5 -50 -18 2 -12 14 -19 38 -21 32 -3
49 -15 50 -35 0 -4 -14 0 -31 8 -24 13 -34 14 -45 4 -20 -17 -17 -50 5 -56 16
-4 18 -8 9 -23 -19 -30 -2 -53 32 -46 17 3 30 1 30 -4 0 -5 -10 -10 -23 -12
-16 -2 -22 -10 -22 -28 0 -25 0 -25 80 -22 44 2 86 8 93 14 8 7 362 10 1137 9
777 -2 1125 1 1125 8 0 19 49 24 74 8 31 -21 85 -19 115 4 29 23 39 24 63 2
17 -15 18 -15 18 3 0 11 5 25 12 32 15 15 3 16 -22 2 -28 -15 -185 17 -217 44
-31 27 -25 63 13 72 30 8 49 -7 72 -56 l17 -37 43 33 c42 33 43 34 20 43 -13
5 -54 17 -91 26 -79 20 -98 42 -72 81 23 36 54 28 82 -21 12 -22 24 -44 27
-50 2 -6 11 -3 21 7 16 15 16 18 0 45 -9 16 -35 39 -56 51 -44 26 -50 56 -14
76 11 6 22 12 24 13 2 2 -1 9 -8 17 -20 24 -8 285 18 381 29 110 74 219 132
320 l49 85 0 105 0 105 -52 0 -53 0 3 55 c3 49 2 55 -16 55 -12 0 -22 -9 -26
-23 -3 -14 -22 -31 -52 -46 -36 -17 -44 -25 -33 -32 9 -5 -12 -8 -61 -8 -41 0
-69 3 -62 6 7 3 12 24 12 54 0 45 -2 49 -24 49 -18 0 -25 -6 -28 -22z"/>
<path d="M4920 1230 c-19 -5 -87 -19 -150 -33 -226 -49 -342 -85 -482 -149
-48 -22 -68 -36 -70 -52 -2 -17 -12 -22 -52 -27 -31 -3 -53 -12 -62 -24 -22
-29 -17 -37 14 -21 32 17 62 5 62 -24 0 -27 -27 -39 -64 -29 -44 13 -43 13
-51 -28 -4 -21 -10 -32 -12 -25 -3 7 0 26 5 42 11 31 2 46 -23 37 -11 -5 -11
-13 1 -53 7 -25 11 -50 8 -55 -3 -5 -1 -9 5 -9 5 0 13 5 16 10 12 19 66 41 86
35 32 -11 43 -42 24 -72 -18 -26 -31 -27 -116 -7 -25 6 -27 3 -35 -38 -4 -23
-9 -35 -12 -25 -2 10 1 30 6 45 9 25 6 31 -30 61 -37 32 -40 32 -53 15 -12
-17 -11 -19 3 -23 30 -6 50 -32 59 -74 4 -23 7 -48 6 -54 -1 -19 11 -16 33 8
27 30 72 51 95 44 44 -14 49 -84 8 -106 -14 -7 -39 -8 -72 -3 -29 5 -56 8 -62
9 -5 0 -14 -20 -21 -45 -7 -25 -12 -35 -13 -23 -1 12 3 33 9 47 8 23 4 28 -42
61 -27 20 -53 45 -55 56 -8 27 -15 24 -40 -19 l-21 -38 31 4 c22 2 39 -3 54
-17 20 -19 43 -77 43 -108 0 -7 5 -13 11 -13 5 0 7 -4 4 -10 -10 -17 0 -12 55
25 52 35 105 46 126 25 7 -7 51 24 131 93 l122 102 160 38 c89 21 163 43 167
48 8 13 1 12 -156 -30 -80 -22 -146 -38 -147 -37 -1 1 121 105 272 231 150
127 274 233 274 238 1 8 0 8 -49 -3z"/>
</g>
</svg>
