<?xml version="1.0" standalone="no"?>
<!DOCTYPE svg PUBLIC "-//W3C//DTD SVG 20010904//EN"
 "http://www.w3.org/TR/2001/REC-SVG-20010904/DTD/svg10.dtd">
<svg version="1.0" xmlns="http://www.w3.org/2000/svg"
 width="540.000000pt" height="558.000000pt" viewBox="0 0 540.000000 558.000000"
 preserveAspectRatio="xMidYMid meet">
<metadata>
Created by potrace 1.16, written by Peter Selinger 2001-2019
</metadata>
<g transform="translate(0.000000,558.000000) scale(0.100000,-0.100000)"
fill="#000000" stroke="none">
<path d="M0 2790 l0 -2790 2700 0 2700 0 0 2790 0 2790 -1043 0 -1044 0 -18
-62 c-10 -35 -31 -92 -46 -128 -15 -36 -41 -135 -59 -220 -17 -85 -45 -202
-61 -259 -16 -58 -34 -133 -40 -168 -16 -90 -36 -86 -77 15 -41 101 -52 152
-57 280 -2 59 -11 135 -20 170 -16 62 -16 63 9 115 13 28 36 66 51 82 14 17
42 54 61 83 35 54 71 79 99 69 8 -4 25 -23 36 -42 27 -45 33 -39 25 20 l-7 45
-429 0 -429 0 35 -37 c19 -21 51 -67 71 -103 19 -36 52 -82 71 -102 35 -37 36
-39 23 -75 -7 -21 -26 -58 -41 -83 -30 -50 -55 -123 -65 -187 -4 -24 -11 -45
-15 -48 -12 -7 -58 142 -115 373 l-48 193 34 35 33 34 -31 0 c-17 0 -33 -6
-36 -12 -4 -10 -7 -10 -18 0 -10 9 -250 12 -1131 12 l-1118 0 0 -2790z m2746
2148 c49 -52 130 -174 146 -220 6 -18 16 -40 23 -48 24 -29 26 -40 11 -40 -9
0 -16 7 -16 15 0 8 -10 25 -22 37 -39 38 -187 241 -197 271 -15 41 7 35 55
-15z m-7 -943 c26 -24 57 -63 69 -86 23 -43 29 -113 11 -125 -7 -4 -9 -25 -4
-59 11 -89 -23 -82 -86 16 -25 40 -29 53 -22 76 9 25 1 86 -22 191 -4 17 -4
32 -1 32 4 0 29 -20 55 -45z m304 -435 c102 -10 96 -5 190 -153 l58 -91 47 2
c59 3 75 -7 70 -44 -3 -26 -7 -29 -45 -32 -24 -2 -43 -4 -43 -5 0 -1 9 -31 20
-67 28 -93 34 -170 21 -292 -12 -108 -36 -218 -49 -228 -5 -3 -12 -23 -17 -45
l-10 -40 -85 -3 c-92 -3 -110 6 -110 55 l0 23 -348 0 -348 0 -10 -37 -9 -38
-85 -3 c-92 -3 -110 6 -110 56 0 13 -6 30 -14 38 -16 16 -31 80 -46 194 -15
122 -12 201 14 299 l23 91 -37 0 c-43 0 -65 20 -55 49 8 25 43 36 89 28 33 -5
35 -4 90 86 94 152 92 150 183 157 122 11 519 11 616 0z m632 -1334 c28 -7 69
-23 92 -34 23 -12 72 -33 110 -47 90 -34 105 -45 152 -109 34 -46 55 -61 143
-106 161 -82 206 -139 178 -224 -21 -65 -93 -102 -215 -113 l-70 -6 3 -72 c3
-56 -1 -88 -19 -140 -36 -107 -61 -128 -196 -164 -37 -10 -45 -18 -67 -64 -53
-111 -155 -170 -253 -146 -37 10 -46 9 -63 -6 -20 -18 -147 -55 -189 -55 -14
0 -61 11 -104 25 -52 17 -101 25 -148 25 -115 0 -151 14 -214 82 -31 33 -65
78 -76 100 l-21 41 -19 -33 c-48 -77 -103 -142 -159 -185 -53 -41 -69 -48
-118 -52 -31 -2 -77 -10 -102 -18 -214 -65 -282 -70 -333 -25 -45 39 -83 46
-146 25 -60 -20 -129 -13 -166 17 -29 23 -31 34 -9 55 9 10 14 29 12 49 -1 19
3 39 10 46 6 6 12 17 12 23 0 16 41 50 89 75 51 26 61 44 49 88 -5 19 -7 54
-3 78 6 40 8 42 43 46 23 3 46 -1 62 -11 l25 -15 -20 23 c-14 17 -16 25 -7 28
6 3 12 11 12 19 0 8 7 14 15 14 19 0 65 40 65 56 0 7 9 19 21 27 11 8 16 18
11 21 -6 3 -12 0 -15 -6 -2 -7 -7 -10 -10 -7 -4 3 7 20 23 38 33 35 36 42 19
38 -6 -1 -14 4 -17 12 -2 8 0 11 5 8 6 -4 8 3 6 17 -4 17 9 38 51 83 39 43 52
62 42 66 -14 6 -129 -90 -122 -101 2 -4 -8 -32 -23 -61 -19 -39 -44 -68 -86
-101 -33 -26 -74 -68 -92 -96 -53 -82 -64 -95 -97 -114 -46 -28 -156 -177
-156 -212 0 -16 -6 -18 -32 -14 -18 3 -53 8 -78 11 -49 6 -140 57 -140 78 0 8
9 22 19 31 11 10 23 31 26 47 4 16 13 29 21 29 8 0 14 5 14 10 0 6 6 10 14 10
8 0 14 6 13 13 -1 32 4 48 13 42 9 -6 14 8 11 28 -2 11 7 9 33 -8 22 -14 25
-14 40 0 21 21 22 59 1 51 -9 -3 -15 0 -15 8 0 7 -7 19 -15 26 -12 10 -15 10
-15 -1 0 -11 -2 -11 -10 1 -8 13 -10 13 -15 -1 -7 -20 -54 -23 -61 -4 -11 27
5 62 50 112 l44 49 -50 -2 c-58 -2 -96 -31 -100 -77 -1 -15 -6 -27 -10 -27 -4
0 -8 -6 -8 -14 0 -20 -11 -26 -78 -36 -45 -8 -72 -6 -118 6 -81 21 -104 44
-104 107 0 64 29 115 81 145 76 44 117 89 134 149 26 89 64 120 261 212 268
125 314 136 439 106 33 -8 75 -14 93 -15 41 0 161 -40 257 -85 61 -28 82 -45
131 -105 43 -53 74 -80 117 -101 105 -54 166 -125 183 -213 l7 -39 17 35 c25
52 42 74 83 107 20 16 65 71 98 122 81 123 181 218 283 270 78 39 81 40 178
37 53 -1 100 1 104 5 12 12 116 8 169 -7z"/>
<path d="M2415 3535 c-5 -2 -22 -6 -36 -9 -21 -5 -34 -23 -71 -103 -65 -140
-65 -140 -26 -148 43 -10 873 -10 916 -1 39 9 39 9 -26 148 -55 120 -53 118
-272 116 -85 0 -135 -4 -110 -7 45 -6 59 -22 42 -48 -9 -14 -161 -21 -180 -9
-7 4 -12 18 -12 31 0 21 5 24 43 28 23 2 -25 4 -108 4 -82 1 -154 0 -160 -2z"/>
<path d="M2409 1612 c-41 -42 -100 -98 -131 -124 -42 -36 -64 -65 -88 -115
-35 -75 -67 -113 -120 -148 -28 -18 -40 -36 -59 -89 -26 -75 -24 -97 11 -89
13 4 26 11 30 16 3 6 24 11 45 11 30 1 38 5 37 19 -1 9 2 17 7 17 5 0 9 -5 9
-12 0 -6 3 -8 6 -5 4 4 -5 24 -20 45 -14 21 -26 52 -26 69 0 29 2 30 45 31 50
1 68 8 60 22 -9 14 12 48 33 54 10 4 32 24 48 46 18 24 35 38 44 35 10 -3 20
6 29 26 7 17 24 35 38 40 13 5 21 13 18 19 -3 5 0 10 8 10 8 0 19 6 25 13 8 9
6 16 -8 25 -17 10 -18 16 -8 37 6 14 16 25 21 25 6 0 7 3 4 7 -4 3 0 11 8 17
16 13 28 63 16 71 -5 2 -42 -30 -82 -73z"/>
</g>
</svg>
