<?xml version="1.0" standalone="no"?>
<!DOCTYPE svg PUBLIC "-//W3C//DTD SVG 20010904//EN"
 "http://www.w3.org/TR/2001/REC-SVG-20010904/DTD/svg10.dtd">
<svg version="1.0" xmlns="http://www.w3.org/2000/svg"
 width="1324.000000pt" height="562.000000pt" viewBox="0 0 1324.000000 562.000000"
 preserveAspectRatio="xMidYMid meet">
<metadata>
Created by potrace 1.16, written by Peter Selinger 2001-2019
</metadata>
<g transform="translate(0.000000,562.000000) scale(0.100000,-0.100000)"
fill="#000000" stroke="none">
<path d="M0 2810 l0 -2810 6620 0 6620 0 0 2810 0 2810 -4768 0 -4768 0 -23
-72 c-12 -40 -35 -104 -51 -143 -15 -38 -44 -146 -64 -240 -20 -93 -49 -222
-66 -285 -16 -63 -32 -132 -35 -152 -4 -28 -11 -38 -24 -38 -12 0 -26 22 -49
78 -41 101 -51 149 -57 281 -3 60 -12 137 -21 171 -15 59 -15 62 7 108 13 26
41 70 63 99 23 29 53 70 68 92 45 66 95 65 124 -4 10 -25 14 -27 19 -12 4 9 3
38 -2 65 l-8 47 -456 3 -457 2 -16 -26 c-14 -20 -20 -23 -32 -13 -8 6 -14 18
-14 25 0 12 -203 14 -1305 14 l-1305 0 0 -2810z m2767 2743 c19 -21 54 -72 78
-113 23 -41 55 -86 69 -99 14 -14 26 -30 26 -36 0 -18 -40 -106 -62 -137 -10
-15 -29 -68 -42 -118 -12 -49 -25 -92 -27 -95 -10 -9 -59 149 -110 353 l-52
212 33 35 c19 19 38 35 43 35 5 0 25 -17 44 -37z m354 -600 c71 -76 159 -213
159 -248 0 -7 7 -18 15 -25 17 -14 20 -40 5 -40 -5 0 -10 9 -10 19 0 11 -8 26
-19 33 -31 22 -211 269 -211 291 0 18 29 4 61 -30z m69 -1039 c17 -35 20 -54
15 -82 -4 -20 -8 -62 -8 -94 -1 -31 -5 -60 -9 -64 -11 -10 -43 21 -79 77 -25
40 -29 53 -22 76 9 25 4 68 -23 203 l-7 35 55 -53 c31 -30 65 -74 78 -98z
m238 -344 c96 -11 92 -7 185 -153 l58 -91 48 3 c58 3 85 -17 72 -52 -6 -17
-17 -23 -50 -25 -28 -2 -41 -7 -38 -15 33 -89 42 -140 41 -252 -1 -124 -27
-296 -48 -318 -6 -7 -16 -30 -21 -52 l-10 -40 -85 -3 c-92 -3 -110 6 -110 55
l0 23 -350 0 c-347 0 -350 0 -350 -21 0 -51 -15 -59 -105 -59 -92 0 -105 8
-105 64 0 13 -5 26 -10 28 -23 7 -60 218 -60 344 0 34 11 103 24 153 l23 91
-38 0 c-28 0 -41 5 -49 19 -22 42 17 69 86 58 31 -5 36 -3 50 26 9 18 44 71
76 119 64 93 63 93 163 101 94 8 527 6 603 -3z m627 -1334 c49 -14 207 -79
275 -113 19 -10 54 -44 77 -75 37 -49 58 -64 151 -111 59 -31 123 -72 142 -92
30 -31 35 -43 35 -85 0 -92 -60 -137 -205 -154 l-85 -10 3 -72 c4 -73 -19
-167 -53 -220 -20 -31 -73 -61 -130 -74 -59 -13 -82 -31 -105 -85 -43 -97
-153 -157 -247 -134 -37 10 -46 9 -63 -6 -20 -18 -147 -55 -189 -55 -14 0 -61
11 -104 25 -53 17 -101 25 -150 25 -119 1 -145 11 -209 80 -31 33 -65 79 -76
101 l-20 41 -18 -29 c-48 -75 -110 -147 -166 -189 -54 -42 -68 -48 -127 -54
-36 -4 -117 -21 -179 -38 -147 -42 -200 -42 -245 -2 -45 39 -83 46 -146 25
-60 -20 -129 -13 -166 17 -27 21 -33 44 -13 50 6 2 12 22 13 44 4 72 41 120
120 155 49 22 56 38 41 94 -8 27 -9 52 -2 77 8 32 14 37 45 41 20 2 40 0 46
-4 16 -16 28 -9 14 8 -11 13 -11 17 -1 20 6 3 12 11 12 19 0 8 9 14 19 14 10
0 21 7 25 15 3 8 13 15 21 15 11 0 16 8 15 23 -4 44 0 63 9 49 6 -10 10 -6 15
15 7 27 8 27 22 8 14 -19 15 -18 8 10 -7 27 -6 29 9 16 9 -7 14 -17 11 -22 -6
-11 7 -11 23 -1 7 4 9 13 4 21 -5 7 -13 11 -19 7 -6 -3 -13 -2 -17 4 -4 6 -10
8 -15 5 -5 -3 -11 -1 -15 5 -3 5 -2 10 3 10 5 0 7 11 5 23 -4 18 8 38 50 83
38 41 51 62 44 69 -8 8 -28 -5 -69 -43 -31 -30 -56 -57 -55 -61 1 -3 -6 -25
-15 -47 -18 -43 -56 -87 -126 -142 -23 -18 -57 -58 -75 -90 -19 -32 -54 -73
-81 -93 -26 -20 -55 -47 -64 -61 -9 -14 -32 -46 -51 -71 -19 -26 -36 -57 -38
-69 -2 -12 -5 -23 -6 -24 -1 -2 -36 1 -76 7 -55 6 -86 17 -122 40 -27 17 -49
37 -49 45 0 13 6 22 50 72 13 14 15 22 8 22 -7 0 -1 8 15 18 15 9 27 25 27 35
0 10 7 20 15 23 8 4 15 15 15 25 0 23 8 24 32 2 17 -15 20 -15 28 -3 6 8 10
11 10 6 0 -6 6 -1 14 9 14 20 11 45 -6 45 -5 0 -18 10 -29 23 -10 12 -18 17
-19 10 0 -7 -7 -10 -15 -7 -8 4 -15 2 -15 -3 0 -5 -13 -10 -30 -11 -28 -2 -29
0 -26 33 2 33 11 48 68 110 l27 30 -32 2 c-75 4 -102 -17 -127 -99 -14 -46
-15 -47 -88 -58 -45 -8 -72 -6 -118 6 -81 21 -104 44 -104 107 0 64 29 115 81
145 76 44 117 89 134 149 26 90 64 120 271 217 249 116 306 131 409 106 22 -6
74 -15 116 -20 77 -10 150 -36 267 -92 49 -24 75 -45 119 -100 42 -52 71 -77
115 -99 106 -53 167 -124 184 -214 l7 -39 19 42 c11 22 43 62 71 89 28 26 78
89 111 138 79 121 178 215 279 265 78 40 82 40 179 39 54 -1 101 1 105 5 11
11 117 6 168 -8z"/>
<path d="M2795 3545 c-5 -2 -22 -6 -36 -9 -21 -5 -34 -23 -71 -103 -66 -141
-66 -141 -26 -147 112 -17 925 -12 943 6 9 9 -73 195 -101 227 l-22 26 -179 2
c-98 0 -158 -2 -133 -5 45 -7 59 -23 42 -49 -9 -14 -159 -22 -180 -9 -6 4 -12
18 -12 31 0 21 5 24 43 28 23 2 -25 4 -108 4 -82 1 -154 0 -160 -2z"/>
<path d="M2811 1646 c-29 -34 -88 -90 -130 -126 -61 -53 -83 -80 -111 -137
-39 -79 -67 -114 -120 -148 -28 -17 -40 -36 -58 -86 -30 -86 -29 -98 6 -91 15
3 30 10 34 16 4 6 23 9 42 8 31 -3 37 0 46 23 8 21 6 32 -9 54 -11 15 -19 41
-19 58 1 28 4 31 33 31 48 0 77 11 71 28 -3 8 -1 14 5 14 6 0 7 4 4 10 -3 5 5
15 19 21 14 7 37 29 52 51 17 24 33 37 42 33 8 -3 16 2 18 13 3 9 21 28 39 41
19 13 32 28 28 34 -3 5 -1 7 4 4 6 -4 18 2 27 12 15 16 15 19 1 24 -23 9 -18
42 12 77 16 20 26 43 25 62 0 16 -2 31 -4 32 -2 1 -27 -25 -57 -58z"/>
</g>
</svg>
