<?xml version="1.0" standalone="no"?>
<!DOCTYPE svg PUBLIC "-//W3C//DTD SVG 20010904//EN"
 "http://www.w3.org/TR/2001/REC-SVG-20010904/DTD/svg10.dtd">
<svg version="1.0" xmlns="http://www.w3.org/2000/svg"
 width="1125.000000pt" height="750.000000pt" viewBox="0 0 1125.000000 750.000000"
 preserveAspectRatio="xMidYMid meet">
<metadata>
Created by potrace 1.16, written by Peter Selinger 2001-2019
</metadata>
<g transform="translate(0.000000,750.000000) scale(0.100000,-0.100000)"
fill="#000000" stroke="none">
<path d="M113 6613 c-15 -10 -23 -25 -23 -45 0 -17 -4 -27 -10 -23 -5 3 -10 2
-10 -3 0 -6 -15 -9 -34 -8 -30 1 -33 -1 -25 -17 6 -10 15 -14 21 -11 6 4 8 3
5 -4 -4 -5 -4 -18 0 -29 6 -16 8 -16 13 5 3 13 10 22 15 20 6 -2 9 -7 7 -11
-1 -5 2 -6 8 -2 5 3 10 15 10 26 0 17 3 18 20 9 11 -6 20 -19 20 -28 0 -10 9
-25 20 -34 27 -24 35 -62 18 -95 -11 -24 -12 -32 0 -56 10 -22 11 -31 2 -42
-9 -11 -5 -27 21 -74 25 -45 35 -57 42 -46 4 8 17 15 27 15 20 0 24 9 21 42
-1 9 6 22 16 30 20 14 77 88 72 91 -32 19 -78 34 -86 26 -11 -11 -56 19 -47
32 3 6 12 8 19 5 10 -3 13 3 11 21 -3 29 -41 62 -71 63 -40 1 -54 23 -57 92
-3 66 -3 66 -25 51z"/>
<path d="M0 5770 l0 -605 61 -175 c76 -218 216 -641 259 -780 18 -58 40 -130
50 -160 9 -30 32 -110 51 -176 l33 -122 82 -7 c62 -5 94 -3 139 10 40 12 72
15 104 10 72 -11 80 -9 191 30 104 37 106 37 198 29 50 -5 92 -6 92 -3 0 7
-33 82 -77 179 -83 179 -133 292 -133 298 1 8 164 -324 205 -418 16 -36 34
-69 40 -73 9 -7 43 -6 210 6 17 1 55 -2 86 -6 l56 -7 17 83 c35 161 88 231
222 293 99 46 185 57 343 44 360 -30 624 -92 687 -161 9 -10 21 -16 26 -13 4
3 7 0 6 -8 -2 -8 5 -12 20 -11 13 2 21 -1 17 -7 -3 -6 5 -14 19 -19 13 -6 27
-19 31 -30 6 -21 15 -24 88 -36 21 -3 40 -12 43 -20 3 -8 29 -19 57 -25 29 -6
66 -19 82 -30 38 -25 70 -25 101 -1 27 21 94 26 94 7 0 -18 34 -43 69 -51 30
-6 31 -8 25 -43 -7 -39 -38 -88 -60 -96 -7 -3 -37 20 -66 50 -28 30 -62 57
-74 60 -13 3 -25 13 -28 21 -5 11 -15 13 -45 8 -71 -12 -131 -13 -125 -3 4 6
-4 5 -16 -2 -15 -8 -20 -8 -16 -1 4 6 -5 16 -20 23 -22 10 -28 10 -32 0 -3
-10 -7 -10 -18 -1 -8 6 -14 8 -14 4 0 -4 -26 33 -59 82 -95 146 -180 194 -415
238 -178 33 -443 59 -532 52 -44 -3 -87 -13 -112 -26 -39 -20 -92 -82 -92
-108 0 -6 -5 -15 -10 -18 -6 -4 -9 -3 -8 2 2 4 -1 9 -6 10 -5 1 -12 7 -16 13
-13 20 -40 -68 -56 -178 -8 -58 -12 -107 -10 -109 2 -3 35 -9 73 -13 124 -16
175 -30 222 -59 26 -16 68 -31 96 -34 28 -3 84 -15 125 -26 41 -12 94 -21 118
-21 24 0 55 -6 70 -14 28 -14 114 -15 145 -1 11 5 24 2 36 -9 21 -19 63 -21
91 -4 14 9 25 9 42 1 13 -6 101 -14 196 -17 l173 -6 -7 56 -7 56 23 -14 c18
-10 24 -10 27 0 3 6 13 12 23 12 18 0 30 -26 30 -71 0 -26 0 -26 107 -33 90
-5 109 -4 116 9 4 8 15 15 24 15 14 0 14 -2 -3 -15 -18 -14 -17 -15 11 -9 73
15 195 91 316 198 26 23 65 53 87 68 46 30 177 178 197 223 8 17 21 56 30 88
12 45 20 57 35 57 25 0 26 17 3 24 -10 3 -6 4 10 2 15 -2 30 0 32 4 3 5 15 6
27 2 19 -5 30 -13 79 -58 19 -17 15 -51 -7 -51 -8 0 -14 4 -14 9 0 5 -5 6 -11
2 -6 -3 -15 0 -20 7 -14 24 -17 5 -7 -61 14 -101 1 -147 -68 -236 -51 -68
-106 -165 -100 -180 3 -7 22 -16 43 -20 109 -19 266 -146 297 -241 20 -59 12
-108 -20 -129 -18 -12 -24 -8 -67 45 -26 32 -47 64 -47 70 0 7 -4 9 -10 6 -18
-11 -11 -25 34 -68 24 -23 51 -56 59 -73 14 -27 23 -32 81 -42 50 -10 76 -10
111 -1 33 8 57 9 88 1 23 -6 98 -13 167 -16 104 -5 129 -3 148 10 12 8 22 24
22 34 0 10 6 20 13 23 14 4 47 -30 47 -49 0 -24 40 -35 153 -46 209 -18 266
-20 297 -9 21 7 39 7 58 0 15 -6 74 -15 132 -21 58 -5 127 -12 153 -15 35 -4
61 1 97 16 27 11 56 18 64 15 9 -4 29 5 47 21 40 33 75 31 71 -4 -1 -14 -9
-32 -17 -41 -13 -15 -13 -18 8 -29 14 -7 69 -14 128 -15 57 -2 116 -6 131 -11
37 -10 78 1 78 22 0 9 6 24 14 32 18 21 21 46 12 99 -10 55 11 92 52 92 28 0
62 -40 62 -73 0 -11 15 -17 55 -22 30 -4 58 -11 61 -16 3 -5 16 -9 29 -9 13 0
47 -9 75 -20 36 -14 50 -16 51 -7 1 6 2 17 3 22 0 6 19 27 41 47 l40 36 -18
36 c-36 77 -10 128 47 90 23 -14 53 -84 47 -108 -2 -10 19 -36 30 -36 5 0 9 7
9 14 0 23 87 25 130 4 47 -23 147 -30 182 -12 34 17 67 18 107 1 17 -7 47 -11
67 -9 31 4 35 7 29 26 -15 52 -13 115 6 134 15 17 16 25 6 51 -10 29 -9 33 16
57 15 14 32 22 38 19 5 -4 40 -10 77 -13 l67 -7 -3 -57 c-3 -50 0 -58 19 -68
21 -12 21 -12 -10 -44 -17 -18 -31 -41 -31 -53 0 -24 27 -38 45 -23 7 6 17 10
21 9 24 -4 36 4 51 36 17 35 92 83 112 71 11 -7 22 19 15 37 -3 8 2 20 10 27
16 12 12 35 -4 25 -5 -3 -27 -7 -49 -9 -39 -3 -41 -2 -47 31 -5 25 -3 38 7 44
19 12 69 11 69 -1 0 -5 7 -10 15 -10 8 0 22 -14 30 -31 15 -28 18 -30 34 -15
14 13 141 38 258 50 14 2 28 7 31 12 9 13 82 34 119 34 22 0 32 -6 36 -19 5
-21 94 -45 143 -39 34 4 40 42 17 96 -9 20 -16 43 -14 51 1 8 -2 17 -7 20 -7
4 -5 14 4 26 12 16 27 20 75 20 40 1 63 5 69 15 4 7 26 14 47 15 21 1 45 5 53
8 10 4 23 -5 40 -28 14 -19 31 -37 39 -40 11 -4 10 -1 -2 13 -22 25 -22 42 2
42 11 0 27 7 36 16 12 13 19 14 28 5 8 -8 7 -11 -6 -11 -9 0 -17 -4 -17 -9 0
-15 27 -20 39 -8 8 8 11 7 11 -5 0 -9 -6 -23 -14 -31 -12 -11 -11 -15 5 -25
10 -7 19 -19 19 -27 0 -8 6 -15 14 -15 8 0 21 -3 29 -6 21 -8 37 44 30 96 -6
41 -6 42 23 37 45 -8 88 -26 103 -45 13 -16 13 -16 8 0 -4 11 1 21 13 28 26
14 40 12 40 -5 0 -8 -7 -15 -15 -15 -8 0 -15 -5 -15 -11 0 -7 10 -9 25 -7 21
5 23 3 14 -15 -8 -13 -8 -22 0 -30 6 -6 11 -19 11 -30 0 -10 29 -46 65 -80 36
-34 65 -70 65 -79 0 -11 8 -16 30 -14 16 0 29 -2 29 -7 1 -10 31 -67 36 -67 2
0 20 10 40 21 20 12 48 21 63 21 15 0 35 5 46 10 13 7 21 7 26 -2 5 -7 20 -9
44 -5 29 6 36 12 36 30 0 31 52 54 76 34 8 -7 14 -2 18 16 4 14 11 25 16 25 5
0 2 12 -5 27 -12 23 -12 31 -1 48 17 25 36 29 58 13 14 -11 16 -20 8 -53 -13
-56 19 -126 36 -80 3 8 14 17 25 20 11 4 17 10 15 13 -5 9 112 7 121 -2 4 -3
1 -17 -6 -30 -8 -13 -10 -29 -7 -35 4 -6 2 -11 -3 -11 -6 0 -11 -4 -11 -8 0
-10 70 -36 77 -28 4 3 17 -1 30 -10 23 -14 25 -14 30 4 3 12 13 19 28 20 20 0
22 -3 10 -14 -7 -8 -18 -14 -24 -14 -6 0 -11 -7 -11 -16 0 -8 4 -12 10 -9 5 3
23 -1 39 -11 29 -17 61 -15 91 7 11 8 12 12 3 16 -19 7 -16 30 5 42 15 9 15
12 2 20 -12 8 -12 13 -2 23 9 9 12 9 12 -1 0 -7 4 -9 10 -6 14 9 12 -1 -6 -37
-9 -16 -11 -27 -6 -24 6 4 9 -14 7 -46 -4 -68 -8 -82 -24 -102 -11 -13 -11
-22 -1 -47 11 -24 17 -29 35 -25 14 4 28 0 35 -9 8 -9 21 -13 32 -9 16 5 19 2
17 -18 -2 -12 0 -29 5 -36 5 -8 4 -18 -3 -25 -8 -8 -11 -7 -11 3 0 10 -4 9
-18 -3 -10 -10 -24 -17 -30 -17 -6 0 -17 -9 -25 -20 -8 -11 -17 -17 -20 -14
-4 4 -18 -1 -32 -10 -24 -16 -25 -16 -25 5 0 12 -8 23 -20 26 -18 5 -18 7 -4
28 8 13 11 26 6 29 -5 3 -7 17 -4 31 5 31 -15 33 -50 6 l-24 -20 -13 35 c-9
25 -10 39 -2 48 7 8 7 16 0 23 -7 7 -5 14 6 23 25 21 17 28 -27 23 -58 -8 -77
-30 -72 -86 2 -31 -1 -47 -10 -50 -15 -6 -15 -39 0 -59 6 -7 12 -32 13 -55 1
-35 -1 -42 -14 -37 -9 4 -15 0 -15 -9 0 -20 -6 -24 -54 -31 -37 -6 -38 -5 -32
19 6 23 4 25 -29 25 -38 0 -40 -2 -25 -31 16 -29 3 -41 -25 -23 -19 12 -22 20
-15 35 23 46 26 56 29 97 2 49 -11 54 -42 16 -49 -59 -66 -74 -81 -68 -11 4
-22 -4 -33 -25 -21 -36 -33 -40 -33 -10 0 12 -4 17 -11 14 -6 -4 -16 0 -22 9
-20 26 -57 -20 -57 -69 0 -14 -4 -25 -10 -25 -5 0 -10 -5 -10 -11 0 -16 -31
-38 -52 -39 -22 0 -23 -14 -3 -34 14 -14 13 -18 -11 -46 -29 -32 -54 -39 -54
-16 0 8 -6 16 -13 19 -9 3 -9 9 2 30 8 14 18 24 23 21 4 -3 8 5 8 18 0 18 -2
20 -10 8 -8 -13 -10 -12 -10 3 0 9 5 17 10 17 6 0 3 12 -6 26 -13 19 -19 22
-25 12 -6 -9 -9 -3 -9 17 0 23 3 27 10 15 7 -11 8 -5 4 20 -9 47 -10 47 -25
-4 -11 -40 -16 -45 -49 -50 -25 -4 -43 -15 -60 -38 -32 -42 -50 -77 -50 -94 0
-8 -9 -14 -20 -14 -18 0 -19 -3 -10 -20 12 -23 78 -28 110 -8 16 10 23 9 42
-9 36 -32 58 -40 132 -48 l70 -8 31 37 31 37 74 -25 c41 -13 93 -27 115 -31
22 -4 45 -12 52 -17 7 -5 16 -7 21 -4 6 3 12 -3 15 -14 6 -22 -8 -28 -16 -7
-2 6 -8 8 -13 4 -15 -15 28 -37 70 -37 41 1 41 1 16 15 l-25 15 26 -6 c15 -3
30 -1 33 5 4 6 15 11 26 11 10 0 20 7 23 14 7 18 60 29 108 24 34 -4 34 -4 9
-15 -18 -9 -20 -12 -7 -12 9 -1 17 -6 17 -11 0 -6 -8 -14 -17 -17 -10 -4 -26
-15 -36 -24 -17 -16 -16 -17 23 -33 48 -19 181 -22 213 -4 12 6 57 13 99 15
72 4 79 3 103 -21 14 -14 30 -26 35 -26 6 0 10 -6 10 -14 0 -13 13 -15 107
-17 24 -1 40 -5 38 -10 -9 -13 13 -20 68 -24 29 -2 59 -6 67 -8 8 -3 54 -8
103 -12 l87 -6 0 172 0 171 -25 -16 c-33 -22 -38 -20 -31 9 7 28 4 30 -25 15
-20 -11 -25 2 -13 34 5 12 10 13 26 5 14 -7 23 -7 33 1 8 7 19 9 25 5 6 -4 10
7 10 30 0 45 -20 54 -60 25 -20 -15 -41 -20 -67 -18 -32 3 -38 8 -48 38 -11
32 -10 36 12 47 18 9 28 9 51 -3 40 -21 48 -18 46 17 -3 39 -8 44 -48 41 -31
-3 -32 -2 -28 30 3 26 13 39 44 58 22 14 50 24 64 22 30 -4 30 1 2 28 -24 22
-18 26 13 10 15 -8 19 -7 19 3 0 8 -13 17 -29 20 -19 4 -43 24 -70 58 -46 58
-50 69 -22 69 31 0 84 59 77 85 -4 14 0 28 9 35 8 7 15 26 15 42 0 17 4 27 10
23 6 -3 10 3 10 14 0 12 -6 21 -12 21 -10 0 -10 2 0 9 10 6 12 54 10 224 -2
118 -6 219 -10 222 -4 4 -15 4 -25 0 -32 -14 -87 -10 -128 9 -59 28 -119 29
-96 2 7 -9 -3 -26 -35 -60 -42 -46 -47 -48 -70 -36 -29 16 -30 24 -6 58 23 34
21 59 -10 114 -19 35 -22 49 -15 66 14 31 4 37 -50 26 -38 -7 -51 -15 -61 -37
-7 -15 -21 -27 -31 -27 -19 0 -44 -24 -54 -52 -7 -21 -64 -51 -83 -44 -8 3
-14 14 -14 25 0 22 49 81 67 81 7 0 13 4 13 9 0 12 -56 25 -69 16 -6 -3 -16
13 -22 36 -11 34 -10 48 3 84 15 39 15 45 1 65 -8 12 -21 19 -28 16 -21 -8
-36 14 -24 36 6 11 9 22 6 24 -8 8 -122 -40 -132 -55 -9 -15 -22 -62 -29 -106
-1 -11 -17 -30 -36 -42 -18 -13 -38 -29 -44 -37 -9 -11 -24 -11 -78 -3 -65 11
-67 12 -89 54 -13 26 -31 46 -45 49 -27 7 -36 25 -39 77 -2 21 -5 40 -7 42 -2
3 -31 5 -64 6 -32 0 -78 8 -101 17 -42 17 -53 33 -53 83 0 14 -10 35 -23 47
-29 27 -36 28 -34 3 2 -29 -36 -91 -58 -96 -70 -13 -95 -13 -95 1 0 8 7 17 15
20 17 7 21 34 5 34 -5 0 -10 -7 -10 -16 0 -11 -6 -15 -19 -11 -12 3 -22 -1
-25 -10 -4 -11 -18 -13 -58 -8 -64 7 -81 20 -45 34 18 7 25 15 21 25 -4 10 6
20 31 30 39 17 55 14 55 -8 0 -8 6 -19 14 -25 17 -14 25 -5 36 45 l8 34 -52
-5 c-168 -19 -176 -22 -176 -78 0 -24 5 -40 15 -43 18 -7 20 -60 3 -71 -7 -4
-20 -8 -28 -8 -8 0 -25 -15 -37 -34 -21 -31 -22 -37 -9 -55 10 -15 24 -21 49
-20 31 1 36 -2 41 -29 9 -47 8 -53 -19 -65 -37 -17 -67 -15 -121 8 -26 12 -53
19 -60 16 -7 -3 -15 -2 -19 2 -4 4 -18 7 -31 7 -29 1 -32 -24 -6 -48 10 -9 25
-40 32 -68 8 -27 18 -52 22 -55 11 -7 -18 -60 -37 -68 -33 -12 -54 -5 -94 34
-26 25 -46 38 -54 33 -14 -9 -47 -5 -63 8 -6 5 -35 11 -65 14 -30 2 -71 11
-92 20 -38 16 -143 46 -164 48 -7 0 -20 24 -29 54 -9 29 -21 56 -25 59 -5 3
-9 16 -9 29 0 13 -12 37 -28 52 -28 28 -72 42 -72 22 0 -5 -10 -23 -21 -38
-22 -30 -19 -51 6 -51 25 0 31 -69 9 -110 -20 -37 -60 -52 -75 -28 -7 10 -10
8 -15 -9 -4 -13 -12 -23 -19 -23 -24 0 -45 12 -45 25 0 7 -9 11 -23 8 -32 -6
-50 18 -38 49 7 20 5 28 -10 41 -25 22 -32 21 -19 -2 16 -31 12 -41 -17 -41
-16 0 -46 -9 -68 -19 -22 -10 -56 -21 -76 -25 -25 -4 -50 -21 -80 -53 -41 -44
-79 -100 -59 -88 4 3 22 -7 39 -21 23 -19 31 -34 31 -59 0 -20 -6 -35 -15 -39
-21 -8 -19 -24 6 -31 19 -6 19 -8 4 -25 -9 -10 -22 -16 -29 -14 -7 3 -19 -2
-26 -11 -17 -20 -24 -19 -70 11 -40 27 -44 48 -8 57 41 11 8 24 -42 16 -28 -4
-57 -6 -65 -3 -8 3 -39 0 -71 -6 -52 -11 -58 -15 -73 -51 -12 -29 -22 -39 -39
-39 -15 0 -26 -9 -32 -25 -5 -14 -17 -25 -25 -25 -9 0 -27 -7 -40 -16 -13 -9
-29 -13 -34 -10 -5 4 -29 0 -53 -9 -24 -8 -54 -15 -66 -15 -26 0 -25 -8 -12
125 1 6 0 19 -2 30 -3 18 2 20 47 17 28 -1 66 -4 85 -7 19 -2 29 -2 23 1 -10
4 -10 11 -2 26 6 11 9 43 7 71 l-3 50 45 24 c24 13 54 32 65 42 27 24 47 30
61 17 25 -26 37 -64 35 -112 -2 -59 9 -73 45 -54 27 15 34 31 36 84 1 27 5 36
19 36 29 0 32 18 10 60 -16 32 -18 41 -7 47 9 5 12 19 9 40 -4 25 -11 33 -30
35 -17 2 -32 14 -43 35 -53 99 -170 160 -226 118 -10 -8 -34 -15 -51 -15 -18
0 -47 -9 -65 -20 -18 -11 -37 -20 -41 -20 -4 0 -27 20 -51 45 -25 25 -52 45
-61 45 -26 0 -94 39 -106 61 -8 16 -8 28 2 52 20 47 12 96 -21 133 -16 19 -32
51 -36 71 -8 45 -31 93 -44 93 -5 0 -20 -5 -34 -11 -20 -9 -32 -8 -68 9 -24
11 -67 23 -95 27 l-53 7 0 -31 c0 -24 -13 -43 -62 -90 -67 -67 -88 -70 -138
-27 -47 41 -79 56 -123 56 -42 0 -48 -4 -109 -70 l-65 -70 8 -47 c8 -50 -3
-119 -24 -158 -7 -12 -34 -41 -60 -64 -36 -30 -57 -41 -82 -41 -18 0 -40 -3
-48 -6 -8 -3 -21 1 -28 9 -8 7 -36 22 -63 32 -48 18 -101 64 -111 96 -8 23
-80 69 -108 69 -12 0 -31 6 -42 14 -22 15 -78 13 -83 -3 -2 -6 -14 -26 -28
-46 -38 -56 -33 -79 22 -93 56 -15 58 -42 4 -54 -44 -9 -60 -4 -60 22 0 13 -7
20 -20 20 -11 0 -20 5 -20 10 0 16 -96 12 -137 -5 -43 -18 -109 -17 -125 2 -7
9 -23 11 -47 7 -70 -12 -71 -12 -71 -60 l0 -44 -57 0 c-35 -1 -66 -6 -77 -15
-11 -8 -33 -15 -48 -15 -26 0 -28 3 -26 33 1 18 -1 38 -5 43 -3 6 -38 14 -76
17 -45 4 -90 15 -126 33 -42 19 -72 26 -111 25 -92 -2 -127 25 -140 104 -3 22
-7 42 -9 44 -9 9 -72 17 -85 10 -8 -4 -26 -12 -40 -19 -71 -33 -85 -45 -82
-70 3 -29 20 -68 41 -93 8 -9 19 -27 26 -40 10 -19 7 -25 -19 -44 -44 -34 -88
-30 -121 9 -21 25 -35 32 -67 34 -44 2 -94 -15 -137 -47 -27 -20 -30 -20 -123
12 -18 6 -49 15 -68 19 -19 4 -26 8 -15 9 15 1 16 4 7 13 -10 10 -17 10 -32 0
-12 -7 -37 -10 -59 -7 -32 4 -45 -1 -76 -25 -30 -24 -48 -30 -85 -30 -60 0
-91 26 -42 36 46 9 74 55 75 125 1 32 -3 63 -9 69 -16 16 -69 -6 -84 -35 -7
-14 -35 -43 -62 -65 -26 -23 -48 -49 -48 -59 0 -10 -9 -30 -20 -44 -12 -14
-26 -41 -32 -59 -6 -18 -19 -45 -30 -60 -10 -14 -18 -31 -18 -36 0 -19 -21
-25 -99 -28 -42 -2 -86 -5 -99 -8 -20 -4 -22 -2 -16 16 4 14 2 18 -5 14 -6 -4
-11 -1 -12 6 -3 50 -16 91 -27 84 -5 -3 -26 -1 -46 5 -27 7 -41 7 -51 -1 -20
-17 -71 -3 -94 26 -10 13 -23 24 -28 24 -5 0 -17 16 -27 36 -16 35 -16 38 2
58 26 30 22 124 -7 147 -27 22 -103 6 -153 -33 -20 -15 -40 -28 -44 -28 -3 0
-26 -12 -50 -27 -48 -30 -62 -60 -45 -92 15 -27 -4 -36 -92 -44 -58 -5 -68 -4
-65 9 2 8 7 14 11 12 5 -2 15 9 23 25 8 15 19 27 24 27 6 0 10 9 10 21 0 23
-19 41 -98 95 -28 19 -58 48 -66 63 -27 52 -96 111 -138 117 -44 7 -68 34 -68
76 0 15 -4 30 -10 33 -5 3 -10 12 -10 20 0 8 -12 31 -26 52 -14 21 -32 52 -40
69 -31 65 -254 222 -296 208 -13 -4 -25 -7 -28 -6 -3 0 -14 -5 -24 -10 -18
-10 -18 -11 5 -29 19 -14 21 -21 12 -30 -15 -15 -70 6 -76 29 -4 15 -5 15 -6
0 -1 -12 -9 -18 -24 -18 -13 0 -33 -13 -47 -30 -19 -23 -33 -30 -60 -30 -41 0
-58 -21 -66 -77 -2 -21 -15 -46 -29 -59 -33 -30 -32 -67 1 -89 14 -9 22 -20
18 -25 -14 -12 -94 -19 -94 -8 0 5 -5 6 -10 3 -8 -5 -8 -11 0 -20 8 -9 4 -11
-15 -7 -18 3 -30 -1 -40 -14 -14 -18 -14 -17 -15 9 0 21 -5 27 -22 27 -22 -1
-22 -1 -4 -15 26 -20 11 -39 -18 -20 -19 13 -29 13 -75 1 -48 -12 -56 -12 -72
2 -23 19 -24 45 -5 61 16 13 15 73 -1 93 -6 7 -16 31 -23 53 -23 75 -77 107
-114 69 -9 -8 -20 -12 -26 -9 -14 9 -13 0 6 -43 46 -106 281 -682 278 -682 -2
0 -13 18 -24 39 -11 22 -26 44 -34 48 -8 4 -48 94 -89 198 -183 463 -434 981
-691 1429 -98 170 -184 319 -192 330 -12 18 -14 -58 -14 -584z m1675 -1074
c10 -7 19 -24 20 -37 2 -21 7 -24 36 -23 19 1 49 4 67 9 l33 7 -7 -39 c-9 -47
-33 -82 -57 -83 -10 0 -39 16 -64 35 -28 21 -57 35 -74 35 -16 0 -29 4 -29 9
0 5 -13 14 -30 20 -28 9 -43 41 -19 41 6 0 22 9 36 20 30 23 62 26 88 6z
m3759 -1358 c24 -12 47 -28 50 -37 3 -9 10 -25 15 -37 19 -43 -3 -44 -68 -5
-62 38 -64 39 -98 24 -41 -17 -63 -11 -63 16 0 24 56 61 92 61 15 0 48 -10 72
-22z m5360 -183 c4 -16 16 -26 36 -30 16 -4 30 -12 30 -19 0 -7 9 -21 20 -31
19 -18 58 -17 104 1 16 6 18 4 14 -13 -6 -24 8 -53 26 -53 19 0 29 -32 14 -42
-11 -8 -10 -11 1 -15 11 -5 11 -7 0 -14 -10 -6 -10 -9 -2 -9 14 0 6 -31 -11
-42 -7 -5 -4 -8 6 -8 10 0 15 -6 13 -12 -6 -16 -55 -17 -55 -1 0 6 -14 16 -31
22 -21 7 -29 16 -27 28 6 27 -23 45 -43 27 -31 -28 -77 5 -70 49 2 12 -25 37
-40 37 -8 0 -7 6 4 18 20 22 24 53 5 34 -7 -7 -25 -12 -40 -12 -15 0 -28 -4
-28 -10 0 -5 -7 -6 -17 -3 -11 4 -14 3 -9 -5 4 -7 2 -12 -3 -12 -6 0 -11 -7
-11 -15 0 -8 -4 -15 -9 -15 -12 0 -22 27 -15 44 3 7 -2 16 -10 19 -16 6 -23
28 -8 26 22 -4 32 3 32 22 0 11 4 17 10 14 12 -8 51 13 68 36 16 23 38 15 46
-16z"/>
<path d="M848 6272 c-6 -15 -13 -42 -15 -61 -6 -49 -20 -71 -47 -71 -31 0 -63
45 -45 66 6 8 18 14 25 14 20 0 17 17 -3 24 -11 5 -24 -2 -39 -19 -28 -33 -65
-32 -101 3 -15 16 -43 32 -62 35 l-33 7 7 -38 c16 -79 10 -103 -36 -151 -22
-23 -46 -40 -52 -38 -7 2 -20 0 -31 -5 -17 -9 -18 -7 -12 26 6 33 -1 46 -17
29 -4 -3 -21 -8 -39 -10 -18 -2 -35 -8 -38 -14 -8 -12 -32 -9 -42 6 -29 39 8
-45 112 -251 65 -132 119 -231 120 -221 0 9 5 17 11 17 5 0 7 -4 4 -10 -3 -5
-2 -10 3 -10 6 0 13 7 16 16 3 8 2 13 -3 10 -5 -3 -11 3 -14 14 -3 11 -2 18 3
15 9 -6 20 18 20 45 0 11 7 19 18 19 24 1 50 1 96 1 21 0 44 5 51 10 7 6 20 8
29 4 26 -10 31 24 9 54 -11 15 -23 43 -27 63 -9 49 20 64 98 55 51 -7 56 -6
56 12 0 38 16 41 140 28 44 -4 45 -3 61 33 14 33 14 40 1 69 -15 31 -32 43
-32 22 0 -15 -72 -42 -96 -36 -28 7 -58 70 -49 103 4 19 1 29 -15 40 -11 8
-20 25 -20 38 0 33 52 43 116 21 66 -22 69 -21 36 20 -27 32 -35 36 -91 39
-59 4 -62 3 -73 -23z"/>
<path d="M1277 5804 c-3 -3 -3 -12 0 -20 4 -12 -2 -13 -34 -8 -33 5 -43 2 -54
-12 -19 -26 -39 -24 -87 10 -46 31 -55 28 -85 -31 -19 -36 -37 -45 -77 -36
-30 5 -30 5 -19 -27 9 -24 16 -30 30 -27 12 3 31 -5 49 -21 17 -15 47 -31 68
-37 33 -10 37 -14 34 -40 -5 -41 -19 -55 -58 -55 -26 0 -42 9 -74 42 -22 23
-40 48 -40 55 0 7 -4 13 -10 13 -5 0 -10 -9 -10 -19 0 -11 -4 -22 -9 -25 -5
-4 -12 -24 -16 -46 -4 -22 -11 -40 -16 -40 -6 0 -5 -9 1 -21 9 -16 8 -25 -6
-40 -9 -10 -23 -19 -31 -19 -19 0 -28 27 -14 44 8 10 5 18 -13 35 -20 19 -28
21 -45 12 -12 -7 -21 -18 -21 -25 0 -17 -43 -56 -61 -56 -8 0 -23 7 -33 15
-10 8 -23 12 -28 9 -5 -3 -21 2 -35 11 -19 13 -25 14 -21 4 51 -124 153 -339
156 -328 9 29 36 48 76 54 48 8 133 65 145 98 5 12 11 21 15 19 10 -5 100 10
111 19 18 14 82 5 104 -15 19 -17 20 -17 38 16 13 24 18 54 17 109 -1 69 -4
80 -31 115 -16 21 -31 49 -31 62 -3 47 -5 57 -15 70 -14 17 3 15 24 -4 9 -8
31 -17 48 -19 28 -4 31 -2 26 15 -4 14 -2 20 9 20 9 0 16 5 16 10 0 18 61 11
88 -10 32 -26 39 -18 48 47 6 51 6 53 -21 63 -19 7 -31 7 -41 0 -9 -8 -19 -7
-37 4 -13 9 -26 13 -30 10z"/>
<path d="M1 3878 c-1 -309 2 -457 9 -460 6 -2 13 -28 16 -58 3 -29 8 -59 13
-64 4 -6 13 -30 21 -54 10 -32 11 -45 2 -54 -26 -26 -25 -26 140 -74 93 -26
123 -31 144 -24 20 8 24 14 18 28 -15 33 -73 218 -100 317 -37 139 -187 657
-228 790 l-35 110 0 -457z"/>
<path d="M516 3582 c-3 -4 -1 -24 3 -43 4 -18 6 -60 4 -91 -2 -31 1 -60 7 -63
16 -10 11 -59 -8 -76 -24 -21 -64 -18 -85 6 -18 20 -18 19 -14 -42 4 -48 1
-71 -13 -98 -11 -22 -20 -31 -24 -23 -3 7 -4 2 -3 -11 3 -40 50 -66 113 -64
29 1 56 -2 59 -8 4 -5 10 -7 14 -4 24 14 341 -65 341 -86 0 -5 7 -9 15 -9 8 0
15 -4 15 -10 0 -5 6 -10 14 -10 14 0 46 -36 46 -51 0 -11 -233 1 -247 13 -7 5
-24 7 -37 4 -19 -5 -31 0 -51 21 -14 15 -25 32 -25 37 0 9 -9 17 -62 57 -25
18 -27 19 -21 2 4 -10 15 -32 25 -50 11 -17 21 -43 24 -56 l4 -26 -67 5 c-38
2 -115 8 -173 14 -58 5 -165 12 -237 16 -111 5 -133 4 -133 -8 0 -11 47 -18
233 -32 127 -10 282 -20 342 -22 166 -6 485 -32 526 -44 20 -5 49 -25 65 -43
32 -35 150 -186 173 -221 8 -11 22 -33 32 -48 11 -15 19 -33 19 -41 0 -7 7
-22 16 -33 14 -18 15 -15 10 41 -4 48 -12 70 -45 118 -23 32 -41 63 -41 69 0
24 -43 78 -97 120 -75 59 -221 205 -228 227 -10 31 -99 88 -194 123 -31 11
-61 25 -68 30 -7 5 -17 7 -23 3 -5 -3 -10 1 -10 9 0 26 -15 25 -49 -5 -35 -30
-51 -30 -51 1 0 14 11 22 38 29 29 8 42 19 55 46 9 20 17 45 17 56 0 12 -30
53 -70 96 -38 41 -70 82 -70 91 0 8 -11 30 -25 47 -13 18 -21 35 -18 39 4 3 1
6 -5 6 -6 0 -13 -4 -16 -8z"/>
<path d="M2413 3559 c-10 -10 -5 -51 11 -90 4 -9 -1 -43 -10 -75 -14 -46 -17
-90 -15 -204 2 -80 3 -164 3 -187 0 -32 5 -43 17 -44 77 -5 251 19 251 35 0 7
3 7 8 -1 17 -28 299 35 352 78 20 17 21 20 5 14 -11 -3 -69 -17 -130 -30 -111
-24 -141 -22 -115 10 7 8 8 15 3 15 -5 0 -9 8 -9 18 0 9 -4 37 -7 60 -4 25 -2
52 4 64 8 15 7 25 -5 43 -9 14 -16 33 -16 45 0 11 -4 20 -10 20 -9 0 -14 -17
-13 -48 1 -7 -4 -11 -11 -9 -6 2 -12 26 -14 54 -2 40 1 52 14 57 10 4 22 2 28
-4 23 -23 36 -10 36 35 0 38 -3 45 -19 45 -35 0 -71 -19 -72 -37 0 -10 -7 9
-15 42 -21 89 -21 89 -40 71 -17 -17 -34 -21 -34 -7 0 4 -11 7 -25 6 -15 -2
-29 3 -35 13 -14 24 -12 15 9 -54 11 -39 17 -84 16 -125 -2 -35 1 -68 5 -74
12 -15 28 -100 36 -188 4 -43 11 -80 15 -83 21 -13 5 -19 -54 -22 l-62 -3 0
53 c-1 177 -32 408 -55 408 -5 0 -7 7 -4 15 6 15 -12 82 -25 89 -4 3 -12 1
-18 -5z"/>
<path d="M1117 3129 c100 -111 202 -199 232 -200 14 0 38 -2 54 -4 15 -2 27 1
27 6 0 5 7 9 16 9 21 0 13 22 -12 35 -55 28 -154 89 -154 96 0 4 -8 5 -19 2
-10 -3 -22 0 -25 6 -4 6 0 11 11 11 17 1 16 2 -2 16 -11 8 -28 13 -37 10 -10
-2 -21 0 -24 6 -3 5 -13 7 -21 4 -8 -3 -26 2 -41 11 l-27 16 22 -24z"/>
<path d="M8630 3059 c-49 -82 -46 -89 40 -89 51 0 57 2 92 41 21 23 38 44 38
48 -1 12 -30 44 -36 39 -3 -4 -14 2 -25 13 -37 37 -63 25 -109 -52z"/>
<path d="M2368 880 c-5 -30 -15 -145 -23 -255 -9 -110 -18 -221 -21 -248 -7
-58 -16 -174 -19 -243 -2 -28 -6 -62 -10 -75 -18 -63 -21 -59 40 -59 46 0 56
3 52 15 -4 8 -7 60 -8 117 -1 57 -6 137 -11 178 -7 51 -6 124 2 230 13 171 11
440 -2 340z"/>
<path d="M1830 855 c-25 -13 -51 -24 -57 -24 -15 -1 -17 -27 -4 -35 5 -3 22 1
37 9 34 17 44 19 44 6 0 -5 -17 -15 -38 -23 l-38 -13 14 -49 c8 -27 17 -45 20
-39 11 15 78 53 95 53 23 0 41 36 23 43 -8 3 -24 3 -35 0 -23 -6 -30 14 -8 23
13 5 12 75 -2 73 -3 -1 -26 -12 -51 -24z"/>
</g>
</svg>
