<?xml version="1.0" standalone="no"?>
<!DOCTYPE svg PUBLIC "-//W3C//DTD SVG 20010904//EN"
 "http://www.w3.org/TR/2001/REC-SVG-20010904/DTD/svg10.dtd">
<svg version="1.0" xmlns="http://www.w3.org/2000/svg"
 width="2470.000000pt" height="760.000000pt" viewBox="0 0 2470.000000 760.000000"
 preserveAspectRatio="xMidYMid meet">
<metadata>
Created by potrace 1.16, written by Peter Selinger 2001-2019
</metadata>
<g transform="translate(0.000000,760.000000) scale(0.100000,-0.100000)"
fill="#000000" stroke="none">
<path d="M0 4655 c0 -1620 1 -2945 3 -2945 1 0 41 16 87 36 47 20 114 46 150
59 36 13 166 61 290 108 124 47 380 144 570 215 190 72 386 147 435 167 50 20
119 47 155 60 36 13 155 58 265 100 110 42 277 105 370 140 299 111 448 167
540 202 50 19 101 39 115 43 14 5 97 36 185 70 88 34 201 76 250 94 50 18 250
93 445 166 195 72 402 149 460 170 174 62 536 195 679 250 74 28 272 97 440
154 168 57 398 136 511 176 257 90 424 148 715 248 241 84 436 153 545 195
222 85 881 346 925 367 52 24 155 64 198 77 52 15 55 20 30 39 -14 10 -15 13
-4 14 8 0 22 -6 30 -14 14 -12 23 -12 63 0 26 8 47 19 45 25 -2 11 51 33 168
69 39 12 86 28 106 35 22 8 42 9 52 3 10 -5 19 -4 24 4 13 20 70 45 178 78
123 38 138 50 92 72 -33 16 -35 15 -60 -8 -14 -13 -35 -24 -45 -24 -11 0 -25
-6 -31 -14 -11 -13 -91 -36 -126 -36 -7 0 -16 8 -20 18 -3 9 -22 25 -43 34
-32 16 -38 16 -51 3 -11 -10 -11 -15 -3 -15 7 0 12 -7 12 -15 0 -9 7 -18 15
-21 8 -4 15 -10 15 -15 0 -12 -47 -11 -55 1 -10 17 -23 11 -18 -8 7 -28 -24
-49 -48 -34 -24 15 -39 8 -39 -19 0 -31 -18 -22 -26 14 -3 17 -14 41 -23 52
-14 18 -20 19 -51 8 -33 -11 -34 -14 -10 -17 6 0 19 -16 30 -34 15 -25 18 -38
10 -52 -11 -20 -19 -24 -92 -40 -44 -9 -49 -8 -72 15 -14 14 -31 25 -39 25
-25 0 -51 -28 -52 -56 -1 -19 -8 -30 -19 -32 -14 -3 -17 4 -15 42 3 53 -4 65
-26 42 -20 -20 -75 -22 -75 -2 0 17 24 38 33 29 12 -11 37 19 49 58 12 43 19
47 38 24 7 -8 18 -15 25 -15 7 0 18 -13 25 -30 9 -21 19 -30 36 -30 13 0 27
-6 31 -14 7 -13 31 -20 61 -17 17 1 15 28 -3 35 -8 3 -15 17 -15 31 0 18 -7
28 -24 35 -18 6 -22 14 -19 32 3 17 -4 33 -25 54 -29 29 -46 70 -33 79 4 2 18
-14 30 -36 27 -48 47 -46 43 4 -3 34 -2 36 25 34 15 -2 33 3 38 9 6 7 24 15
42 19 28 6 34 3 47 -24 23 -43 117 -69 130 -35 4 12 10 13 19 6 8 -7 18 -6 31
4 25 17 31 18 48 0 24 -23 57 -29 64 -11 4 9 2 21 -4 27 -8 8 -8 17 -1 30 9
16 4 28 -25 66 -31 39 -35 51 -30 80 10 52 11 125 3 143 -4 8 -3 35 2 59 10
42 9 44 -27 74 -21 17 -49 33 -63 36 -24 5 -26 10 -29 65 -2 33 2 96 8 140 16
102 1 191 -34 205 -12 4 -42 21 -67 37 -45 30 -131 56 -178 55 -43 -2 -123 47
-161 97 -49 67 -70 82 -102 75 -24 -5 -31 0 -49 30 -18 32 -26 36 -60 36 -35
0 -39 3 -39 24 0 14 -4 28 -10 31 -5 3 -10 13 -10 22 0 9 -12 41 -27 72 -14
31 -26 68 -26 83 0 34 -42 57 -65 34 -8 -8 -15 -25 -16 -38 -1 -18 -7 -24 -33
-26 -18 -2 -33 1 -33 7 0 5 -17 11 -37 13 -33 3 -38 6 -41 31 -3 27 -6 29 -38
23 -26 -5 -34 -4 -34 8 0 25 -17 28 -100 15 -60 -8 -84 -8 -94 0 -18 15 -26
97 -14 133 14 38 5 44 -29 21 -39 -26 -100 -53 -122 -53 -10 0 -26 9 -36 20
-10 11 -21 20 -25 20 -4 0 -10 -9 -13 -20 -10 -37 -80 -16 -77 23 5 55 -7 59
-70 27 -45 -23 -79 -25 -126 -8 -23 8 -42 8 -75 0 -36 -10 -46 -9 -55 3 -6 8
-19 15 -29 15 -13 0 -16 5 -11 25 6 23 4 25 -28 25 -19 0 -38 -4 -41 -10 -11
-19 -41 -10 -71 20 -30 31 -53 36 -83 21 -20 -11 -61 7 -99 42 -12 11 -32 22
-44 24 -12 2 -34 11 -48 21 -14 9 -38 19 -55 22 -26 4 -30 10 -33 41 -3 33 -5
35 -34 31 l-31 -5 7 44 7 43 -21 -19 c-14 -13 -19 -26 -16 -40 7 -27 -16 -60
-35 -53 -18 7 -17 51 1 73 15 19 5 34 -12 17 -15 -15 -48 -16 -48 -2 0 18 -30
11 -31 -7 0 -11 -3 -13 -6 -5 -7 19 -23 4 -23 -23 0 -13 -4 -27 -10 -30 -14
-9 -50 13 -50 31 0 12 -4 13 -22 3 -13 -7 -23 -11 -23 -9 0 2 -10 0 -23 -4
-13 -5 -29 -3 -37 4 -9 7 -15 8 -20 0 -12 -19 -45 -10 -57 15 -12 27 -36 33
-44 11 -4 -12 -10 -11 -36 2 -19 9 -62 15 -114 16 -75 2 -86 4 -113 29 -17 15
-31 31 -31 35 0 13 -66 33 -86 26 -31 -11 -63 -45 -57 -60 3 -8 -1 -14 -8 -14
-7 0 -29 -11 -49 -25 -31 -21 -41 -24 -64 -15 -14 5 -36 26 -48 46 l-21 36
-68 -7 c-60 -6 -71 -5 -95 14 -15 12 -32 21 -39 21 -7 0 -18 7 -25 15 -7 8
-23 15 -36 15 -12 0 -25 4 -28 9 -3 5 -32 12 -63 16 -41 4 -63 13 -74 27 -17
22 -82 50 -114 49 -10 0 -25 5 -32 11 -7 5 -19 8 -27 5 -22 -9 -86 15 -88 32
0 9 0 26 1 39 2 26 -5 28 -25 7 -17 -17 -54 -20 -54 -5 0 6 -11 10 -25 10 -14
0 -30 9 -37 20 -13 20 -24 20 -2140 20 l-2128 0 0 -2945z m5966 1990 c5 -11
10 -12 26 -4 11 6 22 9 24 6 7 -7 -14 -54 -33 -76 -10 -10 -26 -31 -36 -45
-18 -26 -60 -36 -72 -16 -3 6 -14 10 -24 10 -10 0 -26 9 -36 20 -18 19 -17 20
3 20 12 0 22 3 22 8 0 4 13 16 29 27 17 10 34 30 40 42 12 26 49 31 57 8z
m1687 -1664 c9 -16 17 -36 17 -45 0 -9 9 -24 20 -33 11 -10 20 -23 20 -29 0
-6 9 -14 20 -17 13 -3 20 -14 20 -29 0 -13 6 -30 13 -37 10 -10 8 -15 -7 -27
-23 -17 -116 -19 -116 -3 0 6 -7 8 -16 5 -21 -8 -44 11 -44 35 0 24 18 33 35
19 8 -7 15 -9 15 -4 0 4 5 3 12 -4 19 -19 28 -14 28 13 0 13 8 29 18 34 14 9
15 12 3 20 -10 6 -21 5 -34 -4 -24 -17 -57 -8 -57 15 0 12 -12 22 -34 30 -27
8 -33 15 -29 31 4 14 11 18 24 14 23 -8 59 11 59 30 0 24 14 17 33 -14z m374
2 c15 -10 40 -16 59 -14 31 2 34 0 32 -23 -2 -17 -11 -29 -30 -37 -28 -11 -37
-32 -18 -44 16 -10 12 -42 -6 -49 -9 -4 -24 0 -34 9 -28 25 -43 19 -37 -15 5
-22 2 -32 -12 -39 -21 -12 -32 -5 -24 15 7 19 -24 53 -64 71 -25 10 -33 20
-33 38 0 14 5 25 10 25 6 0 10 -4 10 -10 0 -5 5 -10 10 -10 6 0 10 9 10 20 0
28 20 25 21 -2 1 -17 3 -18 6 -6 2 9 13 20 24 23 12 4 25 20 31 36 12 34 11
34 45 12z m-1537 -304 c0 -49 22 -50 30 -1 l5 32 34 -20 c26 -17 32 -25 27
-43 -4 -12 -9 -37 -13 -54 -4 -23 -11 -33 -24 -33 -12 0 -19 -7 -19 -20 0 -11
5 -20 10 -20 6 0 10 6 10 14 0 8 9 13 24 12 18 -1 26 -8 30 -29 3 -16 14 -31
24 -33 21 -6 52 -57 52 -86 0 -11 -8 -22 -20 -25 -13 -3 -20 -14 -20 -29 0
-37 -35 -31 -51 9 l-13 32 -4 -37 c-4 -41 -3 -41 -26 -32 -20 8 -21 44 -1 44
8 0 15 7 15 16 0 11 -6 15 -20 11 -13 -3 -24 1 -30 12 -5 10 -28 30 -52 46
-24 16 -49 36 -56 44 -11 14 -17 11 -47 -24 -30 -35 -35 -38 -48 -25 -11 11
-13 30 -10 73 5 47 9 57 24 57 10 0 22 -6 26 -13 4 -7 20 -18 35 -24 26 -12
28 -11 54 45 15 31 26 72 25 90 -2 35 5 52 20 52 5 0 9 -18 9 -41z m-290 -299
c4 0 13 7 20 15 22 27 32 17 25 -26 -6 -36 -5 -40 11 -37 13 2 20 13 22 36 4
36 27 44 37 12 3 -11 17 -28 30 -38 32 -25 43 -69 20 -78 -10 -4 -21 -1 -26 7
-31 51 -49 63 -49 32 0 -9 12 -30 28 -46 l27 -28 -60 3 c-56 3 -60 1 -63 -19
-4 -28 -46 -32 -73 -7 -19 17 -39 12 -39 -10 0 -28 -26 -38 -62 -22 l-33 14
31 1 c35 1 54 17 54 45 0 35 24 86 40 86 9 0 24 -17 34 -40 10 -22 24 -40 33
-40 11 0 13 5 8 18 -5 9 -10 32 -13 50 -3 27 -8 33 -23 29 -19 -5 -45 24 -32
36 3 4 7 17 8 29 1 13 3 32 5 43 1 13 7 5 17 -22 8 -24 18 -43 23 -43z m-1065
-31 c4 -6 9 -44 11 -86 5 -84 8 -95 29 -86 22 8 18 -6 -7 -28 -20 -16 -21 -20
-8 -29 25 -16 35 -12 54 25 10 19 22 32 27 29 4 -2 17 6 29 18 18 19 22 20 30
8 5 -8 10 -21 10 -27 0 -7 5 -13 11 -13 8 0 8 -4 0 -14 -16 -19 1 -28 32 -17
34 13 57 79 33 93 -20 11 -21 48 -1 48 14 0 19 -11 16 -37 -1 -7 6 -13 16 -13
23 -1 65 -66 61 -94 -3 -18 -9 -20 -44 -18 -52 4 -60 -12 -33 -64 22 -45 14
-59 -39 -70 -30 -6 -32 -5 -32 23 0 30 -48 83 -76 83 -19 0 -18 -4 9 -48 12
-20 21 -46 21 -57 -1 -11 -2 -28 -3 -37 -2 -27 -71 -26 -71 1 0 11 -5 23 -12
27 -8 5 -9 -4 -5 -31 7 -41 -10 -64 -45 -65 -25 0 -47 81 -49 181 -1 49 -4 56
-19 52 -29 -8 -35 32 -11 66 12 16 21 36 21 43 0 8 3 18 7 21 15 15 8 56 -10
61 -18 4 -17 6 4 35 24 33 34 37 44 20z m649 -41 c9 -34 7 -38 -9 -32 -20 8
-19 -3 5 -33 11 -14 20 -34 20 -44 0 -10 13 -23 30 -31 23 -10 30 -19 30 -40
0 -38 -26 -36 -48 2 -21 36 -32 38 -32 6 0 -60 -25 -73 -51 -27 -11 19 -28 31
-50 36 -33 7 -33 8 -10 17 13 4 33 6 44 2 36 -11 53 57 20 81 -15 11 -15 13 5
24 14 7 22 21 22 36 0 31 16 33 24 3z m-1306 -165 c5 -10 7 -33 5 -50 -4 -25
-2 -33 10 -33 9 0 18 9 22 20 5 15 10 17 23 10 9 -4 26 -11 36 -15 19 -6 19
-6 -1 -20 -13 -9 -23 -31 -27 -57 -3 -24 -21 -73 -38 -110 -25 -52 -38 -68
-57 -71 -15 -3 -32 -1 -38 5 -15 12 -17 48 -4 48 5 0 19 14 31 31 l22 30 -22
24 c-13 13 -25 24 -29 23 -62 -7 -94 18 -62 49 10 10 21 30 25 46 3 15 13 27
21 27 9 0 20 11 25 24 8 21 22 33 42 35 4 1 11 -7 16 -16z m-853 -493 c0 -41
2 -45 23 -42 20 3 22 0 16 -22 -5 -23 -3 -26 18 -26 13 0 29 -5 36 -12 8 -8
15 -8 27 2 14 11 17 10 22 -8 3 -14 13 -22 25 -22 12 0 28 -8 37 -18 9 -11 29
-22 45 -26 24 -6 27 -10 21 -29 -4 -12 -8 -38 -9 -57 -1 -31 -4 -35 -29 -35
-15 -1 -35 -8 -45 -16 -34 -29 -41 -29 -88 -4 -26 14 -50 29 -53 33 -3 4 -2 4
3 0 5 -4 15 0 21 9 11 15 17 15 41 5 22 -11 30 -11 41 1 17 17 0 74 -25 81
-26 8 -82 16 -139 20 -56 5 -68 -7 -38 -38 8 -8 15 -32 15 -52 0 -25 9 -51 26
-75 29 -42 25 -59 -12 -59 -20 0 -29 9 -46 48 -11 26 -25 50 -30 53 -5 3 -4
18 2 34 15 39 5 73 -26 87 -39 18 -85 108 -55 108 21 0 41 -13 41 -26 0 -8 4
-14 10 -14 5 0 17 -9 27 -20 25 -26 63 -17 63 15 0 13 -8 38 -17 55 -14 25
-15 34 -5 37 6 3 12 18 12 35 0 25 3 29 23 26 19 -3 22 -9 22 -48z"/>
<path d="M17944 6271 c6 -8 -17 -23 -39 -25 -5 -1 -19 -6 -30 -13 -11 -6 -24
-12 -30 -13 -5 -1 -9 -7 -8 -13 2 -7 -12 -20 -30 -30 -31 -17 -94 -76 -157
-146 -25 -28 -32 -32 -45 -21 -8 7 -15 8 -15 2 0 -17 -50 -11 -51 7 0 12 -2
11 -9 -4 -5 -11 -9 -15 -9 -9 -1 12 -31 15 -31 2 0 -4 -11 -8 -25 -8 -14 0
-25 6 -25 13 0 20 -19 -14 -30 -55 -7 -25 -17 -38 -28 -38 -9 0 -22 -10 -27
-22 -8 -19 -19 -24 -60 -26 -27 -1 -57 -5 -65 -8 -13 -4 -13 -6 0 -14 12 -8
11 -10 -6 -10 -15 0 -24 -10 -32 -37 -6 -20 -9 -40 -6 -45 3 -4 0 -8 -5 -8 -6
0 -11 -5 -11 -11 0 -6 6 -9 14 -6 17 7 32 -9 38 -38 2 -11 9 -19 15 -18 14 3
46 -70 40 -93 -3 -13 -5 -11 -6 8 -1 16 -9 32 -20 38 -29 15 -31 13 -30 -22 1
-31 2 -31 8 -8 7 24 8 24 20 -13 7 -20 16 -35 21 -32 4 3 14 -2 21 -11 19 -24
22 -264 3 -264 -12 0 -14 -49 -14 -297 0 -164 -5 -347 -10 -408 -6 -60 -12
-130 -14 -155 -2 -25 -9 -79 -15 -120 -5 -41 -13 -100 -16 -130 -11 -120 -55
-478 -65 -535 -6 -37 -8 -166 -4 -340 3 -154 3 -278 0 -275 -3 3 -29 55 -59
115 -76 154 -89 172 -194 269 -24 22 -35 26 -49 18 -12 -7 -27 -5 -50 4 -38
16 -118 19 -109 5 3 -5 22 -8 43 -6 40 5 23 -3 -46 -20 -19 -4 -36 -14 -39
-21 -9 -24 -60 -16 -82 12 -11 14 -21 30 -23 36 -3 8 -16 5 -39 -9 -43 -26
-110 -38 -103 -18 3 7 1 16 -5 20 -6 3 -11 1 -11 -4 0 -6 -7 -11 -15 -11 -8 0
-15 4 -15 9 0 18 -41 23 -58 8 -9 -8 -32 -18 -51 -22 -47 -10 -106 -46 -91
-55 15 -10 4 -16 -44 -24 -52 -10 -145 -57 -140 -70 3 -7 -15 -17 -39 -23 -45
-12 -107 -69 -107 -98 0 -8 -4 -15 -10 -15 -5 0 -10 -5 -10 -12 0 -7 7 -5 18
5 17 15 19 15 34 -2 14 -16 13 -20 -4 -44 -16 -22 -17 -29 -6 -46 10 -17 10
-27 0 -53 -20 -51 -20 -52 26 -73 41 -19 58 -41 25 -32 -10 3 -35 8 -55 12
l-38 6 0 -41 c0 -33 -3 -40 -19 -40 -11 0 -33 -14 -50 -31 -17 -17 -38 -29
-45 -26 -23 9 -55 -36 -72 -99 -24 -92 -42 -251 -38 -334 2 -41 5 -115 6 -165
2 -49 7 -93 12 -96 15 -11 27 -99 16 -120 -8 -15 -7 -19 5 -19 8 0 15 -4 15
-10 0 -5 -7 -10 -16 -10 -8 0 -12 -4 -9 -10 3 -5 -4 -20 -16 -32 l-21 -23 7
23 c5 19 3 22 -22 23 -21 1 -23 3 -8 6 28 7 45 34 39 63 -4 22 -3 23 5 5 9
-18 10 -18 10 6 1 19 -4 25 -19 25 -10 -1 -18 4 -17 9 1 6 6 9 10 7 5 -1 6 2
2 8 -4 6 -16 5 -35 -5 -28 -15 -63 -16 -76 -2 -4 4 7 20 25 37 25 24 28 32 16
36 -8 4 -15 17 -15 31 0 13 -4 21 -10 18 -6 -4 -10 38 -10 119 0 118 1 126 19
126 11 0 27 3 35 6 23 9 1 34 -30 34 -13 0 -24 5 -24 10 0 6 5 10 12 10 42 0
56 69 14 71 -17 1 -17 2 -3 6 9 2 17 11 17 19 0 8 6 14 14 14 7 0 16 14 20 31
8 42 8 49 -4 49 -5 0 -10 -7 -10 -15 0 -8 -4 -15 -10 -15 -15 0 -13 6 16 51
36 57 30 74 -25 70 -29 -2 -41 1 -37 8 4 6 18 11 31 11 13 0 26 4 30 9 8 14
-24 28 -66 29 -33 1 -35 0 -31 -27 4 -26 2 -28 -23 -23 -19 3 -23 7 -13 13 8
5 -2 7 -26 5 -22 -1 -42 -8 -44 -14 -7 -23 -30 -11 -36 19 -4 21 0 41 11 60
16 27 16 29 -1 48 -23 25 -23 60 -3 103 28 61 19 79 -50 108 -35 15 -65 29
-68 31 -3 3 29 0 70 -6 71 -11 75 -11 60 5 -19 21 -19 30 -1 30 11 0 13 7 6
31 -5 16 -6 52 -3 78 6 50 -7 87 -45 127 -11 11 -23 31 -27 45 -4 13 -16 40
-26 59 -12 22 -19 57 -20 95 0 41 -3 54 -9 40 -8 -19 -8 -19 -16 -1 -4 11 -2
27 4 37 16 24 15 27 -4 31 -13 2 -17 17 -18 68 -1 39 -9 79 -19 99 -9 19 -17
47 -17 64 0 20 -13 44 -45 79 -25 28 -45 56 -45 64 0 20 -29 47 -72 67 -20 10
-46 29 -56 42 -25 32 -32 31 -32 -1 0 -23 -2 -25 -16 -13 -9 7 -13 21 -10 33
3 12 -4 34 -17 53 -22 33 -37 42 -37 23 0 -5 -5 -9 -12 -7 -15 3 -70 -102 -61
-117 4 -6 8 -38 9 -71 1 -61 5 -96 30 -315 21 -185 83 -568 99 -620 19 -57 25
-227 9 -258 -7 -15 -13 -19 -16 -11 -2 7 -15 14 -29 15 -13 1 -71 7 -129 14
-220 24 -687 56 -970 65 -112 4 -207 8 -210 10 -5 3 -360 8 -398 6 -7 -1 -10
-6 -6 -12 4 -8 0 -9 -15 -4 -16 5 -20 3 -15 -9 3 -8 12 -17 20 -20 8 -3 14
-10 14 -16 0 -6 -4 -8 -10 -5 -15 9 -23 -41 -10 -66 23 -42 11 -247 -18 -326
-18 -49 -49 -78 -94 -89 -44 -10 -34 14 13 32 28 12 37 20 30 27 -16 16 -14
27 4 27 9 0 20 12 26 27 15 41 37 164 34 193 -2 14 -4 33 -4 43 -1 21 -17 22
-39 1 -13 -14 -17 -14 -20 -3 -3 8 -10 21 -17 29 -8 8 -16 33 -19 55 l-6 40
12 -32 c26 -77 32 -15 8 91 l-9 41 19 -23 c11 -13 24 -20 31 -17 10 7 10 21
-5 116 -5 26 -3 36 6 35 29 -3 24 46 -8 84 -31 36 -43 34 -19 -4 16 -24 16
-27 1 -42 -10 -9 -20 -13 -24 -10 -3 4 0 11 8 16 8 5 11 12 8 16 -4 3 -14 -1
-23 -10 -20 -19 -14 -19 -61 0 l-39 17 40 12 c24 8 32 13 20 14 -11 1 -28 8
-38 15 -17 13 -17 15 5 30 22 16 22 16 1 16 -21 0 -47 23 -37 33 3 3 12 3 19
1 7 -3 15 4 18 15 4 18 2 19 -15 10 -15 -8 -19 -8 -14 0 5 7 -2 11 -18 11 -32
0 -38 11 -22 42 l14 26 -72 24 c-56 18 -65 24 -43 26 15 2 27 8 27 14 0 6 12
8 27 5 24 -4 26 -4 10 8 -9 7 -17 22 -17 34 0 15 -6 21 -23 21 -20 0 -23 4
-19 30 3 18 0 30 -7 30 -6 0 -11 10 -11 21 0 17 -3 19 -13 10 -11 -8 -18 -6
-32 9 -13 14 -22 17 -30 10 -9 -8 -14 -6 -19 6 -4 11 -13 14 -31 10 -16 -4
-25 -2 -25 5 0 7 -8 3 -18 -9 -18 -20 -18 -20 -31 -1 -6 11 -27 27 -45 34 -19
8 -36 21 -39 30 -4 8 -18 15 -32 15 -14 0 -25 5 -25 10 0 6 17 10 38 10 l37 1
-35 19 c-30 17 -32 19 -12 20 13 0 37 -7 53 -16 17 -8 37 -13 45 -10 25 10 -6
46 -36 44 -16 -2 -24 2 -23 10 2 6 -2 12 -8 12 -6 0 -9 7 -5 15 3 10 -1 15
-12 15 -9 0 -26 7 -36 15 -11 8 -28 15 -37 15 -10 0 -21 5 -24 11 -5 7 7 8 40
3 33 -4 46 -3 41 4 -4 7 3 8 24 2 23 -7 30 -5 30 6 0 8 -9 14 -20 14 -13 0
-17 5 -14 14 8 21 -53 49 -107 50 -30 0 -58 -8 -80 -22 -19 -12 -31 -22 -26
-22 21 0 -43 -46 -77 -55 -50 -13 -63 -38 -14 -29 18 4 39 11 46 17 6 5 27 6
45 2 17 -3 45 -9 61 -12 47 -8 103 -53 66 -53 -5 0 -10 4 -10 9 0 5 -11 12
-24 15 -13 3 -32 9 -43 13 -15 5 -16 4 -6 -8 9 -12 3 -14 -41 -16 -28 -1 -79
-9 -113 -17 -65 -15 -73 -13 -73 15 0 20 -47 49 -77 49 -13 0 -19 -8 -21 -27
-1 -16 -7 -30 -12 -31 -6 -2 -24 -15 -39 -28 -16 -13 -40 -24 -54 -24 -14 0
-29 -4 -32 -10 -3 -6 -12 -10 -20 -10 -13 0 -36 -19 -79 -69 -17 -18 -17 -21
-3 -15 21 8 22 -9 1 -27 -12 -10 -17 -10 -23 0 -6 10 -10 9 -14 -4 -5 -11 -3
-14 5 -9 8 5 9 2 5 -10 -4 -10 -7 -22 -7 -27 0 -6 -4 -7 -10 -4 -5 3 -10 -1
-10 -10 0 -9 -6 -15 -12 -12 -7 2 -12 12 -12 21 1 9 -1 16 -5 16 -17 0 -95
-76 -107 -104 -7 -17 -26 -46 -42 -64 -16 -19 -44 -70 -63 -115 -18 -45 -37
-83 -41 -85 -4 -2 -8 -66 -8 -142 0 -104 -3 -138 -12 -137 -7 1 -39 -3 -72 -7
-73 -11 -55 -24 31 -22 l64 1 -6 -33 c-3 -18 -9 -40 -12 -48 -3 -8 1 -14 8
-14 27 -1 58 -91 64 -185 11 -160 10 -153 57 -252 26 -56 34 -64 71 -75 l42
-12 -33 -4 c-50 -5 -95 26 -103 70 -3 21 -10 43 -16 50 -15 18 -32 107 -38
197 -6 92 -14 104 -17 25 -1 -50 -2 -52 -5 -16 -4 39 -5 41 -20 26 -14 -13
-14 -17 -2 -24 7 -5 10 -12 6 -17 -5 -4 -11 -3 -15 3 -4 6 -24 14 -44 18 -32
6 -38 4 -38 -10 0 -16 -2 -16 -20 1 -19 17 -20 17 -29 -6 -6 -18 -5 -25 5 -27
16 -4 19 -28 5 -37 -6 -3 -15 4 -22 16 -10 20 -12 21 -21 5 -6 -10 -7 -27 -5
-38 6 -23 -10 -44 -38 -50 -11 -2 -25 -14 -32 -28 -7 -14 -13 -21 -13 -16 0 5
-7 3 -15 -4 -12 -10 -15 -9 -15 6 0 17 -1 17 -15 -2 -8 -10 -15 -15 -15 -10 0
5 -9 1 -20 -9 -26 -23 -26 -12 0 23 18 25 20 40 18 129 l-3 101 -85 -23 c-264
-70 -494 -224 -658 -440 -81 -107 -81 -99 -1 21 26 39 55 74 63 77 25 10 18
24 -13 29 -17 2 -28 1 -25 -4 3 -4 -2 -8 -10 -8 -22 0 -9 27 16 33 22 6 19 34
-3 29 -8 -2 -10 0 -6 5 5 4 13 9 18 9 5 1 14 2 20 3 5 0 8 5 4 10 -3 6 3 15
14 21 13 7 22 7 26 0 3 -5 1 -10 -6 -10 -7 0 -10 -3 -7 -6 4 -3 16 0 28 6 15
8 19 17 15 31 -5 15 -1 22 14 26 12 3 21 10 21 15 0 6 6 5 14 -2 11 -9 19 -9
33 0 16 10 15 10 -4 5 -32 -9 -29 3 4 16 43 16 49 -10 7 -38 -19 -13 -34 -26
-34 -29 0 -3 33 17 73 45 126 87 350 180 467 193 29 4 35 10 52 52 10 26 25
55 34 63 8 9 14 17 12 18 -8 7 -263 -37 -352 -60 -134 -35 -384 -150 -444
-205 -9 -8 -35 -28 -57 -45 -22 -16 -66 -53 -97 -82 -32 -29 -60 -53 -62 -53
-2 0 -2 10 2 23 7 30 133 152 212 206 205 139 415 213 700 245 74 9 138 16
143 16 4 0 7 6 7 14 0 8 6 17 13 19 6 3 -29 6 -80 6 -116 1 -292 -29 -408 -69
-116 -41 -295 -126 -295 -142 0 -6 -3 -9 -6 -5 -11 10 -65 -23 -58 -35 4 -7 3
-8 -4 -4 -12 7 -75 -32 -227 -144 -103 -75 -167 -108 -335 -174 -36 -13 -105
-43 -153 -65 -47 -23 -93 -41 -100 -41 -7 0 -17 -4 -23 -8 -5 -5 -38 -19 -74
-32 -36 -12 -67 -26 -70 -30 -9 -11 -125 -40 -161 -39 -19 0 -43 4 -53 8 -17
7 -16 10 17 35 37 28 167 86 193 86 8 0 41 11 74 25 34 14 80 25 107 26 71 1
103 17 36 18 -29 1 -53 6 -53 11 0 6 6 10 13 10 7 0 31 9 53 19 36 18 100 42
329 126 50 18 123 43 164 55 77 23 97 33 168 87 161 120 416 240 576 268 20 4
40 11 43 16 6 11 -30 12 -40 2 -7 -8 -27 -11 -88 -16 -14 -1 -24 -5 -21 -9 2
-5 -2 -8 -11 -8 -8 0 -22 -3 -32 -7 -12 -4 -15 -3 -10 5 5 8 -1 12 -16 11 -25
0 -71 -17 -50 -18 15 -1 16 -21 1 -21 -6 0 -17 7 -26 16 -11 10 -25 13 -47 9
-104 -21 -207 -49 -246 -66 -25 -11 -61 -19 -80 -18 -64 4 -137 -17 -167 -46
-6 -7 -32 -15 -57 -18 -101 -14 -350 -121 -324 -139 9 -7 8 -8 -5 -4 -11 3
-27 -2 -39 -14 -12 -11 -36 -24 -55 -31 -18 -6 -33 -17 -33 -26 0 -16 3 -16
86 2 50 11 3 -13 -114 -56 -109 -42 -369 -157 -431 -191 l-34 -19 6 40 c17
129 143 502 176 520 9 5 13 12 9 16 -20 21 154 290 271 418 91 101 294 241
458 316 29 13 49 29 46 34 -3 6 -1 7 5 3 7 -4 27 0 46 9 59 28 228 85 296 100
36 8 76 19 90 24 14 5 48 15 75 22 28 6 55 15 60 19 6 4 75 24 155 44 80 21
154 42 165 47 32 15 -83 0 -135 -17 -41 -14 -119 -25 -179 -26 -13 0 -30 -6
-37 -13 -7 -7 -40 -18 -73 -26 -59 -13 -74 -23 -48 -32 6 -2 -12 -2 -40 1 -45
4 -53 2 -53 -12 0 -10 -5 -14 -11 -11 -12 8 -90 -12 -129 -32 -14 -7 -33 -13
-42 -13 -9 0 -20 -5 -23 -10 -3 -6 -16 -10 -29 -10 -12 0 -32 -9 -44 -20 -12
-11 -30 -20 -42 -20 -11 0 -29 -9 -39 -19 -11 -11 -22 -17 -25 -14 -2 3 -22
-4 -43 -15 -21 -11 -51 -25 -68 -33 -16 -7 -43 -22 -60 -34 -16 -11 -37 -24
-46 -30 -44 -26 -134 -90 -137 -97 -2 -5 -10 -8 -18 -8 -8 0 -14 -7 -14 -15 0
-9 -12 -20 -27 -26 -15 -5 -50 -31 -78 -57 -27 -26 -73 -67 -101 -92 -61 -53
-126 -146 -188 -266 -24 -47 -46 -82 -48 -77 -3 4 -3 2 -1 -5 1 -7 -18 -74
-42 -149 -25 -75 -43 -138 -41 -141 3 -3 13 1 21 8 12 10 19 10 27 2 16 -16 8
-21 -32 -25 -18 -1 -37 -9 -41 -17 -65 -126 -78 -161 -67 -185 6 -14 14 -25
18 -25 4 0 -4 -37 -17 -81 -12 -45 -23 -87 -23 -94 0 -21 -59 -65 -86 -65 -19
0 -24 -5 -24 -25 0 -20 5 -25 28 -26 45 -3 56 -5 76 -14 11 -5 21 -4 25 3 3 6
12 7 19 3 7 -4 36 0 65 10 60 21 100 24 129 8 38 -20 66 -129 33 -129 -8 0
-15 -5 -15 -12 0 -6 -7 -3 -15 8 -14 19 -14 19 -15 -1 0 -13 -3 -16 -8 -8 -4
6 -19 16 -34 22 -22 8 -27 7 -31 -9 -9 -33 33 -866 59 -1183 9 -109 15 -200
12 -202 -2 -2 -33 1 -69 6 -62 11 -65 13 -81 50 -9 21 -23 39 -31 39 -17 0
-32 71 -47 210 -8 75 -8 70 -4 -50 2 -74 10 -168 16 -208 10 -62 10 -75 -2
-82 -22 -14 -6 -12 66 7 79 21 100 13 150 -59 27 -38 31 -50 21 -60 -23 -23
-41 -81 -39 -122 1 -23 -1 -35 -4 -28 -3 6 -10 10 -15 6 -15 -9 -10 65 7 91 9
13 14 30 11 37 -8 22 -48 -84 -55 -147 -4 -33 -6 -84 -4 -112 4 -48 6 -53 28
-53 28 0 29 2 8 43 -12 21 -13 32 -5 35 14 5 15 62 1 62 -5 0 -10 5 -10 10 0
14 26 12 38 -2 5 -7 13 -24 17 -37 6 -18 4 -22 -6 -15 -11 6 -12 5 -2 -8 7 -8
10 -18 6 -21 -3 -4 2 -16 11 -26 10 -11 15 -24 11 -30 -4 -8 566 -11 1907 -11
1682 0 1923 1 1998 15 47 8 150 26 230 40 80 13 174 31 210 40 88 21 320 66
345 67 19 0 55 7 235 42 158 32 352 66 370 66 23 0 26 -13 7 -29 -13 -10 -213
-53 -477 -101 -63 -12 -119 -22 -125 -24 -40 -10 -168 -36 -207 -41 -47 -6
-67 -18 -49 -29 5 -3 7 -15 4 -26 -5 -20 0 -20 1071 -20 914 0 1086 2 1139 15
198 47 724 134 942 155 61 6 124 14 140 17 17 3 95 6 175 7 80 1 150 5 156 8
6 4 58 9 115 12 92 3 137 11 256 47 105 32 706 104 1113 134 118 8 278 22 355
30 352 37 654 58 1010 70 99 3 311 13 470 21 322 17 547 19 953 9 198 -6 306
-4 396 5 119 13 124 12 152 -7 16 -11 76 -47 134 -80 144 -83 636 -379 687
-414 l42 -29 901 0 900 0 0 775 c-1 673 -3 773 -15 768 -8 -3 -15 0 -15 6 0 6
7 11 15 11 12 0 15 19 15 110 l0 110 -25 -12 c-14 -6 -25 -15 -25 -19 0 -8
-50 -22 -57 -16 -12 12 61 68 92 71 13 1 19 36 6 36 -6 0 -11 -4 -11 -10 0 -5
-6 -10 -14 -10 -19 0 -42 30 -30 38 18 14 34 52 27 69 -3 10 -14 28 -24 41
-15 19 -16 27 -6 42 6 11 13 17 16 15 2 -3 -2 -11 -9 -20 -7 -8 -8 -15 -2 -15
15 0 23 28 16 58 -5 25 -4 25 16 -7 19 -29 19 -34 5 -45 -13 -9 -13 -19 -3
-68 6 -31 15 -55 19 -52 4 2 8 262 9 578 l1 574 -46 7 c-30 4 -51 2 -60 -5
-15 -12 -75 -7 -160 15 -74 19 -88 26 -106 48 -13 16 -28 19 -95 19 -43 0
-106 7 -139 15 -33 9 -96 17 -140 18 -54 2 -95 9 -125 23 -25 11 -67 23 -95
27 -27 4 -60 14 -73 22 -16 10 -49 14 -110 13 -298 -5 -328 -1 -407 49 -23 15
-39 18 -70 12 -36 -6 -41 -10 -55 -50 -8 -25 -21 -46 -27 -48 -9 -3 -6 14 7
53 11 31 20 58 20 59 0 1 -22 2 -49 3 -27 0 -76 8 -109 16 -33 9 -73 16 -89
16 -17 0 -38 9 -48 20 -26 29 -79 44 -106 30 -11 -7 -35 -9 -53 -6 -19 3 -38
0 -50 -9 -27 -20 -68 -19 -135 4 -137 46 -159 51 -209 51 -29 0 -63 5 -75 12
-12 7 -66 13 -122 14 -97 1 -165 10 -270 36 -43 10 -103 13 -229 8 -16 0 -40
7 -54 16 -31 21 -60 26 -128 25 -42 0 -55 4 -74 24 -25 26 -68 33 -87 14 -8
-8 -28 -9 -60 -4 -26 4 -70 8 -96 10 -27 1 -53 7 -60 14 -14 14 -54 15 -62 1
-4 -6 -13 -7 -23 -1 -26 13 -145 22 -161 12 -10 -7 -24 -2 -44 15 -30 25 -57
30 -86 15 -20 -11 -104 3 -143 25 -24 13 -31 13 -55 1 -70 -36 -146 -22 -174
30 -12 22 -18 24 -59 18 -25 -3 -77 -6 -117 -5 -40 1 -74 -4 -78 -9 -3 -6 -21
-11 -39 -11 -25 0 -35 5 -39 19 -6 23 -58 34 -163 35 -41 1 -77 6 -86 14 -9 7
-27 10 -45 6 -18 -3 -41 0 -54 7 -16 9 -64 13 -142 14 l-118 0 -15 -53 c-17
-57 -13 -78 7 -41 12 23 12 23 20 4 7 -19 8 -19 8 2 1 25 16 38 26 22 10 -14
-4 -99 -16 -99 -5 0 -9 12 -9 26 0 14 -4 23 -10 19 -5 -3 -10 -21 -10 -38 -1
-35 -24 -85 -33 -71 -2 5 -8 47 -12 94 -5 74 -4 90 14 124 l20 39 -22 18 c-26
22 -34 23 -76 8 -26 -9 -43 -8 -88 6 -42 13 -74 16 -131 12 -46 -3 -84 -2 -96
5 -25 13 -155 30 -224 29 -29 -1 -74 6 -101 15 -63 20 -97 16 -94 -11 2 -11 0
-36 -4 -55 -6 -33 -7 -32 -14 25 -7 50 -14 64 -41 88 -18 15 -41 27 -53 27
-11 0 -29 7 -39 15 -20 15 -91 20 -120 9 -13 -5 -16 -24 -16 -102 0 -76 -3
-93 -12 -84 -9 9 -12 41 -11 95 l2 82 -45 19 c-28 11 -81 21 -136 24 l-91 5 6
-24 c4 -13 7 -47 7 -75 0 -42 3 -53 19 -57 11 -2 24 0 30 6 20 20 12 -20 -11
-60 -20 -33 -23 -55 -26 -175 -4 -121 -2 -138 12 -138 8 0 22 14 31 30 15 28
35 41 35 21 0 -5 9 -7 20 -4 26 7 25 -1 -1 -26 -30 -27 -19 -76 14 -65 12 3
23 7 23 8 3 2 7 108 5 128 -1 11 -6 15 -16 12 -11 -4 -16 5 -21 35 -6 37 -8
39 -20 24 -12 -16 -13 -12 -13 32 1 28 7 73 14 100 12 49 13 49 15 15 2 -19 2
-47 1 -62 -1 -15 5 -38 13 -50 9 -12 16 -35 16 -50 0 -18 5 -28 15 -28 12 0
15 -17 15 -95 0 -78 3 -95 15 -95 8 0 15 7 15 15 0 8 7 15 15 15 18 0 19 -12
3 -28 -6 -6 -8 -15 -4 -19 4 -5 13 -1 19 7 7 9 24 14 39 12 27 -3 27 -3 7 -23
-11 -11 -17 -24 -13 -30 3 -6 11 -3 20 8 11 14 13 15 14 3 1 -12 3 -11 14 3
13 17 15 16 35 -12 12 -16 21 -40 21 -53 0 -26 17 -48 37 -48 7 0 13 7 13 16
0 8 5 12 10 9 16 -10 5 -87 -15 -101 -13 -9 -15 -20 -10 -43 3 -17 12 -29 18
-28 19 3 15 -64 -5 -77 -21 -13 -25 -9 -32 29 -2 17 -5 32 -5 35 -1 3 -6 -3
-12 -12 -15 -27 -49 -23 -49 5 0 13 5 28 11 34 14 14 3 33 -17 33 -11 0 -13
-6 -9 -20 4 -12 2 -27 -5 -34 -6 -8 -10 -18 -9 -22 4 -25 -2 -54 -12 -54 -12
0 -8 62 6 94 7 16 5 18 -8 13 -25 -9 -30 10 -13 45 20 40 20 41 -4 33 -14 -5
-26 0 -39 16 l-18 22 -5 -26 c-4 -19 -1 -27 8 -27 8 0 14 -5 14 -12 0 -9 3 -9
12 0 20 20 30 14 16 -10 -7 -13 -12 -30 -13 -38 0 -8 -6 -15 -14 -15 -8 0 -16
-6 -19 -13 -2 -8 3 -12 14 -10 20 4 37 -42 23 -63 -7 -11 -10 -9 -15 9 -5 18
-9 20 -20 11 -11 -9 -14 -7 -14 14 0 39 -12 87 -21 87 -5 0 -9 -16 -9 -35 0
-35 -16 -47 -26 -20 -9 24 -24 17 -24 -10 0 -14 -4 -25 -10 -25 -5 0 -10 5
-10 11 0 8 -13 9 -40 5 -27 -4 -40 -3 -40 5 0 6 -7 9 -15 5 -11 -4 -15 1 -15
19 0 31 -13 32 -29 3 -10 -21 -11 -20 -6 11 3 18 5 44 5 57 0 17 7 25 25 30
19 5 25 14 31 49 9 65 0 75 -19 19 l-17 -49 6 50 c8 57 18 90 33 99 6 4 5 16
-4 34 -11 22 -29 180 -27 232 2 42 -11 151 -17 141 -8 -12 -4 147 4 168 4 10
2 11 -8 3 -11 -9 -13 -3 -12 33 1 25 -2 45 -8 45 -6 0 -7 26 -3 70 4 38 4 76
-1 82 -4 7 -8 63 -8 123 -1 126 -30 403 -51 486 -8 31 -14 69 -14 83 0 15 -7
29 -15 32 -22 9 -22 244 -1 244 9 0 16 -13 19 -32 2 -18 2 35 -1 117 -3 83 -9
153 -15 156 -6 4 -8 35 -5 75 6 82 28 122 93 178 77 65 227 166 247 166 30 1
148 60 216 109 41 28 89 59 108 68 27 14 33 21 28 37 -14 43 -59 48 -119 11
-22 -13 -59 -34 -82 -46 -24 -11 -43 -28 -43 -35 0 -10 -9 -13 -27 -11 -33 5
-33 20 0 75 32 54 67 144 60 155 -3 5 -9 3 -14 -4 -6 -10 -9 -8 -9 9 0 18 -6
22 -31 22 -17 0 -28 -4 -24 -10 3 -5 -1 -10 -9 -10 -9 0 -16 -4 -16 -9 0 -5
-24 -45 -52 -88 -29 -43 -58 -87 -64 -98 -19 -34 -108 -73 -120 -53 -14 23 13
67 88 140 44 43 86 79 94 79 43 4 47 9 35 42 -8 20 -15 24 -32 20 -15 -4 -20
-3 -15 5 5 8 -1 12 -14 12 -12 0 -19 -4 -16 -9z m331 -2587 c10 -46 22 -81 27
-78 4 3 5 -2 2 -11 -6 -16 22 -83 40 -96 5 -4 6 -18 2 -32 -3 -14 -3 -32 0
-41 11 -27 24 -7 22 35 -1 21 2 42 5 46 7 6 9 -28 9 -112 -1 -22 2 -31 5 -20
3 11 9 24 14 29 11 12 12 69 2 63 -5 -3 -6 15 -4 39 1 24 7 44 11 44 14 0 40
-43 40 -66 0 -13 11 -35 24 -51 13 -16 22 -39 21 -53 -5 -54 11 -43 62 44 11
18 13 18 13 4 0 -11 8 -18 20 -18 13 0 20 7 20 19 0 28 20 37 27 13 3 -13 15
-22 32 -24 30 -4 36 -33 6 -33 -17 0 -20 -7 -18 -35 1 -19 -3 -52 -8 -73 -9
-33 -13 -37 -32 -32 -12 4 -28 15 -36 26 -20 28 -29 24 -37 -16 -3 -19 -10
-38 -15 -41 -20 -12 -8 -40 22 -51 21 -8 28 -16 23 -25 -5 -7 -9 -18 -10 -24
-1 -6 -5 -22 -8 -35 -7 -23 -6 -22 18 5 34 41 56 30 56 -28 0 -49 -11 -64 -30
-40 -10 11 -10 18 -2 26 18 18 14 27 -7 21 -16 -4 -18 -11 -14 -39 4 -22 2
-34 -6 -34 -13 0 -15 -52 -2 -65 13 -15 1 -85 -15 -85 -11 0 -14 21 -14 96 0
81 -3 100 -20 121 -12 16 -18 34 -14 48 4 16 -1 26 -20 39 -26 16 -26 16 -26
-9 0 -26 -15 -34 -23 -12 -3 6 -6 0 -6 -15 -1 -26 -21 -42 -21 -17 0 5 -4 7
-10 4 -5 -3 -10 -15 -10 -26 0 -11 -6 -22 -14 -25 -8 -3 -19 -20 -25 -37 -11
-29 -12 -30 -26 -11 -14 18 -14 17 -15 -12 0 -18 -7 -45 -15 -60 -8 -16 -15
-39 -15 -52 0 -14 -4 -21 -11 -17 -6 4 -9 29 -8 57 2 34 -1 52 -11 58 -12 8
-13 14 -2 42 18 46 51 169 52 191 0 13 -5 17 -18 13 -16 -5 -17 2 -13 75 2 56
-1 84 -9 92 -10 9 -12 7 -7 -10 3 -13 1 -23 -4 -23 -14 0 -10 63 6 84 8 11 15
32 15 47 0 15 4 30 10 34 6 4 6 15 0 31 -6 14 -10 42 -10 63 0 21 -11 64 -25
97 l-24 59 -1 -45 c0 -33 -3 -41 -10 -30 -13 20 -13 90 0 90 6 0 10 8 10 18 1
42 38 -35 55 -114z m1096 -217 c0 -114 1 -120 16 -99 8 12 19 22 23 22 9 0 4
-133 -6 -167 -6 -24 -24 -32 -24 -12 0 6 -7 9 -15 6 -8 -4 -17 -2 -20 3 -11
17 -35 -2 -35 -29 -1 -28 -23 -65 -33 -54 -4 3 -7 -1 -7 -11 0 -13 4 -15 18
-7 10 5 24 17 32 25 13 17 40 22 40 8 0 -5 -9 -17 -20 -27 -24 -22 -28 -77 -5
-68 23 8 45 -26 38 -62 -8 -40 -7 -40 -48 -21 -27 13 -35 23 -33 38 4 30 -20
34 -33 5 -8 -18 -7 -32 6 -63 9 -21 19 -58 20 -82 4 -43 3 -43 -18 -29 -12 8
-23 21 -23 28 -1 8 -2 22 -3 32 -1 11 -16 24 -36 33 -34 14 -41 42 -7 29 8 -3
19 0 24 7 13 21 9 80 -7 98 -8 9 -16 29 -17 43 -2 18 -8 27 -20 27 -10 0 -18
-4 -18 -10 0 -5 4 -10 9 -10 15 0 19 -39 5 -51 -8 -6 -14 -20 -14 -30 0 -24
-17 -34 -23 -12 -2 10 -8 -1 -12 -26 l-8 -43 -13 28 c-8 16 -19 37 -26 47 -11
16 -10 21 10 34 29 20 33 86 5 81 -10 -2 -19 -13 -21 -26 -4 -27 -22 -29 -22
-3 0 11 -5 23 -11 27 -6 3 -8 17 -5 30 13 51 -91 70 -135 25 -21 -22 -31 -61
-14 -55 8 4 16 -6 20 -25 4 -17 11 -33 16 -36 5 -4 1 -18 -8 -33 -9 -15 -18
-28 -19 -30 0 -1 -9 1 -18 4 -11 4 -14 9 -7 13 8 5 5 20 -9 49 -11 22 -20 48
-20 57 0 21 -18 55 -30 55 -4 0 -14 -17 -21 -37 -14 -45 -27 -63 -45 -63 -10
0 -12 9 -7 32 4 23 3 29 -6 24 -6 -4 -19 -2 -28 5 -13 11 -17 10 -28 -4 -12
-16 -13 -16 -19 5 -6 17 -9 19 -13 8 -4 -8 -12 -21 -20 -28 -11 -11 -13 -10
-13 5 0 26 62 113 82 113 23 0 34 -20 17 -31 -11 -6 -11 -11 -2 -20 9 -9 13
-2 19 27 5 22 7 44 5 49 -2 6 -4 31 -6 58 -2 44 6 60 19 38 3 -5 15 -7 26 -4
11 3 20 1 20 -5 0 -5 -8 -12 -19 -15 -18 -4 -21 -26 -13 -135 2 -28 19 -20 33
15 5 14 18 27 28 30 19 5 18 10 -16 93 -11 26 -7 50 8 50 5 0 17 -28 26 -62
l18 -63 5 55 c3 30 10 55 15 54 6 0 13 -25 18 -54 12 -86 38 -104 64 -43 13
33 16 36 28 20 7 -9 22 -17 34 -17 12 0 31 -5 42 -10 13 -8 25 -7 39 0 26 14
27 56 1 63 -14 3 -22 17 -26 43 -4 22 -13 63 -20 91 -8 34 -10 55 -3 59 5 3
12 -3 15 -15 7 -27 19 -27 27 2 7 21 7 21 16 2 5 -11 9 -46 9 -77 1 -44 4 -56
14 -52 8 3 20 -2 27 -11 11 -13 11 -21 2 -36 -7 -10 -12 -32 -12 -49 0 -28 3
-30 35 -30 19 0 35 5 35 11 0 6 6 9 13 6 6 -2 20 2 29 11 14 12 20 12 33 2 8
-7 15 -19 15 -26 0 -8 7 -14 15 -14 12 0 14 23 12 153 -1 83 2 158 6 165 19
29 27 -6 28 -121z m124 -125 c-3 -20 -2 -29 1 -19 7 23 24 22 24 -2 0 -11 4
-31 10 -46 8 -22 13 -24 29 -15 17 8 22 6 31 -11 15 -27 10 -31 -41 -35 -53
-5 -71 -29 -75 -101 -2 -45 0 -52 12 -42 11 9 14 8 14 -3 0 -8 -5 -19 -12 -26
-12 -12 -11 -12 37 -27 19 -6 45 21 45 47 0 11 -8 33 -17 49 -24 40 -9 48 27
14 34 -32 49 -27 32 11 -11 22 -9 30 15 62 16 20 32 40 38 44 13 9 26 -13 20
-33 -4 -12 8 -22 45 -38 28 -12 50 -28 50 -36 0 -16 -25 -21 -34 -6 -3 5 -15
7 -26 4 -11 -3 -20 0 -20 6 0 6 -4 11 -10 11 -15 0 -12 -51 4 -69 7 -9 16 -42
20 -74 3 -32 9 -64 13 -70 11 -19 23 32 13 59 -14 36 -12 54 5 54 9 0 15 -9
15 -24 0 -14 5 -28 10 -31 6 -3 10 -15 10 -26 0 -23 13 -25 30 -4 12 14 86 15
121 1 23 -10 35 12 42 73 7 63 11 69 32 48 12 -13 14 -28 9 -67 -7 -52 -6 -54
20 -44 12 5 13 10 4 30 -6 13 -8 27 -5 30 7 8 31 -15 40 -38 12 -34 22 -18 19
32 -3 41 -1 50 12 50 11 0 16 -9 16 -29 0 -43 10 -61 32 -61 16 0 18 5 12 35
-3 19 -3 52 1 72 6 35 8 37 21 18 8 -10 14 -29 14 -41 0 -16 7 -24 22 -26 31
-4 36 -36 6 -40 -18 -2 -23 -9 -23 -33 -1 -45 -15 -95 -27 -95 -6 0 -7 7 -4
16 9 23 -4 64 -20 64 -16 0 -19 -16 -5 -24 13 -8 13 -134 0 -142 -6 -4 -15 0
-20 7 -10 16 -11 13 -11 -61 -1 -102 -30 -103 -44 -1 -5 37 -15 66 -22 69 -10
3 -11 -8 -6 -50 7 -51 6 -52 -12 -37 -23 20 -54 21 -54 1 0 -12 3 -12 15 -2
12 10 15 10 15 -4 0 -22 -20 -106 -33 -136 -13 -32 -11 -43 19 -87 13 -20 24
-45 24 -57 0 -20 -1 -20 -20 4 -16 20 -20 22 -20 8 0 -10 -5 -18 -11 -18 -5 0
-8 4 -5 8 3 5 -2 32 -11 61 -10 35 -12 56 -5 60 10 6 24 241 15 241 -2 0 -12
-7 -20 -16 -18 -17 -21 -55 -10 -97 5 -19 4 -27 -3 -22 -5 3 -10 15 -10 25 0
10 -5 22 -12 26 -8 5 -9 0 -4 -17 20 -64 24 -95 16 -103 -5 -5 -17 21 -29 59
-15 52 -17 71 -9 85 9 14 8 24 -5 44 -9 14 -17 37 -17 51 0 22 -3 25 -25 19
-20 -5 -28 -1 -42 25 -23 40 -46 42 -37 4 4 -16 11 -37 16 -47 18 -33 27 -76
18 -81 -19 -12 -56 56 -74 137 -4 19 -11 26 -21 22 -8 -4 -15 -1 -15 5 0 6 -7
11 -15 11 -8 0 -15 -4 -15 -10 0 -5 -7 -10 -16 -10 -10 0 -14 6 -10 18 3 9 0
30 -7 45 l-12 28 -22 -21 c-23 -21 -33 -14 -11 8 6 6 8 15 4 19 -4 5 -13 1
-19 -7 -7 -9 -23 -14 -37 -12 -24 4 -24 4 -7 -16 23 -25 32 -99 12 -99 -8 0
-13 3 -13 6 1 3 -2 14 -5 24 -4 9 -9 24 -12 33 -3 9 -14 18 -24 21 -18 4 -19
13 -15 125 3 80 0 125 -7 134 -6 8 -8 22 -4 31 4 10 9 40 11 66 3 48 19 81 34
72 5 -3 7 -22 5 -43z m1109 -173 c22 -41 25 -56 22 -120 -3 -50 2 -100 15
-153 10 -43 19 -100 19 -125 l1 -46 19 23 c11 13 23 21 28 18 11 -6 36 44 27
53 -4 3 -16 -5 -27 -19 l-21 -25 6 25 c4 14 7 37 7 53 0 27 1 27 32 14 l32
-13 4 -120 c2 -80 -1 -114 -7 -104 -6 8 -13 11 -17 7 -4 -3 -2 -13 4 -20 9
-10 8 -18 -3 -33 -19 -25 -19 -55 0 -80 15 -18 15 -18 9 9 -4 17 -2 27 5 27 6
0 11 9 11 20 0 10 7 23 17 28 11 7 18 30 23 78 4 38 8 60 9 49 2 -19 2 -19 12
-1 9 14 8 20 -1 26 -8 5 -10 15 -5 26 8 18 8 18 12 2 6 -26 28 -22 52 8 l21
27 1 -39 1 -39 10 35 c19 67 18 64 31 51 9 -9 9 -16 -1 -31 -12 -19 -17 -50
-8 -50 2 0 11 -3 20 -6 14 -5 16 5 16 74 0 45 4 83 9 86 13 9 20 -67 10 -115
-14 -70 -19 -102 -21 -132 -2 -40 -18 -44 -19 -5 -1 18 -1 41 0 51 2 10 -5 17
-16 17 -13 0 -23 -15 -36 -49 -9 -27 -17 -56 -17 -65 0 -10 -6 -13 -15 -10
-10 4 -15 20 -15 51 0 31 -4 43 -12 40 -7 -2 -12 -16 -10 -30 1 -14 -2 -28 -7
-31 -5 -4 -7 -22 -4 -41 3 -19 2 -63 -2 -99 -6 -58 -8 -64 -21 -51 -14 14 -13
50 3 108 4 16 2 17 -17 7 -17 -9 -20 -17 -15 -40 8 -35 -10 -48 -34 -26 -10 9
-23 16 -29 16 -7 0 -12 5 -12 12 0 6 -7 20 -17 30 -9 10 -11 18 -6 18 6 0 9
17 6 43 -4 33 0 47 16 63 11 12 25 24 31 26 6 2 8 16 4 36 -9 47 -38 39 -42
-11 -3 -36 -15 -45 -38 -29 -14 9 -28 91 -27 157 0 28 -1 42 -4 33 -10 -38
-31 -7 -24 35 1 4 3 38 6 75 3 37 8 75 11 84 3 10 1 18 -5 18 -6 0 -11 -17
-11 -37 0 -29 -3 -34 -10 -23 -6 9 -8 41 -4 76 7 68 -7 93 -33 58 -12 -16 -15
-17 -23 -4 -5 8 -9 26 -9 40 1 17 3 19 6 8 2 -10 8 -18 13 -18 13 0 21 32 10
45 -14 16 1 29 16 13 7 -7 24 -34 38 -59z m-2775 -579 c12 -69 33 -175 47
-237 l27 -112 231 -92 c428 -170 944 -392 1256 -541 69 -33 145 -63 170 -68
38 -6 40 -8 13 -9 -47 -2 -120 -36 -128 -60 -3 -12 -11 -18 -17 -15 -17 11
-28 -18 -28 -78 0 -41 -12 -93 -44 -185 -58 -168 -62 -178 -68 -167 -3 5 17
74 43 154 27 80 48 162 49 183 0 37 0 37 -40 37 -22 0 -40 5 -40 10 0 6 -9 10
-19 10 -28 0 -32 11 -19 53 7 22 18 37 27 37 25 1 -6 16 -132 65 -120 46 -266
106 -497 204 -80 34 -228 96 -330 137 -102 42 -231 96 -287 119 l-103 43 0
-27 c0 -14 7 -35 15 -45 8 -11 15 -16 15 -11 0 5 5 4 12 -3 7 -7 20 -12 30
-12 20 0 91 -31 96 -42 2 -5 11 -8 20 -8 10 0 31 -9 47 -20 17 -11 39 -20 51
-20 11 0 24 -4 30 -9 5 -5 38 -18 74 -31 70 -24 149 -69 150 -85 0 -7 15 -9
36 -7 26 3 35 1 30 -7 -5 -7 4 -11 26 -12 18 0 47 -9 63 -19 42 -27 103 -55
150 -70 22 -7 43 -17 46 -22 3 -5 21 -13 40 -18 19 -5 52 -15 74 -24 22 -8 63
-15 92 -16 28 0 54 -4 58 -9 9 -16 -34 -33 -71 -29 -19 2 -34 0 -34 -4 0 -4
-6 -8 -13 -8 -13 0 -126 46 -239 99 -37 17 -96 42 -130 57 -35 14 -83 35 -108
46 -25 11 -54 24 -65 29 -116 50 -149 64 -205 86 -36 14 -111 46 -168 70 -57
25 -106 42 -110 39 -3 -4 2 -68 11 -144 25 -214 29 -257 23 -251 -4 4 -9 28
-12 55 -4 27 -13 57 -21 66 -10 11 -14 31 -11 58 3 36 2 39 -10 23 -12 -16
-13 -14 -12 17 2 152 1 170 -19 187 -11 9 -17 21 -14 26 11 18 6 112 -6 109
-8 -1 -9 11 -5 38 5 28 3 40 -5 40 -8 0 -10 8 -6 20 4 12 2 20 -5 20 -6 0 -8
11 -4 28 4 18 3 23 -4 14 -6 -10 -11 9 -16 60 -4 40 -9 82 -12 93 -4 16 -3 17
5 5 9 -12 11 -11 11 8 0 13 -4 21 -10 17 -5 -3 -9 12 -8 37 2 43 -20 158 -31
168 -6 5 -9 31 -13 117 -1 28 -5 50 -8 48 -3 -2 -6 49 -7 113 l-2 117 23 -160
c13 -88 33 -216 45 -285z m1542 308 c29 -34 61 -97 54 -108 -3 -6 -15 -10 -25
-10 -28 0 -33 -16 -15 -44 9 -14 14 -30 10 -35 -8 -14 -58 -10 -70 6 -5 7 -21
14 -35 15 -20 2 -25 -1 -24 -19 0 -13 -3 -23 -8 -23 -4 0 -8 7 -8 15 0 8 -4
15 -10 15 -5 0 -10 11 -10 25 0 14 -7 28 -15 31 -12 5 -13 10 -4 20 16 20 37
17 49 -6 16 -30 50 -26 50 6 0 20 4 25 16 20 21 -8 50 14 33 24 -10 7 -21 90
-11 90 2 0 12 -10 23 -22z m-302 -50 c-5 -9 -18 -19 -28 -23 -20 -6 -35 -31
-23 -39 13 -7 52 13 52 29 0 8 4 15 9 15 15 0 25 -21 14 -29 -30 -20 -40 -53
-30 -93 7 -27 7 -42 0 -47 -6 -3 -12 -15 -14 -26 -3 -12 -10 2 -20 38 -14 47
-14 57 -3 57 21 0 17 18 -7 31 -17 8 -20 17 -15 40 4 22 2 29 -10 29 -11 0
-13 -6 -9 -20 7 -23 -13 -28 -33 -8 -9 9 -12 9 -12 1 0 -7 -9 -15 -20 -18 -22
-7 -27 -23 -7 -22 33 1 47 -4 47 -18 0 -22 -76 -21 -84 1 -11 29 -6 53 14 64
23 13 27 40 5 40 -8 0 -15 5 -15 10 0 16 14 12 39 -11 20 -19 24 -20 40 -5 10
9 27 16 38 16 12 0 25 11 32 27 l13 27 18 -24 c13 -17 16 -29 9 -42z m1417
-67 l-15 -63 23 21 c28 26 40 27 33 1 -3 -14 1 -24 15 -31 15 -8 17 -13 7 -25
-17 -20 -29 -17 -29 7 0 18 -2 19 -15 9 -8 -7 -15 -19 -15 -26 0 -8 -9 -14
-20 -14 -11 0 -20 7 -20 15 0 22 -31 18 -37 -5 -6 -24 -16 -25 -33 -5 -11 14
-7 19 12 16 4 0 4 8 0 19 -4 10 -11 18 -15 17 -5 -1 -15 9 -22 23 -7 14 -17
24 -22 23 -4 -2 -8 7 -8 20 0 19 5 21 30 19 36 -4 55 -18 55 -41 0 -29 40 -23
52 7 6 15 10 31 9 36 -3 13 23 60 26 49 2 -5 -3 -38 -11 -72z m3004 44 c0 -14
89 -77 99 -70 11 6 78 -59 97 -96 24 -48 9 -45 -28 5 -18 25 -37 45 -42 46 -5
0 -4 -6 2 -12 15 -20 25 -78 13 -78 -6 0 -17 15 -25 33 -7 17 -32 48 -55 67
-22 19 -41 39 -41 45 0 22 -38 13 -49 -11 -6 -13 -15 -24 -21 -24 -13 0 -13
17 0 25 15 10 12 55 -5 61 -27 11 -16 22 20 21 19 -1 35 -6 35 -12z m-2454
-80 c3 -14 12 -25 19 -25 22 0 29 -22 12 -35 -18 -13 -24 -30 -7 -20 6 4 11
-7 11 -24 1 -17 2 -37 3 -43 1 -7 -3 -25 -10 -39 -7 -14 -14 -61 -15 -105 -1
-43 -6 -82 -11 -85 -5 -3 -10 -30 -11 -60 -2 -43 -5 -54 -19 -54 -9 0 -20 -4
-24 -8 -16 -15 -24 -6 -24 28 0 39 16 47 29 13 12 -32 20 -9 22 60 1 37 -3 67
-10 76 -7 8 -10 19 -7 25 9 13 -90 -37 -104 -54 -6 -7 -12 -26 -13 -41 -4 -45
-24 -39 -25 8 0 24 -4 55 -7 69 -5 20 -2 28 11 33 11 4 21 1 26 -9 14 -23 58
-20 58 5 0 17 19 27 34 18 12 -8 47 42 60 86 16 56 16 70 -2 102 -17 32 -27
104 -13 104 6 0 13 -11 17 -25z m1883 -63 c10 -24 17 -28 41 -24 36 5 38 -3 8
-28 -22 -18 -22 -18 -5 -86 9 -38 18 -89 20 -114 1 -25 7 -45 12 -44 14 1 34
-28 28 -42 -7 -18 14 -52 37 -59 10 -3 28 -2 38 4 23 12 36 3 21 -15 -6 -8
-13 -26 -14 -41 -1 -16 -6 -36 -10 -47 -5 -11 -3 -21 4 -26 20 -11 4 -101 -17
-98 -12 2 -16 -6 -18 -29 -2 -31 17 -50 37 -37 5 3 9 -5 9 -18 0 -13 4 -28 9
-34 5 -5 3 -22 -5 -39 -12 -28 -13 -28 -14 -6 0 17 -4 22 -16 17 -10 -4 -13
-2 -8 7 5 8 2 7 -9 -2 -13 -10 -20 -11 -30 -2 -22 17 -27 3 -22 -63 l5 -61
-17 68 c-18 76 -33 87 -33 25 0 -56 -6 -45 -14 25 -6 55 -5 58 14 52 22 -7 27
12 11 43 -5 9 -12 25 -15 35 -3 10 -10 16 -15 13 -4 -3 -18 3 -30 13 -17 15
-29 17 -63 11 -46 -9 -66 -4 -50 12 6 6 31 10 57 10 35 -1 51 -7 66 -24 l21
-23 -7 25 c-4 14 -9 35 -12 48 -3 12 -8 22 -12 22 -3 0 -7 11 -7 24 -1 19 2
23 15 19 13 -5 14 -3 4 8 -7 7 -13 20 -13 28 0 14 2 14 9 2 8 -12 12 -12 24
-2 12 9 16 9 20 -1 3 -7 6 11 6 40 1 61 15 62 25 2 8 -52 23 -52 18 0 -3 27
-11 45 -25 55 -16 11 -23 30 -28 81 -6 62 -35 144 -51 144 -8 0 -9 -2 -13 -36
-1 -12 -12 -32 -24 -45 l-21 -23 0 52 c0 28 7 72 16 97 9 27 13 59 9 75 -12
55 13 63 34 12z m341 -104 c1 -22 1 -22 15 -4 7 10 18 15 24 11 13 -7 15 -62
2 -69 -4 -3 -7 -24 -5 -47 2 -23 -1 -48 -6 -54 -7 -8 1 -23 23 -47 33 -36 33
-36 47 -15 8 12 13 32 11 44 -1 13 5 26 18 33 12 6 21 17 21 25 0 8 7 15 15
15 8 0 15 7 15 15 0 8 5 15 11 15 8 0 10 -12 6 -34 -7 -44 3 -53 25 -24 16 21
18 21 18 4 0 -14 3 -16 13 -7 17 13 27 5 27 -22 0 -16 -3 -17 -15 -7 -12 10
-15 9 -15 -5 0 -15 -3 -15 -15 -5 -14 12 -15 7 -11 -44 3 -31 10 -65 16 -75 5
-10 7 -21 4 -24 -3 -3 -7 -11 -8 -19 -2 -7 -8 -24 -13 -38 l-10 -25 -7 23 c-4
12 -5 25 -2 30 2 4 1 14 -4 22 -12 20 -26 5 -38 -40 -6 -25 -13 -34 -26 -32
-14 3 -16 -1 -11 -17 3 -10 1 -22 -5 -26 -5 -3 -10 0 -10 9 0 8 -6 16 -12 18
-9 3 -8 12 5 31 20 30 6 38 -15 8 -9 -12 -23 -18 -41 -16 -23 3 -31 -2 -44
-30 -21 -44 -36 -34 -28 16 6 33 4 38 -9 33 -9 -3 -16 -13 -16 -21 0 -8 -9
-26 -20 -40 -19 -24 -20 -24 -20 -5 0 11 5 24 10 27 6 3 10 21 10 40 0 19 5
37 10 40 6 3 10 -1 10 -10 0 -11 5 -15 15 -11 8 3 15 1 15 -4 0 -24 39 -8 53
22 13 27 17 30 22 15 11 -28 26 -19 19 11 -9 33 -44 81 -61 81 -7 1 -13 8 -13
16 0 8 -11 22 -25 31 -34 22 -33 46 3 42 26 -3 27 -1 24 37 -2 22 -7 45 -12
50 -11 15 -20 61 -13 69 13 12 23 6 23 -16z m-1188 -166 c-9 -7 -17 -16 -17
-20 -1 -14 -55 -121 -65 -127 -15 -9 -12 13 6 40 18 28 11 85 -11 85 -7 0 -16
6 -18 13 -3 6 -6 -3 -6 -21 -1 -18 3 -31 8 -27 17 10 21 -13 5 -29 -25 -25
-32 -19 -37 32 -3 26 -8 59 -12 74 -6 22 -2 32 23 55 50 46 62 54 62 44 0 -5
-5 -13 -11 -17 -7 -4 -9 -20 -6 -40 4 -26 2 -32 -9 -27 -16 6 -20 -12 -4 -22
5 -3 17 6 26 20 15 24 17 24 29 8 8 -10 17 -15 21 -11 4 4 2 13 -4 20 -7 9 -6
19 4 32 8 11 15 29 15 40 1 12 5 -8 10 -44 7 -56 6 -67 -9 -78z m-11258 -52
c-8 -30 -14 -70 -13 -90 l1 -35 9 31 c7 24 17 33 48 42 50 16 101 6 101 -19 0
-14 -7 -19 -25 -19 -17 0 -25 -6 -25 -17 -1 -10 -9 -28 -20 -41 -15 -19 -23
-21 -38 -13 -25 13 -33 4 -26 -28 7 -29 24 -52 24 -33 0 7 7 12 15 12 8 0 15
3 15 8 0 4 16 23 35 44 26 27 40 35 56 31 16 -5 20 -3 15 6 -13 21 3 61 24 61
25 0 33 -15 20 -40 -9 -18 -8 -20 15 -20 14 0 25 -4 25 -10 0 -9 -14 -14 -24
-7 -3 1 -15 -7 -28 -18 -13 -12 -36 -27 -53 -35 -16 -8 -36 -23 -43 -32 -7
-10 -22 -18 -33 -18 -10 0 -19 -6 -19 -14 0 -8 -9 -17 -19 -21 -26 -8 -31 -37
-10 -63 20 -26 54 -29 63 -6 9 25 31 10 31 -21 0 -15 6 -30 13 -32 8 -3 12 6
12 26 0 29 2 31 39 31 33 0 40 4 43 21 4 30 33 47 55 33 25 -15 43 -7 43 19 1
20 2 21 14 5 7 -10 18 -18 24 -18 7 0 6 -10 -3 -27 -8 -15 -12 -30 -9 -35 3
-4 -2 -19 -11 -32 -9 -14 -15 -33 -13 -44 2 -10 -2 -25 -9 -33 -12 -15 -13
-18 -13 -49 0 -11 -6 -20 -14 -20 -9 0 -15 -19 -19 -62 -3 -35 -9 -73 -13 -85
-4 -14 -2 -23 5 -23 6 0 11 7 11 15 0 9 9 14 23 14 12 -1 38 5 58 14 61 27
131 31 189 12 l51 -17 41 28 c22 16 35 30 28 32 -7 3 -15 0 -19 -5 -3 -5 -55
-9 -116 -10 -60 -1 -119 -5 -130 -8 -19 -8 -19 -7 -1 7 15 12 16 17 6 23 -9 5
-15 4 -18 -4 -3 -9 -7 -9 -19 1 -12 10 -17 9 -24 -5 -6 -9 -14 -17 -18 -17
-11 0 4 81 16 89 5 3 12 14 16 23 3 9 23 22 44 28 68 18 138 63 135 85 -2 17
-1 17 8 5 6 -9 13 -11 18 -5 4 6 22 24 41 40 28 25 32 26 22 8 -12 -24 -15
-40 -4 -29 4 3 12 -8 18 -26 6 -18 16 -32 23 -30 13 2 14 -2 21 -80 0 -10 9
-18 19 -18 9 0 13 -4 7 -8 -13 -9 -19 -35 -6 -28 5 4 12 2 16 -4 3 -5 14 -10
23 -10 10 0 96 -59 191 -131 96 -72 189 -138 207 -145 71 -30 125 -16 279 74
11 6 72 36 135 65 63 30 142 67 175 82 33 16 86 31 120 35 45 4 55 8 38 13
-26 9 -21 34 11 48 18 8 17 9 -6 4 -16 -3 -28 -3 -28 -1 0 3 17 21 37 40 21
19 34 38 30 43 -5 4 -12 1 -17 -7 -6 -8 -10 -10 -10 -4 0 5 8 19 18 30 12 13
16 28 12 49 -4 21 0 39 13 57 10 16 16 32 13 36 -5 9 28 128 43 150 4 7 17 15
27 16 10 1 28 19 39 39 23 42 31 45 40 17 8 -25 -3 -25 405 0 179 11 523 31
765 45 242 14 503 30 580 35 81 5 143 6 148 1 12 -12 -43 -17 -353 -36 -140
-8 -313 -20 -385 -27 -71 -6 -182 -11 -245 -11 -76 -1 -101 -3 -75 -8 22 -4 2
-5 -45 -2 -70 4 -453 -19 -720 -43 l-65 -6 30 -15 c23 -13 50 -14 134 -9 403
25 599 38 756 50 99 8 252 20 340 26 88 6 256 17 373 26 118 9 224 13 236 10
21 -5 22 -8 14 -78 -5 -40 -12 -112 -16 -160 -4 -48 -13 -93 -20 -100 -7 -7
-27 -13 -45 -14 -116 -6 -199 -14 -210 -21 -6 -4 -39 -8 -72 -9 -183 -5 -371
-18 -376 -26 -3 -5 -51 -11 -106 -12 -55 -2 -109 -8 -120 -14 -24 -13 -96 5
-86 22 3 6 0 5 -8 -1 -7 -7 -21 -13 -31 -13 -9 0 -22 -8 -28 -17 -8 -13 -13
-14 -16 -6 -4 10 -13 9 -36 -3 -22 -12 -37 -13 -58 -5 -16 5 -37 8 -47 6 -10
-2 -73 -9 -141 -16 -67 -7 -124 -15 -126 -18 -2 -3 -77 -6 -165 -5 -89 0 -156
-3 -150 -6 6 -4 -8 -10 -32 -13 -23 -3 -46 -11 -50 -19 -7 -10 -9 -9 -9 4 0 9
5 20 10 23 15 9 12 22 -5 22 -8 0 -15 -9 -15 -19 0 -11 -4 -16 -10 -13 -5 3
-10 2 -10 -4 0 -5 5 -13 11 -16 7 -5 6 -12 -4 -23 -21 -24 -29 -69 -17 -91 5
-11 40 -40 77 -66 60 -42 69 -46 88 -34 57 36 72 40 120 29 129 -29 195 -88
195 -175 0 -48 24 -44 60 9 15 21 38 45 51 52 32 18 109 17 210 -1 115 -22
146 -33 167 -60 18 -22 28 -24 148 -30 70 -4 136 -11 145 -15 9 -5 36 -32 59
-60 24 -28 64 -62 89 -76 25 -14 62 -34 81 -46 19 -11 60 -35 90 -54 46 -27
63 -32 96 -27 37 5 42 2 89 -46 l50 -51 18 25 c20 27 102 69 117 60 5 -3 6
-13 3 -21 -3 -8 0 -26 7 -39 7 -13 10 -33 7 -45 -4 -17 3 -25 41 -44 26 -13
60 -38 76 -55 24 -25 38 -31 73 -31 129 0 263 -43 298 -96 19 -29 65 -42 180
-50 50 -3 103 -13 119 -20 38 -18 91 -18 110 1 11 11 27 14 58 10 93 -13 91
-12 85 -57 -4 -27 0 -52 9 -69 8 -16 15 -50 17 -76 l2 -48 -65 -11 c-36 -6
-92 -21 -125 -33 -126 -48 -306 -56 -302 -13 1 15 13 17 86 18 106 1 191 13
171 24 -13 6 -136 31 -309 61 -94 16 -160 53 -235 132 -40 42 -70 67 -73 60
-3 -7 9 -26 25 -43 17 -16 33 -43 37 -60 4 -16 11 -30 16 -30 5 0 9 -7 9 -16
0 -8 5 -12 10 -9 6 3 13 0 16 -8 6 -17 61 -43 71 -33 7 7 33 -40 33 -60 0 -23
30 -16 42 11 15 34 33 31 52 -7 18 -36 20 -52 6 -43 -5 3 -10 0 -10 -8 0 -9
-25 -17 -82 -26 -46 -7 -90 -14 -99 -17 -25 -7 -52 25 -46 55 3 16 -1 30 -11
38 -11 8 -12 12 -4 13 16 0 16 41 -1 73 -14 28 -69 77 -85 77 -6 0 -13 9 -17
19 -6 21 -31 34 -46 25 -5 -3 -9 -36 -9 -73 0 -71 -5 -83 -67 -151 -13 -14
-23 -29 -23 -35 0 -5 -22 -31 -48 -58 -42 -41 -56 -49 -108 -57 -75 -12 -94
-12 -94 0 0 6 6 10 14 10 19 0 5 54 -21 82 -17 19 -17 20 0 29 24 14 22 33 -3
26 -11 -3 -20 -1 -20 4 0 5 -26 9 -57 9 -52 0 -55 -1 -37 -15 18 -13 17 -14
-14 -21 -26 -5 -30 -9 -21 -21 10 -11 9 -12 -5 -7 -9 3 -16 16 -16 29 0 15 -7
25 -21 28 -14 4 -20 11 -16 21 4 10 1 13 -7 10 -8 -3 -18 7 -26 26 -7 17 -21
37 -32 44 -12 9 -16 16 -9 21 16 9 13 25 -4 25 -19 0 -19 15 -2 32 8 6 12 22
9 34 -2 12 1 31 7 43 9 16 9 21 -1 21 -15 -1 -78 -81 -78 -98 0 -7 -4 -12 -8
-12 -5 0 -29 -32 -53 -70 -24 -39 -50 -70 -58 -70 -7 0 -24 -11 -36 -26 -21
-25 -22 -25 -52 -8 -28 17 -30 21 -28 71 3 57 -9 62 -23 10 -5 -18 -18 -37
-31 -43 -34 -17 -53 -51 -72 -128 -10 -39 -18 -61 -18 -48 -1 19 -5 22 -22 17
-29 -9 -60 -42 -62 -66 -1 -10 -7 -19 -13 -19 -6 0 -14 -9 -17 -20 -5 -20 -27
-28 -27 -10 0 8 -68 5 -78 -4 -7 -8 23 -46 38 -47 22 -1 -20 -18 -45 -18 -11
1 -14 3 -8 6 10 3 10 8 -1 19 -8 8 -17 14 -21 14 -4 0 -20 13 -36 29 l-29 30
32 3 c28 2 34 8 36 31 2 15 12 32 23 37 24 13 25 36 2 50 -17 10 -17 10 0 20
9 6 17 17 17 25 0 11 -11 14 -47 10 -27 -3 -69 -6 -95 -8 -53 -2 -62 -11 -22
-21 14 -4 24 -12 22 -18 -6 -16 -58 -17 -97 -1 -18 7 -43 13 -55 13 -29 1
-112 45 -108 59 1 6 -2 11 -7 11 -5 0 -38 23 -72 50 -34 28 -67 51 -73 51 -21
2 50 17 88 18 22 0 37 3 35 5 -3 3 -178 8 -389 11 -324 5 -417 3 -583 -12
l-198 -18 -4 -64 c-5 -67 -14 -95 -16 -45 0 16 -3 23 -6 16 -4 -10 -10 -10
-28 2 -13 9 -31 13 -39 10 -9 -3 -16 -1 -16 5 0 6 -5 11 -11 11 -5 0 -7 -4 -4
-10 7 -12 3 -12 -19 -4 -9 3 -16 15 -16 25 0 23 -15 25 -24 4 -3 -8 -12 -12
-21 -9 -8 3 -15 1 -15 -5 0 -6 -16 -11 -35 -11 -35 0 -35 0 -34 -42 0 -33 2
-38 9 -23 7 16 9 17 9 3 1 -9 5 -18 10 -20 20 -7 11 -108 -10 -108 -5 0 -9 4
-9 9 0 5 -7 12 -16 15 -13 5 -15 1 -12 -24 5 -36 1 -39 -11 -7 -5 12 -3 62 3
117 7 52 11 111 11 130 l-2 35 -119 17 c-65 10 -162 24 -214 33 -53 8 -102 15
-110 15 -33 -1 50 -28 105 -34 33 -4 94 -13 135 -21 41 -7 101 -17 133 -20 60
-7 79 -25 26 -25 -24 0 -30 -4 -25 -15 7 -19 -3 -47 -15 -39 -5 3 -9 -1 -9 -8
0 -26 -19 -41 -56 -44 -79 -6 -123 -15 -134 -29 -7 -8 -22 -15 -35 -15 -12 0
-25 -3 -29 -7 -3 -4 -13 -8 -22 -9 -26 -4 -118 -26 -144 -35 -14 -5 -64 -11
-112 -14 -48 -3 -100 -10 -115 -16 -39 -15 -307 -15 -362 0 -24 7 -76 11 -115
10 -53 -2 -77 1 -96 13 -14 9 -38 20 -55 23 -67 15 -155 52 -170 72 -5 7 -19
15 -30 18 -38 8 -91 30 -120 49 -26 17 -29 17 -40 2 -16 -22 -25 -20 -25 4 0
14 7 20 23 20 l22 1 -23 19 c-27 22 -40 100 -17 100 7 0 16 -6 18 -12 4 -8 6
-7 6 3 1 19 -25 33 -41 23 -7 -4 -9 8 -6 34 2 22 0 38 -4 36 -5 -3 -8 -9 -8
-15 0 -5 -9 -28 -19 -52 -11 -23 -21 -49 -24 -57 -3 -8 -6 11 -6 42 -1 31 -4
65 -7 75 -5 15 -4 15 5 3 9 -12 11 -10 11 10 -1 29 -21 60 -41 60 -8 0 -25 20
-38 45 -21 40 -23 54 -18 123 3 56 14 101 37 158 18 43 40 104 50 135 41 126
101 196 213 249 31 15 79 47 105 70 60 53 69 60 79 60 19 1 110 76 106 88 -3
6 2 12 11 12 10 0 13 6 10 15 -4 9 0 15 9 15 9 0 29 19 45 43 35 50 110 127
124 127 19 0 1 80 -26 115 -28 37 -84 60 -122 51 -20 -5 -24 -12 -24 -46 0
-22 -4 -40 -10 -40 -5 0 -10 -4 -10 -9 0 -5 -15 -34 -34 -65 -37 -61 -96 -127
-96 -108 0 29 109 219 158 275 88 100 132 141 141 132 13 -13 22 -143 11 -150
-4 -2 -20 7 -34 20 -15 14 -35 25 -44 24 -13 0 -12 -2 4 -9 32 -13 89 -85 103
-131 l12 -41 30 31 c16 17 32 31 35 31 3 0 25 16 50 36 l43 36 -16 31 c-9 18
-26 44 -39 60 -13 15 -21 33 -18 40 2 7 -12 21 -31 31 -52 28 -62 44 -39 61
23 17 34 19 34 5 0 -5 -7 -10 -16 -10 -8 0 -12 -5 -9 -10 4 -7 11 -8 18 -1 7
5 29 12 50 15 l37 6 0 -61 c0 -37 -4 -58 -10 -54 -5 3 -10 0 -10 -8 0 -8 6
-17 14 -20 8 -3 20 -22 27 -41 14 -40 21 -43 38 -22 10 11 9 26 -3 67 -20 68
-20 153 0 213 21 62 26 55 8 -14z m13746 -145 c17 -20 -8 -29 -60 -21 -58 9
-53 -19 8 -46 39 -18 43 -22 25 -26 -13 -2 -23 -7 -23 -11 0 -5 -19 -32 -41
-60 -36 -45 -40 -54 -28 -67 8 -7 38 -15 67 -16 28 -2 52 -6 52 -9 0 -3 -11
-12 -25 -19 -14 -7 -25 -17 -25 -22 0 -4 -7 -8 -15 -8 -8 0 -15 7 -15 15 0 8
5 15 12 15 14 0 2 13 -15 16 -7 2 -32 7 -57 12 -33 7 -40 11 -28 17 10 4 41
38 68 76 l50 69 -26 10 c-14 6 -43 11 -65 12 -38 1 -49 10 -28 23 5 4 14 18
19 31 9 22 15 24 74 24 44 0 67 -5 76 -15z m-1340 -139 c0 -26 -5 -46 -12 -49
-7 -2 2 -3 21 -2 23 2 37 9 42 21 9 24 11 14 9 -58 -1 -36 3 -58 9 -58 15 0
14 -19 -3 -36 -17 -16 -31 -2 -22 21 3 8 1 17 -4 20 -6 4 -7 18 -4 32 4 16 2
28 -7 34 -21 13 -26 11 -32 -12 -4 -15 -2 -19 8 -15 10 3 13 -4 13 -27 -1 -40
-8 -53 -19 -36 -6 10 -9 7 -9 -10 0 -19 -3 -21 -14 -11 -8 6 -12 18 -9 26 3 8
0 14 -6 14 -6 0 -11 -9 -11 -20 0 -13 -7 -20 -20 -20 -24 0 -26 13 -5 30 23
19 43 67 34 81 -5 9 -11 6 -20 -14 -27 -59 -56 -10 -35 58 14 47 30 45 22 -2
-6 -36 -6 -37 9 -18 8 11 21 27 28 35 6 8 12 21 13 28 2 27 4 32 14 32 6 0 10
-20 10 -44z m-13332 -101 c-2 -3 -48 -14 -101 -25 -53 -11 -107 -26 -120 -34
-31 -21 -263 -74 -319 -73 -27 0 -57 -7 -72 -17 -23 -14 -29 -15 -46 -3 -18
13 -8 17 107 45 306 74 570 126 551 107z m10223 -665 c96 -28 251 -78 409
-130 94 -31 222 -60 241 -55 8 3 37 -6 65 -20 28 -14 66 -25 90 -25 62 0 178
-34 309 -90 66 -28 175 -71 244 -96 69 -25 173 -66 229 -90 57 -24 108 -41
113 -38 15 9 125 -46 155 -77 36 -37 24 -37 -31 1 -40 28 -113 62 -90 43 33
-28 124 -83 148 -88 15 -4 27 -13 27 -20 0 -7 7 -18 15 -25 29 -24 7 -21 -44
4 -28 15 -54 26 -58 25 -21 -3 -33 2 -33 15 0 8 6 16 13 19 19 6 -68 47 -101
47 -16 0 -32 3 -36 7 -3 4 -17 8 -29 10 -12 2 -31 7 -42 12 -85 39 -139 61
-142 57 -3 -2 5 -10 17 -16 29 -16 100 -80 100 -91 0 -21 -42 -6 -101 35 -74
50 -251 106 -359 112 -36 2 -94 8 -130 14 -118 19 -389 27 -810 23 -228 -2
-440 -5 -470 -7 -30 -3 -91 -7 -135 -9 -44 -3 -125 -10 -180 -16 -55 -6 -134
-13 -175 -16 -129 -8 -195 -16 -203 -24 -5 -5 -27 -6 -49 -3 -26 3 -39 1 -35
-5 4 -5 -7 -8 -26 -6 -46 5 -107 25 -107 34 0 12 39 17 299 39 129 11 238 23
242 27 23 24 149 198 149 205 0 4 5 8 10 8 13 0 13 -37 1 -45 -11 -6 -41 -64
-41 -78 0 -5 -12 -23 -26 -39 -16 -20 -22 -34 -16 -40 14 -14 488 12 509 27
12 9 16 26 14 61 -1 27 1 61 4 76 6 24 11 27 53 30 40 3 47 6 50 25 2 12 -3
34 -11 50 -13 24 -13 29 2 40 14 11 14 14 1 22 -10 7 -17 6 -21 -1 -4 -7 -21
3 -45 26 -22 21 -51 45 -66 54 -30 18 -36 32 -14 32 7 0 60 -14 117 -30z
m-2058 -364 c4 -11 1 -13 -11 -9 -12 5 -10 -1 7 -20 14 -15 30 -27 37 -27 7 0
19 -6 26 -12 28 -27 92 -53 129 -53 22 0 39 -2 39 -5 0 -8 -126 -60 -144 -60
-7 0 -19 7 -26 15 -10 12 -10 15 2 15 8 0 19 -5 26 -12 6 -6 14 -9 18 -5 10
10 -6 27 -26 27 -10 0 -22 5 -25 10 -3 6 -13 10 -22 10 -13 0 -13 -3 -3 -15
18 -21 6 -29 -19 -14 -24 16 -39 5 -21 -16 10 -12 10 -15 -4 -15 -10 0 -25 7
-33 16 -14 13 -14 17 -2 25 9 5 10 9 2 9 -6 0 -12 8 -12 18 0 28 -6 57 -13 62
-3 3 -9 17 -13 32 -6 24 -4 27 27 31 18 2 38 5 44 5 7 1 14 -5 17 -12z m2425
-137 c62 -30 109 -79 97 -100 -13 -20 -89 3 -157 48 -76 50 -86 61 -67 74 26
16 65 9 127 -22z m-1481 -78 c23 -11 49 -31 59 -46 16 -25 16 -27 0 -43 -24
-25 -99 -21 -136 6 -16 12 -34 22 -39 22 -20 0 -41 42 -30 62 13 24 90 24 146
-1z m-6281 -161 l91 0 -5 -29 -4 -29 -44 25 c-35 20 -44 22 -44 9 0 -8 4 -17
8 -20 5 -3 7 -18 5 -33 -3 -21 5 -37 31 -65 20 -22 41 -36 49 -32 17 6 27 -16
33 -75 5 -50 11 -62 23 -43 4 8 20 19 34 27 22 11 25 11 20 -1 -3 -8 -9 -14
-14 -14 -5 0 -13 -8 -16 -17 -18 -48 -41 -47 -91 3 -18 19 -41 34 -50 35 -15
0 -15 1 1 7 17 7 17 9 -2 29 -13 14 -27 19 -41 16 -16 -4 -23 0 -27 16 -3 11
-13 21 -22 21 -10 0 -21 3 -24 7 -4 3 -35 16 -70 29 -34 12 -61 27 -59 33 1 6
-3 11 -9 11 -7 0 -22 11 -34 24 -20 22 -29 24 -110 22 -60 -1 -92 3 -101 11
-7 7 -19 14 -26 14 -39 4 90 17 165 17 49 0 91 3 95 7 3 3 38 4 77 1 38 -3
111 -5 161 -6z m4609 -17 c60 -30 85 -92 46 -113 -51 -27 -152 4 -187 58 -14
21 -14 26 0 47 13 20 24 24 63 23 27 0 62 -7 78 -15z m-1823 -236 c24 -18 44
-42 46 -54 7 -51 -95 -70 -175 -33 -37 16 -43 23 -43 50 0 24 6 33 28 41 15 6
34 15 42 19 29 17 59 10 102 -23z"/>
<path d="M11777 761 c-26 -4 -55 -14 -63 -23 -13 -13 -21 -14 -41 -5 -19 9
-26 8 -34 -4 -15 -24 -10 -32 16 -27 16 3 25 1 25 -7 0 -15 42 -27 64 -19 9 3
16 2 16 -4 0 -14 35 -21 51 -11 10 6 11 9 2 9 -7 0 -13 5 -13 11 0 7 12 9 35
5 27 -5 35 -4 35 8 0 8 -8 17 -17 19 -10 3 1 5 25 6 38 1 42 3 42 26 0 29 -8
32 -25 8 -13 -17 -14 -17 -32 0 -11 9 -24 16 -29 16 -5 -1 -30 -5 -57 -8z"/>
<path d="M17611 6248 c-1 -13 -10 -17 -37 -16 -30 1 -42 -5 -65 -33 -43 -52
-36 -99 16 -103 5 -1 16 -14 24 -31 l15 -30 7 35 c4 19 17 61 29 94 12 32 19
68 17 80 -3 15 -5 16 -6 4z"/>
<path d="M11957 5660 c-88 -54 -113 -109 -88 -199 16 -55 9 -73 -23 -65 -14 3
-37 -1 -54 -10 -30 -15 -62 -13 -62 5 0 5 -3 8 -7 7 -5 0 -16 2 -26 7 -11 5
-24 2 -36 -9 -11 -10 -35 -16 -64 -16 -48 0 -51 -3 -47 -47 2 -34 -20 -28 -26
7 -4 17 -13 30 -21 30 -7 0 -16 6 -19 14 -3 8 -22 22 -41 31 -32 15 -43 16
-92 5 -31 -8 -62 -18 -68 -23 -9 -6 -18 -5 -27 2 -11 9 -18 4 -35 -24 -27 -46
-26 -47 6 -39 37 10 56 -17 38 -53 -13 -24 -19 -26 -92 -28 -50 -1 -90 -8
-110 -18 -33 -18 -63 -14 -63 8 0 14 23 26 53 30 10 1 25 8 33 16 12 13 12 18
0 34 -11 16 -16 17 -29 7 -10 -9 -28 -11 -53 -6 -28 5 -35 4 -29 -6 4 -7 2
-16 -6 -21 -8 -4 -16 -4 -20 2 -7 13 -57 -6 -85 -32 -20 -19 -21 -19 -39 1
-10 11 -21 17 -26 15 -4 -3 -23 3 -43 14 -29 16 -35 17 -40 5 -3 -8 1 -14 9
-14 7 0 16 -3 18 -7 7 -12 -73 -14 -92 -3 -15 9 -15 9 0 10 9 0 19 9 22 19 2
11 15 21 28 23 12 1 25 10 27 18 4 13 3 13 -11 2 -9 -8 -38 -14 -64 -15 -26
-1 -54 -6 -61 -10 -12 -8 -134 -11 -193 -5 -14 2 -33 9 -41 16 -12 9 -48 11
-149 6 -74 -4 -179 -8 -234 -8 -63 -1 -109 -6 -124 -15 -16 -9 -39 -11 -70 -7
-82 11 -175 26 -210 32 -19 4 -66 1 -105 -6 -39 -7 -100 -13 -136 -12 -71 1
-189 -16 -205 -30 -6 -5 2 -20 22 -38 18 -17 30 -36 28 -43 -6 -15 40 -67 59
-67 20 0 37 -25 30 -43 -3 -9 -42 -29 -87 -46 -45 -16 -129 -50 -187 -74 -100
-41 -298 -108 -530 -178 -136 -42 -226 -75 -722 -273 -227 -90 -465 -182 -528
-205 -63 -23 -126 -47 -140 -53 -52 -21 -892 -316 -1035 -363 -66 -22 -208
-74 -240 -89 -16 -8 -64 -26 -105 -40 -41 -15 -84 -30 -95 -35 -31 -14 -328
-120 -408 -146 -69 -22 -147 -51 -212 -80 -40 -17 -110 -43 -290 -109 -160
-58 -298 -110 -485 -181 -63 -24 -232 -87 -375 -140 -255 -94 -311 -116 -604
-229 -79 -31 -149 -56 -155 -56 -6 0 -22 -6 -36 -13 -14 -7 -68 -28 -120 -46
-52 -18 -120 -43 -150 -56 -119 -49 -269 -105 -282 -105 -8 0 -18 -4 -24 -8
-5 -5 -67 -30 -139 -56 -155 -57 -293 -110 -355 -136 -68 -28 -332 -127 -360
-135 -14 -4 -53 -20 -88 -36 -35 -16 -68 -29 -73 -29 -11 0 -234 -83 -294
-110 -88 -39 -111 -48 -144 -55 -19 -4 -48 -16 -65 -26 -17 -10 -40 -19 -52
-19 -11 0 -24 -3 -28 -7 -4 -4 -35 -17 -69 -29 -124 -43 -193 -71 -217 -86
-22 -14 -136 -57 -165 -62 -5 -1 -16 -6 -24 -10 -8 -5 -31 -13 -50 -17 -45 -9
-104 -31 -122 -45 -8 -6 -41 -19 -74 -29 -33 -10 -67 -23 -75 -30 -8 -7 -24
-15 -35 -17 -20 -3 -20 -12 -23 -826 l-2 -822 2600 0 c2416 0 2601 1 2619 17
16 13 18 21 9 36 -11 21 3 37 33 37 10 0 15 8 15 23 -1 16 5 23 21 25 13 2 23
8 23 13 0 6 -9 7 -21 4 -15 -5 -19 -4 -14 5 4 6 17 9 30 6 30 -8 55 2 55 20 0
10 -7 13 -24 8 -28 -7 -66 3 -66 17 0 5 9 9 20 9 12 0 20 7 20 16 0 12 7 14
29 9 22 -5 38 -1 60 16 33 25 41 49 15 49 -24 0 -11 22 24 39 33 17 41 36 20
44 -8 3 -7 6 4 6 22 1 32 35 18 61 -9 17 -8 20 10 20 11 0 20 5 20 11 0 5 4 8
8 5 10 -6 58 54 54 67 -1 4 3 7 9 7 6 0 9 9 6 20 -6 22 21 28 39 10 14 -14 44
-2 44 19 0 9 3 27 7 41 6 24 6 24 -14 7 -24 -21 -33 -22 -33 -3 0 8 13 23 29
32 17 10 28 21 25 25 -8 13 17 55 39 64 12 6 24 20 27 32 3 12 21 39 41 60 19
21 46 60 58 86 13 26 33 55 45 63 13 8 29 25 36 39 7 14 19 25 27 25 7 0 18
11 23 25 5 14 17 28 25 31 8 4 15 17 15 30 0 22 13 30 43 25 4 0 7 10 7 24 0
14 6 25 13 25 6 0 20 14 29 30 11 19 25 30 40 30 16 0 19 3 11 11 -14 14 11
59 33 59 8 0 14 7 14 15 0 9 7 18 15 21 8 4 22 20 30 38 8 17 30 46 48 65 17
19 39 45 48 58 18 26 102 124 162 186 20 22 37 41 37 42 0 2 22 27 50 56 27
30 50 62 50 72 0 10 8 17 20 17 11 0 20 5 20 11 0 6 14 22 31 36 17 15 35 37
40 50 5 12 15 23 23 23 8 0 28 21 45 48 17 26 47 58 66 72 19 14 35 30 35 37
0 6 16 28 35 47 40 41 43 48 18 40 -12 -4 -8 4 10 20 16 15 32 24 37 21 5 -3
10 0 12 6 2 7 28 18 58 26 67 17 87 33 42 33 -18 0 -32 5 -32 10 0 6 5 10 10
10 6 0 10 5 10 12 0 6 19 30 43 53 43 42 97 104 97 111 0 3 19 24 43 48 57 59
117 127 117 133 0 3 19 24 43 47 49 48 160 174 165 187 2 5 10 9 18 9 8 0 14
4 14 9 0 5 50 58 111 118 61 59 148 146 193 192 91 93 431 431 487 483 78 73
226 206 290 263 155 136 305 270 324 290 11 11 40 36 65 55 25 19 70 57 100
85 45 41 342 326 360 345 6 7 137 100 170 122 41 26 140 129 140 145 0 5 -23
18 -51 30 -62 28 -252 53 -398 53 -57 0 -102 2 -100 5 11 10 251 14 359 5 181
-16 280 -39 310 -74 10 -14 7 -23 -23 -59 -36 -44 -135 -146 -203 -208 -51
-47 -118 -120 -174 -189 -24 -30 -61 -72 -81 -92 -21 -21 -52 -59 -70 -85 -18
-27 -35 -50 -38 -53 -3 -3 -24 -25 -45 -50 -71 -81 -200 -223 -236 -260 -172
-174 -374 -400 -485 -541 -27 -35 -58 -73 -68 -84 -10 -11 -25 -31 -32 -45
-18 -34 -85 -134 -94 -140 -5 -3 -11 -17 -14 -32 -4 -14 -20 -40 -37 -56 -16
-17 -30 -35 -30 -39 0 -5 -11 -20 -24 -32 -14 -13 -30 -36 -36 -52 -7 -16 -16
-29 -21 -29 -5 0 -9 -4 -9 -10 0 -5 -8 -19 -17 -29 -34 -37 -43 -50 -43 -61 0
-14 -67 -119 -92 -143 -10 -10 -18 -24 -18 -31 0 -8 -7 -16 -15 -20 -8 -3 -15
-10 -15 -16 0 -5 7 -10 15 -10 9 0 15 -10 15 -26 0 -14 -4 -23 -10 -19 -5 3
-10 13 -10 21 0 23 -13 16 -42 -23 -21 -27 -26 -42 -21 -62 5 -22 4 -24 -9
-14 -8 7 -18 10 -21 6 -12 -11 -8 -23 8 -23 22 0 19 -5 -21 -46 l-35 -37 6 29
c6 24 1 21 -27 -21 -18 -27 -36 -51 -40 -53 -5 -2 -8 -15 -8 -28 0 -14 -4 -23
-9 -19 -5 3 -13 -5 -17 -17 -4 -13 -2 -24 5 -26 17 -6 14 -52 -4 -52 -8 0 -15
9 -15 20 0 11 -4 20 -9 20 -5 0 -8 -11 -8 -24 0 -18 6 -25 26 -29 14 -3 28 -1
32 4 3 5 21 1 41 -10 24 -12 41 -15 52 -9 14 8 11 13 -14 38 -17 16 -42 33
-55 36 -14 3 -25 13 -25 20 0 11 4 12 19 4 24 -12 58 -13 63 -1 2 5 23 11 48
12 34 3 45 0 45 -11 0 -11 -14 -16 -47 -18 -34 -2 -48 -7 -48 -18 0 -10 12
-14 43 -15 32 0 37 -2 22 -9 -17 -7 -17 -9 -2 -9 9 -1 17 -7 17 -13 1 -7 7 2
15 20 15 35 32 41 42 16 3 -9 12 -13 21 -9 13 5 13 3 -1 -13 -18 -20 -23 -42
-9 -42 5 0 14 11 20 25 6 14 30 45 53 70 23 25 36 45 30 45 -6 0 -11 -4 -11
-10 0 -21 -30 -9 -36 14 -7 31 1 46 26 46 14 0 18 -5 13 -17 -5 -13 -1 -12 17
5 13 12 27 22 32 22 4 0 3 9 -4 20 -7 11 -21 20 -31 20 -14 0 -17 5 -11 23 3
12 11 24 15 25 5 2 9 10 9 18 0 7 10 16 23 19 13 4 28 15 35 26 11 16 9 19 -8
19 -11 0 -20 4 -20 8 0 11 34 42 46 42 5 0 21 11 36 25 20 18 38 25 68 25 33
0 43 4 47 20 5 20 37 28 48 11 3 -6 -4 -19 -16 -30 l-22 -21 36 -15 c20 -8 37
-20 37 -25 0 -13 -17 -13 -25 0 -8 12 -25 13 -45 0 -24 -15 2 -35 28 -21 15 8
23 7 31 -3 8 -10 2 -16 -29 -26 -22 -7 -38 -15 -36 -18 3 -2 28 4 55 14 42 15
48 20 38 33 -10 12 -8 13 17 7 30 -7 86 9 86 25 0 5 12 7 28 5 15 -2 21 -1 13
1 -8 3 -22 12 -30 21 -13 12 -13 14 -1 10 8 -2 23 4 34 14 21 19 16 36 -5 22
-7 -4 -26 -9 -41 -11 -33 -3 -30 18 5 35 18 9 19 11 5 11 -19 1 -58 30 -58 44
0 10 -21 32 -37 38 -8 3 -6 16 7 43 13 30 15 44 7 57 -6 9 -7 24 -2 35 4 11 7
27 6 36 -3 25 34 11 48 -18 13 -29 31 -23 32 9 0 12 3 16 6 10 2 -7 9 -13 15
-13 5 0 18 -10 27 -21 12 -15 32 -23 69 -27 29 -2 52 -8 52 -13 0 -5 19 -10
43 -10 29 -2 34 -3 15 -6 -16 -2 -28 -9 -28 -14 0 -12 50 -9 68 5 18 13 24 3
16 -28 -5 -21 -10 -25 -29 -20 -24 6 -45 -13 -28 -25 16 -10 26 -81 12 -81 -7
0 -9 -3 -5 -7 4 -4 23 -6 42 -4 35 3 48 -14 17 -22 -11 -3 -7 -5 10 -6 22 -1
29 -7 34 -32 l6 -32 18 34 c10 19 18 41 19 50 0 9 9 28 21 43 11 14 21 36 21
48 1 13 6 28 11 35 5 7 6 17 2 24 -6 8 -10 7 -17 -2 -5 -9 -6 -3 -2 16 8 37
24 56 31 36 4 -9 12 -5 29 14 13 16 24 32 24 37 0 5 12 27 26 50 19 30 22 39
10 35 -10 -4 -16 -1 -16 9 0 11 6 13 21 9 17 -6 20 -4 16 12 -4 12 4 26 26 43
l32 25 -23 -29 c-12 -16 -22 -33 -22 -39 0 -5 16 10 35 34 40 50 43 63 15 54
-11 -4 -20 -2 -20 4 0 6 9 11 19 11 11 0 31 15 45 33 35 46 33 60 -3 18 -22
-25 -33 -32 -50 -26 -12 4 -21 2 -21 -4 0 -6 -5 -11 -11 -11 -6 0 -8 9 -4 23
11 36 25 44 31 19 8 -27 34 -29 34 -2 0 11 5 20 11 20 6 0 9 9 6 20 -4 15 0
20 16 20 26 1 64 27 54 37 -4 3 -23 -1 -42 -10 -19 -9 -35 -12 -35 -7 0 6 6
10 13 10 8 0 22 9 32 20 18 19 17 21 -11 45 -29 25 -29 26 -9 41 16 12 17 17
6 23 -19 12 -5 161 16 161 13 0 14 13 8 80 -7 77 -6 80 14 80 18 0 21 6 21 40
0 22 5 40 10 40 6 0 10 16 10 36 0 26 7 43 24 59 13 12 29 31 35 43 9 17 8 21
-9 24 -29 5 -10 27 36 43 28 9 40 19 42 37 2 12 8 27 13 33 13 13 11 43 -3 48
-7 2 4 13 25 23 33 16 39 16 47 4 7 -12 13 -10 34 9 14 13 23 28 20 32 -2 4
17 6 43 3 26 -3 62 -1 78 4 27 9 28 10 11 18 -13 5 -21 3 -24 -4 -2 -7 -10
-12 -17 -12 -10 0 -13 12 -12 40 1 45 7 47 117 54 56 3 150 39 150 56 0 6 28
10 63 10 35 0 115 7 177 15 131 17 240 12 240 -13 0 -12 3 -12 15 -2 9 8 15
30 15 56 0 31 4 44 14 44 8 0 17 -6 20 -12 5 -10 7 -10 12 0 4 8 31 12 85 12
72 0 96 -9 69 -25 -8 -5 -7 -12 2 -22 9 -12 25 -14 66 -10 30 3 65 2 78 -3 15
-6 24 -6 24 0 0 12 56 12 84 1 14 -5 16 -10 8 -15 -7 -4 -12 -16 -12 -27 0
-11 -7 -22 -15 -25 -25 -10 -17 -20 26 -37 35 -14 40 -19 29 -32 -10 -12 -7
-16 16 -26 16 -6 43 -17 59 -24 27 -12 27 -14 8 -14 -13 -1 -23 -5 -23 -9 0
-12 41 -48 63 -55 9 -4 17 -13 17 -21 0 -8 14 -26 30 -39 34 -29 37 -37 15
-37 -8 0 -15 -5 -15 -10 0 -6 7 -13 15 -16 8 -4 15 -15 15 -26 0 -22 21 -43
58 -58 12 -5 22 -18 22 -29 0 -14 8 -21 28 -24 24 -4 23 -4 -8 -6 -35 -2 -86
-19 -62 -20 7 -1 109 12 225 29 117 16 288 39 382 50 93 11 170 22 171 23 2 1
-14 14 -34 27 -20 14 -134 97 -253 185 -119 88 -265 195 -325 237 -60 42 -121
87 -135 100 -15 13 -48 41 -75 63 -87 72 -148 126 -229 204 -45 42 -103 95
-130 118 -129 109 -136 112 -313 149 -48 10 -79 21 -74 26 6 6 61 -3 133 -21
67 -17 130 -31 138 -31 30 0 179 -116 271 -211 37 -37 443 -359 454 -359 4 0
59 -35 124 -78 153 -102 471 -314 544 -362 l57 -39 98 9 c105 10 582 35 877
46 161 6 176 8 150 21 -16 7 -21 11 -10 8 14 -4 17 -1 12 11 -3 8 -6 23 -6 32
0 11 -10 6 -35 -18 l-35 -34 0 30 c0 18 -7 34 -20 42 -11 7 -20 19 -20 27 0
19 -11 19 -36 0 -25 -19 -31 -19 -37 5 -7 27 -37 26 -37 -1 0 -16 -4 -19 -21
-14 -14 5 -19 4 -15 -4 4 -6 2 -9 -6 -6 -7 3 -18 15 -23 27 -6 13 -25 27 -44
32 -28 8 -36 7 -47 -9 -12 -16 -17 -17 -39 -5 -18 10 -28 10 -38 2 -16 -14
-37 3 -37 29 0 10 -4 20 -9 23 -12 8 -7 77 7 103 17 30 15 38 -5 22 -14 -12
-17 -12 -21 0 -3 8 -16 25 -30 38 l-24 23 -26 -20 c-14 -12 -30 -17 -36 -12
-6 4 -28 14 -49 21 -31 10 -39 10 -52 -3 -8 -8 -37 -18 -63 -21 -26 -3 -55
-11 -66 -16 -13 -8 -22 -7 -29 0 -8 8 -6 11 6 11 28 0 20 35 -15 69 -29 29
-37 31 -73 26 -22 -4 -53 -13 -70 -21 -32 -16 -76 -11 -112 12 -38 24 -27 35
27 28 46 -6 50 -5 59 17 5 13 7 28 4 32 -3 4 1 15 8 23 9 11 8 18 -5 32 -18
21 -21 42 -6 42 7 0 7 7 0 20 -6 11 -8 25 -5 30 4 6 -8 10 -29 10 -19 0 -37 6
-39 13 -4 8 -8 8 -14 2 -4 -5 -22 -11 -40 -12 -26 -2 -31 1 -26 14 5 12 -4 8
-29 -10 -41 -32 -48 -33 -48 -9 0 11 -11 24 -25 30 -23 11 -29 9 -52 -14 -19
-19 -32 -24 -50 -19 -16 4 -32 -1 -48 -13 -21 -17 -39 -19 -144 -16 -130 3
-134 1 -146 -53 -5 -28 -9 -31 -25 -23 -10 5 -21 25 -24 45 -4 19 -13 35 -20
35 -18 0 -28 27 -14 36 6 4 17 -1 24 -11 8 -10 17 -16 20 -12 4 4 1 14 -6 22
-19 22 2 44 25 25 16 -13 17 -11 19 30 1 22 6 25 36 25 28 0 35 -4 40 -24 l5
-24 27 31 c20 24 32 30 52 26 15 -2 31 -2 37 2 15 9 -9 34 -27 27 -9 -3 -14 1
-14 11 0 10 -15 23 -35 32 -19 8 -35 18 -35 22 0 7 -40 9 -65 3 -23 -6 -141 1
-150 9 -5 4 -34 8 -64 8 -34 0 -56 5 -62 13 -6 10 -3 15 11 17 14 2 20 11 20
28 0 14 6 24 14 24 8 0 16 7 20 15 9 24 35 17 42 -10 7 -29 16 -31 34 -10 12
15 35 16 57 2 6 -4 14 -3 18 3 10 15 35 12 35 -5 0 -8 7 -15 15 -15 11 0 13 8
8 31 -5 28 -4 31 11 22 19 -11 63 -6 72 8 2 5 -2 22 -11 38 -8 17 -15 43 -14
58 0 26 1 26 9 6 5 -12 18 -24 29 -28 12 -3 21 -13 21 -21 0 -8 5 -14 10 -14
6 0 9 -15 8 -32 -3 -27 1 -33 17 -33 13 0 21 8 23 23 2 12 8 22 13 22 6 0 7
-15 3 -36 l-7 -36 41 3 c29 2 47 -2 63 -16 l21 -20 -38 -5 c-35 -5 -39 -8 -40
-37 -2 -31 0 -32 45 -39 25 -4 52 -12 60 -18 12 -9 13 -4 9 30 -7 54 6 77 20
35 7 -21 18 -31 31 -31 11 0 23 -4 26 -10 3 -5 1 -10 -6 -10 -7 0 -10 -2 -7
-5 10 -10 66 26 71 46 4 16 3 18 -7 9 -10 -8 -15 -2 -19 27 -5 27 -2 39 11 49
23 18 32 17 32 -1 0 -8 7 -15 15 -15 8 0 15 5 15 11 0 6 11 25 24 42 13 18 26
44 30 59 6 24 2 30 -33 48 -22 11 -48 20 -58 20 -16 1 -16 2 -3 13 20 15 43
72 37 89 -2 7 9 27 26 45 25 27 28 35 17 47 -17 21 -6 46 21 46 18 0 19 2 9
15 -7 8 -21 15 -32 15 -28 0 -58 18 -58 36 0 34 -126 52 -173 24z"/>
<path d="M12937 5345 c-21 -49 -28 -53 -48 -29 -10 13 -24 14 -66 9 -37 -4
-53 -3 -53 5 0 6 -6 10 -12 7 -7 -2 -12 -14 -10 -25 4 -29 -38 -45 -96 -39
-23 2 -45 0 -48 -5 -3 -5 -13 -8 -22 -7 -10 1 -25 -1 -34 -5 -14 -6 -15 -11
-5 -27 15 -25 37 -24 37 1 0 29 26 24 50 -10 23 -32 50 -39 70 -16 7 10 24 14
48 11 20 -2 40 -4 43 -4 4 -1 6 -9 5 -18 -1 -13 6 -18 26 -18 28 0 50 -15 81
-56 17 -22 17 -25 1 -36 -22 -16 -12 -27 16 -18 14 4 21 14 19 28 -3 38 1 42
17 19 21 -30 32 -28 26 5 -7 36 19 54 60 42 17 -4 35 -6 40 -3 10 7 68 -18 68
-28 0 -5 5 -8 11 -8 6 0 9 7 5 15 -6 15 12 65 23 65 4 0 8 11 9 25 1 22 -2 25
-28 25 -17 0 -30 -4 -30 -10 0 -5 -16 -10 -35 -10 -25 0 -35 -4 -35 -15 0 -12
-4 -13 -19 -5 -27 14 -31 13 -31 -7 0 -14 -2 -14 -20 2 -23 21 -27 40 -6 32 9
-4 16 3 19 19 3 20 1 23 -13 19 -26 -8 -50 4 -43 22 6 14 7 14 18 0 9 -12 11
-4 11 39 -1 69 -23 73 -49 9z"/>
<path d="M12539 5101 c-8 -9 -19 -36 -26 -61 -11 -41 -10 -47 9 -65 l20 -20
-6 63 c-4 47 -2 62 7 59 6 -2 12 -12 12 -23 0 -10 10 -23 23 -29 12 -5 22 -18
22 -27 0 -11 8 -18 20 -18 11 0 20 5 20 10 0 6 -5 10 -11 10 -6 0 -7 5 -2 13
4 6 6 23 4 36 -2 14 1 21 8 17 7 -4 8 -1 5 8 -9 22 8 20 29 -4 9 -11 28 -20
41 -20 13 0 29 -7 36 -15 15 -18 6 -45 -15 -45 -8 0 -15 -9 -15 -20 0 -24 22
-26 40 -5 18 22 44 20 35 -2 -18 -45 -18 -53 4 -53 11 0 22 -4 22 -10 1 -5 2
-14 3 -19 2 -18 17 -25 25 -13 4 7 22 14 39 14 18 1 32 5 32 10 0 13 20 9 37
-8 13 -13 14 -20 5 -35 -11 -17 -9 -19 11 -19 27 0 67 38 67 63 0 20 -36 40
-61 34 -10 -3 -19 -1 -19 5 0 6 -16 7 -40 3 -77 -13 -127 15 -72 40 28 12 28
18 0 30 -17 7 -24 20 -26 48 -2 20 -4 37 -5 37 -1 0 -40 5 -87 11 -149 18
-176 18 -191 0z"/>
<path d="M13126 4921 c-4 -5 -3 -16 0 -25 3 -9 2 -22 -4 -29 -20 -24 -24 -57
-8 -57 8 0 20 -9 26 -20 6 -11 17 -20 25 -20 8 0 12 -6 9 -13 -3 -9 6 -13 29
-14 19 -1 46 -9 61 -18 14 -9 43 -18 65 -18 48 -2 68 -29 55 -74 -12 -42 -11
-45 14 -54 18 -7 22 -5 22 12 0 28 17 59 52 93 23 21 33 25 41 16 9 -8 8 -14
-5 -21 -22 -12 -23 -29 -2 -29 9 0 12 -5 8 -12 -4 -6 0 -16 9 -22 8 -7 17 -23
20 -36 4 -25 4 -25 6 2 2 38 18 44 26 8 4 -16 13 -30 21 -30 8 0 14 -10 14
-25 0 -14 4 -25 9 -25 5 0 17 -7 25 -16 15 -14 16 -13 18 13 0 15 2 33 2 38 3
18 17 35 31 35 10 0 12 -9 8 -35 -5 -30 -3 -34 11 -29 15 6 22 41 19 101 -2
31 23 36 41 8 19 -29 21 -55 4 -55 -7 -1 -22 -20 -34 -44 l-21 -42 22 -28 c15
-19 27 -26 36 -21 8 5 21 -2 36 -21 l23 -29 0 52 c0 53 15 77 31 52 5 -8 7
-30 4 -49 -5 -33 -5 -34 10 -15 11 14 14 31 9 65 -8 57 -21 71 -39 46 -14 -18
-15 -18 -21 -1 -5 12 0 24 15 36 12 10 20 23 17 28 -12 18 12 21 43 5 28 -14
31 -19 31 -65 0 -33 -6 -56 -16 -67 -11 -10 -13 -17 -5 -20 6 -2 11 -12 11
-22 0 -32 17 -31 24 0 3 17 12 30 20 30 11 0 14 9 11 33 -2 17 -6 56 -9 86 -6
59 -36 97 -81 103 -33 4 -32 24 1 21 13 -1 24 2 24 7 0 5 7 7 15 4 18 -7 37 4
29 17 -4 6 -11 6 -20 -2 -11 -9 -14 -8 -15 7 0 11 -3 13 -6 7 -3 -10 -11 -9
-33 2 -16 8 -40 15 -53 15 -13 0 -32 7 -43 15 -17 13 -17 16 -4 26 13 9 12 10
-3 5 -10 -3 -21 -6 -23 -6 -2 0 -4 -7 -4 -15 0 -27 -56 -11 -94 28 -18 18 -43
21 -70 11 -24 -9 -19 -26 5 -19 17 6 20 3 17 -17 -2 -15 -9 -22 -20 -20 -10 1
-30 -3 -44 -11 -23 -12 -35 -12 -85 1 -36 9 -59 20 -59 28 0 8 6 11 15 8 23
-9 18 4 -11 31 -15 14 -36 25 -48 25 -29 1 -70 36 -62 55 3 8 1 15 -4 15 -6 0
-10 -4 -10 -10 0 -6 -10 -5 -25 2 -21 9 -28 8 -45 -7 -17 -15 -20 -16 -20 -3
0 25 -61 40 -74 19z"/>
<path d="M16213 4678 c-2 -26 -11 -50 -25 -65 -22 -24 -48 -31 -48 -13 0 6
-13 10 -29 10 -16 0 -32 6 -34 13 -3 6 -6 2 -6 -10 -1 -13 -5 -23 -11 -23 -23
0 -8 -19 20 -25 17 -4 30 -9 30 -11 0 -16 -35 -54 -51 -54 -10 0 -22 -8 -28
-17 -8 -14 -12 -15 -22 -6 -7 7 -25 10 -43 7 -24 -4 -28 -3 -16 5 12 8 6 11
-25 11 -27 0 -35 -3 -26 -9 10 -6 5 -11 -20 -17 -19 -4 -43 -8 -54 -9 -49 -2
-83 -27 -52 -38 9 -3 9 -7 -2 -20 -8 -11 -19 -14 -30 -9 -9 4 -29 7 -44 6 -15
0 -30 3 -34 9 -3 5 -9 4 -13 -4 -7 -10 -12 -10 -23 0 -11 8 -17 9 -22 1 -4 -6
-15 -8 -25 -5 -28 9 -90 -5 -90 -20 0 -7 -7 -26 -15 -41 -8 -16 -15 -39 -15
-51 0 -12 -11 -30 -25 -40 l-26 -18 20 -22 c11 -12 31 -29 43 -37 19 -14 21
-18 8 -26 -13 -8 -13 -10 0 -14 8 -3 24 -6 35 -8 12 -2 21 -12 23 -26 4 -25
12 -28 30 -10 9 9 15 9 24 0 9 -9 9 -12 -2 -12 -30 -1 14 -18 63 -25 l49 -8
-34 63 c-18 34 -41 77 -52 97 -22 41 -11 60 21 38 12 -9 26 -35 33 -65 7 -27
16 -50 21 -50 5 0 11 -11 15 -25 7 -30 15 -31 31 -6 15 24 88 38 109 20 22
-18 14 -55 -11 -52 -11 1 -14 0 -7 -3 6 -3 12 -11 12 -19 0 -7 6 -18 14 -24
12 -10 17 -8 25 7 10 18 18 20 80 15 44 -3 71 -1 75 6 4 6 16 11 27 11 10 0
19 5 19 10 0 6 10 10 23 10 28 1 89 31 95 48 2 7 -5 13 -17 13 -12 1 -25 3
-31 4 -5 1 -19 3 -29 4 -11 0 -21 9 -23 19 -4 18 -42 24 -147 23 -57 -1 -93
15 -69 30 7 5 29 9 49 9 34 0 66 20 53 33 -3 3 -30 3 -60 0 -55 -6 -68 3 -39
27 13 11 27 10 124 -7 32 -5 61 -21 61 -33 0 -6 5 -10 10 -10 6 0 10 7 10 16
0 30 29 -5 32 -39 2 -20 8 -32 18 -32 9 0 13 6 10 15 -6 22 -4 109 4 153 13
68 23 29 18 -68 -3 -57 -1 -95 5 -95 5 0 19 13 31 30 12 16 28 27 36 24 10 -4
15 11 20 57 3 35 13 74 22 87 14 21 21 23 55 18 37 -6 39 -5 41 21 0 16 0 36
-1 47 0 10 4 25 10 33 9 10 9 17 1 25 -7 7 -12 22 -12 34 0 13 -5 26 -11 30
-8 4 -9 0 -4 -15 3 -12 2 -21 -4 -21 -5 0 -15 16 -21 35 -6 19 -15 33 -19 30
-5 -2 -17 4 -27 13 -10 10 -27 21 -36 25 -11 4 -18 17 -18 32 0 43 -25 28 -27
-17z"/>
<path d="M16452 4662 c-7 -15 -15 -61 -19 -102 -5 -62 -3 -79 11 -92 9 -9 16
-29 16 -45 -1 -24 -2 -25 -11 -10 -5 9 -14 17 -19 17 -5 0 -10 -8 -12 -17 -4
-19 46 -58 62 -48 5 3 11 1 15 -5 4 -7 17 -3 36 11 16 11 39 19 51 17 13 -2
33 8 52 27 25 24 30 35 25 55 -11 43 -43 95 -59 95 -8 0 -23 16 -32 35 -17 35
-17 35 -18 8 0 -26 -20 -42 -20 -17 0 6 -7 9 -15 5 -10 -3 -15 1 -15 13 0 24
-20 81 -28 81 -4 0 -13 -12 -20 -28z"/>
<path d="M16886 4558 c-7 -18 -16 -59 -20 -90 -5 -49 -4 -57 9 -51 13 4 15 0
9 -23 -3 -16 -12 -33 -18 -39 -6 -5 -12 -23 -12 -40 -1 -16 -5 -40 -9 -53 -6
-19 -4 -21 11 -17 11 4 7 -1 -8 -9 -22 -13 -28 -26 -33 -71 -6 -44 -4 -59 9
-74 22 -25 20 -30 -11 -28 -23 2 -28 -3 -31 -23 -3 -24 -2 -25 13 -5 14 17 17
18 25 5 12 -19 12 -23 0 -56 -8 -19 -8 -30 0 -38 7 -7 10 -3 10 12 0 25 40 47
52 29 4 -6 18 0 38 16 17 15 36 27 41 27 16 0 10 -26 -11 -45 -23 -21 -26 -35
-6 -35 8 0 16 -6 19 -14 6 -15 100 -41 116 -32 5 4 12 2 16 -4 13 -21 44 -9
66 28 28 44 39 114 27 161 -7 22 -6 37 1 44 14 14 14 57 0 57 -6 0 -9 -9 -6
-19 2 -10 1 -25 -4 -32 -8 -14 -8 -14 -24 36 -3 9 -21 23 -40 31 -30 12 -34
17 -25 34 14 26 13 53 -2 48 -16 -6 -46 -58 -47 -81 -1 -17 -61 -108 -61 -91
0 22 55 152 76 181 l24 32 -33 25 c-40 31 -75 92 -96 171 -20 72 -44 85 -65
33z"/>
<path d="M14027 4567 c-3 -8 -8 -35 -12 -60 -6 -37 -4 -47 12 -57 10 -6 13
-13 7 -16 -6 -2 -8 -19 -6 -36 5 -31 5 -31 13 -10 5 13 14 20 19 17 6 -4 18
-1 27 6 13 11 17 10 28 -4 7 -9 20 -17 29 -17 14 0 16 6 12 28 -6 26 -4 27 33
28 36 2 40 0 46 -30 9 -41 10 -72 4 -121 -4 -37 -2 -40 21 -40 22 0 25 4 22
28 -2 23 1 28 15 25 11 -2 17 -11 15 -22 -3 -14 1 -16 19 -11 19 6 21 4 17
-18 -7 -35 19 -47 104 -48 40 0 109 -4 153 -8 44 -4 84 -5 88 -1 11 9 -13 120
-25 120 -4 0 -8 -5 -8 -12 0 -9 -3 -9 -12 1 -11 10 -9 16 10 28 25 18 30 43 7
43 -11 0 -15 11 -15 40 0 22 -3 39 -7 38 -5 -1 -17 4 -29 11 -14 10 -19 21
-16 37 3 18 -2 26 -19 33 -27 10 -49 -8 -49 -41 0 -10 -4 -18 -10 -18 -5 0
-10 8 -10 18 0 10 -7 27 -15 38 -14 18 -14 18 -15 -5 0 -24 0 -24 -21 -5 -21
19 -21 18 -40 -5 -19 -23 -19 -23 -19 -2 0 22 -14 28 -25 11 -3 -5 -1 -10 5
-10 6 0 8 -4 5 -10 -3 -5 -18 -10 -32 -10 -22 0 -24 2 -13 15 7 9 11 17 9 18
-13 9 -62 27 -74 27 -21 0 -18 -28 3 -35 11 -3 24 -16 30 -29 9 -20 7 -27 -8
-41 -20 -18 -40 -13 -40 11 0 8 -7 14 -16 14 -12 0 -15 7 -12 25 4 17 1 25 -9
25 -7 0 -22 5 -33 12 -16 10 -22 8 -42 -15 -30 -35 -42 -34 -35 1 4 21 1 31
-13 40 -16 10 -20 7 -28 -16 -6 -15 -11 -20 -11 -11 -1 24 -27 43 -34 26z"/>
<path d="M16337 4349 c-9 -6 -17 -14 -17 -20 0 -5 -9 -28 -20 -51 -18 -38 -18
-42 -3 -53 9 -7 13 -17 9 -23 -4 -7 -1 -12 8 -12 8 0 23 -8 32 -17 17 -17 18
-17 11 0 -5 13 -1 20 15 26 31 11 72 -2 76 -23 2 -11 0 -16 -6 -12 -6 3 -14 1
-17 -4 -4 -6 -19 -10 -33 -8 -21 2 -27 -1 -27 -17 0 -11 6 -19 13 -17 7 1 15
-5 18 -13 4 -8 11 -15 16 -15 5 0 23 -9 38 -20 34 -24 49 -11 29 26 -9 18 -10
29 -1 47 6 12 15 37 20 56 12 52 31 51 29 0 -2 -34 2 -44 16 -47 11 -2 17 3
17 16 0 28 11 34 31 16 25 -22 42 -8 35 30 -19 110 -29 123 -41 54 -4 -24 -10
-35 -12 -26 -2 9 0 33 6 52 10 40 9 43 -11 22 -8 -7 -33 -17 -56 -21 -38 -6
-43 -5 -53 19 -7 14 -16 23 -21 20 -5 -3 -17 0 -26 8 -20 17 -51 20 -75 7z"/>
<path d="M8990 4190 c-58 -58 -106 -105 -108 -104 -6 3 -149 -133 -342 -325
l-195 -195 50 -7 50 -7 55 57 c30 31 80 85 110 121 119 142 260 299 355 395
161 163 172 175 149 173 -10 0 -66 -49 -124 -108z"/>
<path d="M16587 4133 c-5 -4 -17 -9 -28 -9 -10 -1 -23 -2 -29 -3 -5 0 -10 -19
-10 -42 0 -34 3 -40 16 -35 9 4 23 1 31 -6 11 -9 16 -9 23 1 12 21 75 5 93
-23 9 -13 27 -26 41 -28 25 -5 26 -3 26 39 0 24 -4 42 -9 39 -5 -3 -7 -14 -4
-25 3 -11 -2 -21 -12 -25 -14 -5 -15 0 -10 38 10 61 1 81 -35 84 -25 2 -30 -1
-30 -19 0 -12 -10 -30 -22 -41 l-23 -20 -5 42 c-3 23 -9 38 -13 33z"/>
<path d="M13370 4124 c-217 -8 -465 -25 -474 -34 -7 -7 45 -7 144 -3 85 5 205
7 265 6 891 -17 1122 -23 1245 -32 191 -14 175 -15 158 11 -12 17 -26 22 -79
25 -35 2 -134 8 -219 14 -153 10 -855 19 -1040 13z"/>
<path d="M13075 4069 c-71 -5 -181 -11 -242 -15 -87 -5 -113 -9 -113 -20 0 -9
-12 -14 -36 -14 -47 0 -37 -12 41 -49 47 -22 71 -40 86 -65 35 -60 53 -48 65
44 4 27 11 50 17 50 5 0 7 -13 3 -30 -3 -16 -9 -44 -12 -61 l-7 -31 26 17 c51
33 148 15 229 -41 45 -32 53 -34 81 -24 30 10 34 9 62 -23 51 -58 155 -82 178
-41 13 23 10 240 -4 266 -26 48 -94 55 -374 37z"/>
<path d="M12190 4059 c0 -6 -7 -8 -16 -5 -14 6 -269 -20 -439 -43 -220 -31
-307 -44 -370 -56 -38 -8 -89 -17 -113 -20 -24 -4 -56 -13 -70 -21 -15 -8 -35
-14 -44 -14 -10 0 -18 -7 -18 -15 0 -12 8 -14 38 -10 212 30 714 97 817 109
121 14 203 38 219 65 3 5 27 7 53 4 36 -3 44 -2 33 6 -20 14 -90 14 -90 0z"/>
<path d="M15280 4000 c0 -22 3 -23 130 -41 297 -42 809 -221 818 -286 3 -22
34 -39 51 -29 5 3 30 -13 56 -36 46 -41 95 -60 95 -38 0 5 7 10 15 10 21 0 19
4 -12 38 -16 16 -35 37 -43 48 -24 31 -47 45 -80 49 -17 2 -43 13 -58 24 -24
17 -160 86 -172 88 -19 2 -50 16 -50 22 0 5 -21 14 -47 21 -27 8 -51 18 -55
24 -6 8 -8 8 -8 0 0 -7 -11 -9 -27 -6 -25 5 -25 6 -8 13 17 6 15 8 -10 9 -16
2 -35 2 -41 1 -7 -1 -47 10 -90 23 -138 44 -342 71 -389 52 l-20 -8 20 13 c19
13 19 13 -5 20 -48 14 -70 10 -70 -11z"/>
<path d="M16140 3949 c-7 -16 -18 -29 -24 -29 -6 0 27 -20 74 -44 47 -24 87
-39 88 -35 2 5 11 9 19 9 9 0 13 -6 9 -15 -5 -15 28 -45 50 -45 13 0 44 54 44
75 0 6 -13 24 -28 38 -25 24 -34 27 -70 21 -23 -4 -42 -10 -42 -15 0 -5 -4 -9
-10 -9 -5 0 -10 11 -10 25 0 25 -29 37 -31 13 0 -7 -4 -3 -9 8 -4 12 -17 24
-28 26 -16 4 -23 -1 -32 -23z"/>
<path d="M8275 3502 c-5 -4 -19 -23 -29 -42 -11 -19 -51 -71 -90 -115 -94
-106 -136 -157 -192 -233 -26 -35 -53 -66 -61 -69 -7 -3 -13 -11 -13 -19 0 -8
-4 -14 -10 -14 -5 0 -15 -11 -22 -24 -7 -14 -32 -45 -55 -70 -24 -24 -43 -49
-43 -53 0 -5 -18 -27 -40 -48 -22 -21 -40 -42 -40 -47 0 -4 -12 -20 -27 -36
-16 -16 -37 -42 -48 -57 -11 -16 -43 -56 -71 -89 -28 -34 -55 -71 -58 -83 -4
-13 -13 -23 -19 -23 -7 0 -18 -12 -25 -28 -11 -24 -10 -29 9 -44 23 -19 54
-25 44 -8 -3 6 1 10 9 10 9 0 16 9 16 21 0 12 4 18 11 13 6 -3 15 0 20 7 7 11
9 10 9 -3 0 -26 15 -22 28 7 6 14 16 25 22 25 5 0 10 7 10 15 0 8 9 19 20 25
11 6 20 20 20 30 0 11 6 20 13 20 7 0 35 34 62 75 28 41 53 75 58 75 4 0 7 5
7 11 0 6 16 30 35 53 19 24 35 48 35 53 0 5 9 18 20 28 11 10 20 24 20 32 0 7
12 23 26 35 21 19 24 29 19 58 -5 31 -4 33 8 18 17 -22 27 -23 27 -3 0 8 5 15
11 15 13 0 18 5 104 110 38 47 75 90 80 95 6 6 23 28 37 50 15 22 65 81 111
130 47 50 83 93 80 98 -5 9 -115 9 -128 -1z"/>
<path d="M13109 3129 c0 -2 -2 -31 -2 -65 l-2 -61 300 -7 c165 -3 361 -11 435
-17 74 -6 209 -12 300 -14 91 -1 215 -8 275 -14 469 -47 442 -46 450 -20 4 11
3 24 -2 28 -4 5 -84 16 -178 25 -93 9 -204 21 -245 26 -89 11 -446 46 -615 59
-66 6 -219 15 -340 21 -121 6 -238 15 -260 21 -46 13 -115 23 -116 18z"/>
<path d="M7156 2098 c-10 -14 -16 -44 -16 -83 0 -39 -3 -55 -9 -46 -5 8 -7 29
-4 48 4 21 2 33 -6 33 -6 0 -12 -10 -12 -22 -1 -13 -2 -27 -4 -33 -1 -5 -3
-16 -3 -24 -1 -8 -8 -11 -18 -7 -11 4 -18 -1 -21 -14 -3 -12 -14 -20 -27 -20
-17 0 -18 -2 -6 -10 9 -6 18 -6 24 0 6 6 17 10 26 10 9 0 11 -3 5 -8 -5 -4
-10 -23 -10 -42 0 -25 5 -37 19 -43 10 -4 21 -5 24 -2 3 3 1 5 -4 5 -5 0 -8
18 -6 40 2 22 9 40 14 40 6 0 8 -7 5 -15 -7 -17 6 -27 26 -20 10 4 16 29 20
81 3 42 12 86 21 99 14 21 13 24 -3 40 -18 15 -20 15 -35 -7z"/>
<path d="M6981 1875 c-23 -25 -31 -40 -26 -55 3 -11 12 -20 18 -20 7 0 4 -7
-6 -14 -17 -13 -14 -46 4 -46 5 0 9 -7 9 -15 0 -21 -8 -19 -35 13 -21 24 -22
28 -9 39 9 6 13 16 9 22 -9 16 -25 13 -25 -4 0 -8 -18 -32 -40 -52 -22 -21
-40 -43 -40 -48 0 -6 -13 -23 -30 -38 -31 -30 -38 -47 -19 -47 13 0 -34 -40
-48 -40 -4 0 -23 -26 -42 -58 -19 -31 -41 -61 -48 -65 -7 -4 -13 -16 -13 -25
0 -9 -17 -35 -38 -57 -20 -23 -49 -59 -64 -80 -28 -42 -47 -68 -89 -119 -14
-17 -34 -46 -43 -63 -9 -18 -21 -33 -26 -33 -5 0 -21 -22 -36 -50 -15 -27 -31
-50 -35 -50 -4 0 -17 -20 -28 -44 -10 -24 -29 -49 -40 -55 -12 -7 -21 -18 -21
-26 0 -8 -4 -15 -10 -15 -5 0 -16 -16 -24 -35 -15 -36 -33 -44 -53 -24 -8 8
-13 8 -17 0 -4 -6 0 -11 9 -11 12 0 15 -7 13 -27 -2 -23 -8 -28 -31 -28 -25 1
-26 -1 -12 -11 15 -11 15 -15 -6 -43 -12 -16 -28 -32 -36 -35 -7 -3 -13 -17
-13 -30 0 -16 -9 -32 -24 -41 -13 -9 -27 -26 -30 -38 -8 -32 -43 -52 -63 -36
-13 11 -15 9 -13 -16 3 -49 1 -55 -20 -55 -21 0 -27 -19 -10 -36 6 -6 -9 -36
-45 -86 -30 -42 -55 -80 -55 -85 0 -11 -44 -33 -63 -33 -9 0 -9 2 0 8 8 5 10
17 5 34 -6 24 -9 25 -27 12 -13 -10 -16 -17 -9 -22 17 -11 25 -44 14 -57 -6
-7 -22 -10 -38 -8 l-27 4 28 -25 c27 -25 27 -26 11 -58 -16 -32 -17 -32 -25
-10 -11 30 -22 28 -17 -3 3 -13 0 -26 -6 -29 -6 -3 78 -5 187 -4 108 0 197 2
197 5 0 3 -7 11 -17 18 -18 13 -10 35 13 35 8 0 14 6 13 13 -4 30 3 41 11 19
15 -36 26 -26 25 24 0 25 6 50 13 56 6 6 12 19 12 29 0 11 14 33 30 51 27 28
34 41 31 60 0 3 11 17 24 30 14 13 25 31 25 42 0 10 15 39 33 65 42 61 55 81
67 109 5 12 17 25 25 28 8 4 15 12 15 20 0 7 8 19 19 26 10 7 22 24 26 37 8
26 78 146 100 171 7 8 16 32 20 52 4 22 22 54 40 74 19 21 31 43 28 51 -4 9 2
16 17 20 17 5 21 11 18 34 -3 16 0 29 4 29 14 0 38 27 38 42 0 8 25 44 55 80
31 37 62 82 69 100 8 18 24 44 35 57 12 13 21 30 21 38 0 7 4 13 8 13 5 0 8
10 8 22 -1 15 7 27 22 33 12 5 24 17 27 26 3 9 21 33 40 55 19 21 37 51 40 66
4 15 11 28 17 28 6 0 8 7 5 14 -4 10 -1 13 7 10 16 -6 56 42 55 65 -1 13 -2
13 -6 -1 -2 -10 -13 -18 -24 -18 -15 0 -19 7 -19 31 0 26 3 29 21 24 16 -5 20
-3 16 6 -2 8 -10 13 -16 12 -6 -2 -11 2 -11 7 0 6 5 10 10 10 15 0 12 38 -2
43 -10 3 -10 7 0 19 27 33 -6 26 -37 -7z"/>
<path d="M7898 1766 c-29 -21 -22 -39 12 -34 34 5 41 -7 10 -17 -22 -7 -27
-25 -7 -25 7 0 8 -3 2 -8 -5 -4 -11 -24 -13 -45 -4 -47 16 -57 66 -32 21 10
41 18 45 17 5 -2 6 1 3 6 -3 5 6 20 20 35 35 38 32 57 -9 50 -28 -4 -38 0 -69
31 -41 41 -37 40 -60 22z"/>
<path d="M7243 1221 c-6 -25 -16 -27 -33 -6 -22 27 -70 7 -70 -28 0 -13 -13
-37 -29 -54 -16 -18 -32 -47 -36 -65 -4 -17 -16 -39 -26 -47 -27 -23 -35 -69
-14 -77 13 -5 14 -9 3 -15 -7 -5 -22 -9 -33 -9 -14 0 -26 -12 -37 -37 -9 -21
-25 -49 -37 -62 -23 -26 -27 -46 -11 -56 18 -11 11 -33 -10 -28 -14 4 -21 -1
-26 -21 -3 -15 -14 -32 -24 -39 -23 -16 -40 -51 -40 -81 0 -14 -6 -26 -12 -26
-7 -1 -25 -28 -40 -61 -17 -37 -35 -63 -47 -66 -11 -3 -22 -14 -24 -25 -5 -17
-11 -19 -34 -14 -22 5 -25 4 -10 -4 9 -6 17 -23 17 -37 0 -23 -3 -25 -30 -19
-23 4 -30 2 -30 -10 0 -8 7 -17 15 -20 8 -4 15 -12 15 -20 0 -8 -6 -11 -15 -8
-18 7 -20 -12 -2 -20 10 -5 10 -7 0 -12 -7 -3 -13 -12 -13 -20 0 -8 -7 -14
-16 -14 -11 0 -14 -5 -10 -16 5 -13 1 -15 -26 -12 -32 5 -32 5 -10 -10 25 -17
29 -32 7 -32 -18 0 -19 -12 -3 -28 13 -13 3 -16 -33 -13 -14 2 -33 -24 -29
-39 1 -2 -8 -7 -19 -12 -30 -11 -26 -29 7 -26 21 2 26 -1 24 -14 -3 -17 23
-18 431 -18 l434 0 33 138 c18 75 55 218 81 317 27 99 49 200 50 225 0 30 3
39 8 26 5 -13 15 12 35 85 16 57 31 113 34 123 4 14 2 17 -8 11 -10 -6 -12 -3
-7 14 3 15 -1 26 -16 36 -12 8 -16 15 -10 15 15 0 43 -28 44 -43 0 -13 29 72
29 88 0 6 -4 4 -9 -3 -14 -23 -20 9 -11 59 10 53 5 64 -9 18 -5 -19 -10 -27
-10 -18 -1 21 -27 43 -35 31 -3 -5 3 -21 14 -35 19 -24 26 -47 15 -47 -3 0
-14 6 -25 13 -17 10 -22 9 -30 -3 -8 -12 -3 -16 25 -18 20 -2 35 -9 35 -16 0
-10 -13 -12 -49 -8 -55 5 -72 -9 -47 -37 19 -21 22 -65 4 -58 -7 2 -13 14 -12
26 0 13 -5 21 -16 21 -19 0 -40 19 -40 37 0 7 11 13 24 13 24 0 41 23 30 41
-9 15 -44 10 -44 -6 0 -28 -29 -29 -51 -1 -11 14 -25 26 -30 26 -15 0 -10 -37
6 -44 21 -8 19 -36 -2 -36 -10 0 -34 -3 -53 -6 -30 -5 -37 -2 -45 17 -15 33
-35 36 -35 5 0 -14 -4 -26 -10 -26 -5 0 -10 8 -10 18 0 10 -5 23 -12 30 -9 9
-7 12 10 12 19 0 21 4 16 30 -4 18 -2 30 4 30 6 0 16 -13 24 -30 7 -16 19 -30
26 -30 7 0 10 -4 7 -10 -3 -5 -3 -15 1 -21 4 -8 12 -3 20 12 16 29 18 59 4 59
-5 0 -10 -7 -10 -15 0 -24 -19 -17 -26 10 -3 14 -12 25 -19 25 -7 0 -15 6 -17
12 -3 9 -9 8 -22 -5 -25 -24 -33 -21 -28 11 4 28 38 52 74 52 26 0 24 46 -3
60 -17 10 -21 8 -26 -9z"/>
<path d="M7597 609 c4 -23 3 -30 -5 -25 -8 5 -12 -1 -12 -18 0 -13 -5 -37 -11
-53 -6 -15 -19 -66 -29 -113 -34 -154 -42 -180 -52 -180 -6 0 -7 -16 -3 -42 6
-36 5 -40 -10 -34 -16 6 -17 2 -12 -31 4 -22 3 -32 -2 -25 -6 10 -11 3 -15
-23 -4 -20 -10 -43 -13 -51 -3 -8 0 -14 5 -14 6 0 13 10 15 22 l4 23 2 -22 c1
-23 2 -23 160 -23 l159 0 8 83 c11 102 7 149 -13 160 -10 6 -13 17 -9 35 5 20
4 23 -4 12 -8 -13 -10 -12 -10 5 0 11 7 31 16 43 8 12 12 27 8 33 -4 8 -9 7
-15 -2 -5 -8 -7 12 -4 51 3 45 2 57 -4 40 -8 -22 -9 -20 -10 18 -1 26 3 41 9
37 6 -4 10 5 10 19 0 16 -6 26 -14 26 -16 0 -37 -83 -35 -135 2 -39 -8 -122
-16 -135 -3 -6 -11 -8 -16 -5 -5 4 -9 -15 -10 -42 -1 -51 -26 -147 -28 -105
-1 13 -7 22 -17 22 -11 0 -14 5 -9 18 4 9 11 51 17 92 9 70 18 104 18 67 0
-10 5 -17 11 -17 6 0 9 6 6 14 -3 7 -2 17 3 22 4 5 10 29 13 54 3 25 3 37 0
28 -7 -29 -18 -21 -31 25 -9 30 -10 52 -2 77 9 33 8 37 -25 68 l-35 33 7 -32z"/>
</g>
</svg>
