<?xml version="1.0" encoding="UTF-8"?>
<svg width="470px" height="317px" viewBox="0 0 470 317" version="1.1" xmlns="http://www.w3.org/2000/svg" xmlns:xlink="http://www.w3.org/1999/xlink">
    <!-- Generator: Sketch 56.2 (81672) - https://sketch.com -->
    <title>Our Story</title>
    <desc>Created with Sketch.</desc>
    <g id="Designs" stroke="none" stroke-width="1" fill="none" fill-rule="evenodd">
        <g id="66169">
            <path d="M215.624762,265.004798 C201.860655,265.046085 188.096547,265.379336 174.357339,266.917792 C169.176942,267.497785 164.104927,268.77377 158.912813,269.288391 C148.541277,270.31665 138.35575,272.234559 127.947599,273.118803 C119.566008,273.831507 111.149266,274.251756 102.792086,275.15566 C94.9568019,276.00304 86.2827731,275.807415 78.5075391,274.407568 C72.7515421,273.370953 66.96967,272.787519 61.3103385,271.122742 C54.97923,269.260866 48.1018144,267.929339 41.506096,267.977017 C32.1002403,268.045338 22.9399543,268.053694 13.9388248,271.341468 C10.7791291,272.496048 6.91104049,274.393313 4.51148787,276.815522 C-0.981363908,282.360846 -1.72490788,296.197123 3.75964433,301.948393 C12.9970675,311.627889 32.712944,315.425861 45.6612522,315.605265 C59.8496139,315.801873 73.6337378,314.741666 87.8430926,314.117927 C101.046735,313.538426 114.217667,312.714147 127.443278,312.743147 C154.454966,312.802621 181.47056,312.743147 208.433427,310.92649 C233.766161,309.219934 259.161873,309.805826 284.550263,309.805826 C310.584555,309.805826 336.442602,310.011772 362.288933,313.495172 C373.550475,315.012984 385.023901,315.544317 396.341587,316.607474 C406.478293,317.560039 416.218573,316.588796 426.314758,315.708976 C434.792526,314.969731 443.214638,312.777553 450.915664,309.071987 C457.013408,306.138598 467.880965,297.026316 469.75081,290.02462 C474.994186,270.395785 395.884622,270.867643 383.738443,270.91188 C370.15058,270.961524 356.45531,271.411264 342.878188,270.889762 C337.167106,270.670544 331.539996,269.54693 325.966102,268.315182 C320.414177,267.088841 314.820754,267.400464 309.190227,266.885352 C285.711227,264.735445 262.180476,265.049526 238.62678,265.049526 C230.961882,265.049526 223.293078,264.981696 215.624762,265.004798" id="Fill-3" fill="#F1F2F2"></path>
            <path d="M29.8223497,96.9912501 C39.8596845,94.9121333 41.7977111,83.5977415 41.9944748,82.2360983 C42.0097574,82.1437154 41.9925644,82.0593658 41.9524476,81.9745142 L41.303414,80.6153813 L38.9842772,75.7662846 L36.0189724,69.5570508 C35.9779004,69.4727012 35.9234561,69.4079328 35.8427447,69.3647538 C34.6874746,68.7180737 24.894184,63.5953429 17.3149623,70.8187799 C17.0327115,71.0878953 17.2027306,71.5824449 17.5852735,71.6060427 C19.265406,71.7079651 22.638088,72.0067032 24.2031233,72.8030034 C24.560832,72.9857608 24.4777328,73.551606 24.0875485,73.6470013 C21.8534213,74.1987882 15.9161254,76.2056053 12.877273,82.377183 C9.08527421,90.0740823 10.1326109,90.997409 10.1326109,90.997409 L10.2887801,90.9150677 L10.1326109,90.997409 C10.1326109,90.997409 10.2204859,92.4348664 18.3503594,93.8316554 C24.8750807,94.9553123 29.9503416,91.1450208 31.7064095,89.5910806 C32.0125394,89.320459 32.4948969,89.5870639 32.419439,90.0002764 C32.0937283,91.7937092 30.3075727,94.8152317 29.3805866,96.2943619 C29.1718834,96.6287477 29.4479256,97.0675664 29.8223497,96.9912501" id="Fill-4" fill="#EBB044"></path>
            <path d="M34.6130599,90.9962252 C41.8421263,89.8051277 42.8960221,81.6097444 42.9977308,80.6227529 C43.0059644,80.5547175 42.9914345,80.4924317 42.9599533,80.4296667 L40.6080608,75.8023056 L38.2590744,71.1744653 C38.2271088,71.1121795 38.1840037,71.063309 38.1263687,71.0273749 C37.2637822,70.5180681 29.987736,66.4632579 24.7056646,71.4887694 C24.5090278,71.6737106 24.6475453,72.0416763 24.9270021,72.0704236 C26.1508967,72.1993075 28.6112784,72.5265479 29.7731791,73.1604264 C30.0405277,73.304163 29.9964539,73.7138124 29.7174815,73.7717862 C28.1099998,74.1023804 23.8580921,75.3734913 21.8408697,79.7799771 C19.3267277,85.273591 20.1181182,85.9817334 20.1181182,85.9817334 C20.1181182,85.9817334 20.2106247,86.9054808 25.1279978,88.079809 C25.4558873,88.1574268 25.8060558,88.236482 26.176566,88.3174536 C30.9539686,89.3485243 34.5224907,86.7339551 35.7521973,85.6559304 C35.9648169,85.4685937 36.3246719,85.67797 36.2825354,85.9774213 C36.1013971,87.2763213 34.8978442,89.4237465 34.2701563,90.4720656 C34.1301858,90.7111475 34.3432897,91.038867 34.6130599,90.9962252" id="Fill-5" fill="#FFD559"></path>
            <path d="M21.9403321,55.7606303 C25.8119846,56.2828511 34.4081683,58.3844002 39.2078537,61.7262238 C39.2912506,61.8217045 39.3843448,61.9064679 39.4682266,62 L57,46.302198 C53.9632862,44.843682 43.813108,40.6966056 33.4035266,44.6887695 C20.9706007,49.455983 17.284167,55.1322116 21.9403321,55.7606303" id="Fill-6" fill="#1A3151"></path>
            <path d="M60.7111125,100.531721 C70.3637073,94.7074384 73.2814782,84.3771255 74,81 L49.9388087,85.6052583 C50.0316993,85.5923154 50.1255942,85.5769757 50.2184849,85.5616361 C50.2330461,85.6244329 50.2365609,85.6910646 50.2511221,85.753382 C50.0864295,91.5311668 46.4476262,99.6779727 44.4607703,103.077149 C42.0913053,107.134014 49.0631259,107.560649 60.7111125,100.531721" id="Fill-7" fill="#CCAF5D"></path>
            <path d="M42.4800352,74.6002919 C42.4443323,74.5313633 42.4133899,74.4652675 42.3795912,74.3939784 L42.3672143,74.3996438 C39.0259069,67.706968 39.1392038,64.2298547 39.3653216,63 C38.0176594,64.2817872 36.6323902,65.6032318 35.196661,66.9690551 C35.196661,66.9690551 33.9694362,69.7200584 37.6463501,77.0028756 C41.3223119,84.2856928 44.2989746,85 44.2989746,85 C46.2140735,84.6841563 48.0620512,84.3829481 49.860521,84.0874053 L49.9900032,84.0623833 L49.9823866,84.0581343 L50,84.0548295 C48.8437048,83.4670486 45.9141699,81.4062748 42.4800352,74.6002919" id="Fill-8" fill="#1A3151"></path>
            <path d="M60.7106449,100.531955 C70.3640815,94.7074591 73.281955,84.3762899 74,81 L49.9374599,85.6054263 C50.0303538,85.5910448 50.1252563,85.5757046 50.2181502,85.5603644 C50.2337162,85.6241222 50.2362269,85.6897976 50.2512908,85.7540348 C50.0860902,91.5310716 46.4466568,99.6781748 44.4612373,103.076037 C42.0901826,107.134009 49.0637549,107.561138 60.7106449,100.531955" id="Fill-9" fill="#1A3151"></path>
            <path d="M96.4183369,69.1296781 C98.5413207,67.5556322 100.468977,65.9723244 102.22016,64.398766 C114.471193,53.3955564 118.065423,42.8603197 119,39.1891709 C118.378238,38.6061548 117.848338,37.9119952 117.422388,37.1247285 L117.406916,37.1325281 L117.352282,37.039421 C117.325691,36.9867741 117.293297,36.9385144 117.267672,36.8848925 C116.935518,36.2160814 116.713115,35.5248467 116.575805,34.8253249 C113.347574,33.5320627 105.249679,31.04352 93.1369224,32.3860169 C89.061625,32.8383905 84.5347524,33.7231515 79.5853137,35.2343136 C71.6184434,37.6682594 65.1276536,41.3979048 58.6629721,46.4183751 L58.632029,46.4022885 L41.1501686,62.1105742 L41.1951327,62.1583464 L41.0979522,62.2524284 C40.8779664,63.4750072 40.7672482,66.8419737 43.7740431,73.2415012 C43.925374,73.5685947 44.0810563,73.897638 44.2517266,74.2408181 C47.7420068,81.2647967 50.7149577,83.3955352 51.8888599,84 L74.9264496,79.3412337 L74.9269331,79.336359 L74.9346689,79.3348965 L74.9356359,79.3324592 C82.8222476,77.1208004 89.6969247,74.1150504 96.4183369,69.1296781" id="Fill-10" fill="#3ABABA"></path>
            <path d="M124.691971,36.0599224 C125.806782,34.9244448 126.155471,34.0088487 125.939293,33.5369683 L125.893163,33.4781685 L125.890449,33.480145 C125.699145,33.1777463 125.207543,32.9855353 124.422878,33.0008529 C124.105395,33.0067823 123.746303,33.0443351 123.332489,33.1243818 C121.855873,33.4134394 119.365299,34.3749883 117.078693,35.5989126 L117,35.5682774 C117.127988,36.2753568 117.336026,36.9794715 117.645822,37.6564098 C117.671148,37.7102684 117.701449,37.7591859 117.727228,37.8125504 C118.131997,38.6530409 118.654805,39.3848261 119.258567,40 L119.261732,39.9856706 L119.267612,39.9916 L119.272134,39.9708472 C121.270654,38.8427813 123.185506,37.4676577 124.330166,36.4048151 C124.457702,36.2867215 124.584334,36.1701102 124.691971,36.0599224" id="Fill-11" fill="#1A3151"></path>
            <path d="M96.6272201,47.695374 C93.8174938,42.5366411 87.4024989,40.5075556 82.0932548,43.1748798 C76.6643658,45.909081 74.4456276,52.5177838 77.1569363,57.9445092 C79.8576313,63.3702653 86.4588477,65.555397 91.8891841,62.8216805 C92.9095431,62.3094418 93.8160465,61.6590877 94.5971156,60.9050258 C97.9905934,57.648409 99.046653,52.449453 96.8476948,48.0355742 C96.786425,47.9119972 96.7000684,47.8150741 96.6334918,47.6924663 L96.6272201,47.695374" id="Fill-12" fill="#145566"></path>
            <polyline id="Fill-13" fill="#A2A4A7" points="117.5 36.644 117.482 36.614 117.453 36.564 117.389 36.447 117.378 36.428 117.5 36.356 117.581 36.5 117.622 36.575 117.5 36.644"></polyline>
            <path d="M84.7030013,101 C84.7030013,101 87.9242805,102.677008 88.4761747,111.469637 C89.0275947,120.261774 91,125.659628 91,125.659628 C91,125.659628 88.466692,127.639627 86.129202,126.786637 C83.7921862,125.934137 82.9657674,125.846727 82.9899483,122.21722 C83.0141292,118.587713 81,101.770982 81,101.770982 L84.7030013,101" id="Fill-14" fill="#1A3151"></path>
            <path d="M78,105.598851 C81.3967777,105.749742 84.5791247,107.990828 85.6688226,111 C87.0533629,109.112961 87.3862179,106.590092 86.5338557,104.444904 C85.6814935,102.29926 83.666332,100.588563 81.2988218,100 C79.5502367,101.397554 78.4288615,103.458662 78.2509814,105.601578 L78,105.598851" id="Fill-15" fill="#1A3151"></path>
            <polyline id="Fill-16" fill="#D1D3D3" points="74 127.323624 63.1439173 131.185093 55.2612837 138.12587 55.0976443 107 45.2583215 108.480641 42 144.398158 52.4868961 153 73.5899035 146.046647 74 127.323624"></polyline>
            <polyline id="Fill-17" fill="#1A3151" points="59.3489683 284.733254 59 287.466022 63.9846955 291 67 288.666865 64.6821364 285.533492 59.697441 282 59.3489683 284.733254"></polyline>
            <polyline id="Fill-18" fill="#1A3151" points="61.2100045 200.433857 60.1976982 208.71984 66.8073234 237.43203 59 283.125293 63.9273476 285 78.0602815 240.54716 80.4395569 227.57368 81 200 61.2100045 200.433857"></polyline>
            <polyline id="Fill-19" fill="#1A3151" points="101 210.567105 88.5468599 287 83.7077295 286.885215 83.994686 237.710171 76 203 101 210.567105"></polyline>
            <polyline id="Fill-20" fill="#1A3151" points="85.0659733 287 85 289.933964 90.2670318 293 93 290.132072 90.3994707 287.132072 85.0659733 287"></polyline>
            <path d="M63.2782061,190.482234 C68.1097241,162.211478 67.1035639,141.514758 67.452431,135.846914 C67.800811,130.17907 71.71436,127.326677 71.716309,127.325692 C73.4124076,126.976962 74.9072742,125.886935 76.6214009,125.483531 C88.2178237,122.755755 94.2913283,132.019752 98.3759002,141.953133 C103.409137,154.19217 107.582875,166.814416 110.895164,179.668655 C113.802066,190.94967 116.71384,202.331659 117.771161,213.992434 C118.207732,218.803724 118.558548,223.365287 113.436632,225.361124 C105.27431,228.541067 96.1920697,228.250459 87.6292321,229.128194 C77.7927371,230.136457 67.9508823,230.809781 58.0685863,231 C52.9096399,231.097927 58.4462009,218.75299 63.2782061,190.482234" id="Fill-21" fill="#D1D3D3"></path>
            <polyline id="Fill-22" fill="#DDC8AC" points="47.2289745 108 43 103.57169 44.6554531 96 48.8360825 96.0984286 49.9084645 102.752101 52 104.074552 51.9243082 107.272993 47.2289745 108"></polyline>
            <polyline id="Fill-23" fill="#D1D3D3" points="82 126 93.0654972 128.161582 115.265148 149.904803 141.711216 149.553854 143 157.457552 112.004446 162 86.9545612 145.679678 82 126"></polyline>
            <polyline id="Fill-24" fill="#FFFFFF" points="84.7304093 125.243303 86 156 72 126.437976 76.3062577 124.906408 79.3783595 124 84.7304093 125.243303"></polyline>
            <polyline id="Fill-25" fill="#DDC8AC" points="142 151.006449 146.871719 148 153 149.766232 152.92201 153.22413 142.600669 155 142 151.006449"></polyline>
            <path d="M85.1410997,109.657764 C81.2548762,101.32122 69.8701939,105.252289 68.2042196,112.997039 C67.2573332,117.401058 69.599355,125.142412 75.3105919,125.339354 C75.5793312,126.093164 76.0365031,127.515412 76.7975815,127.899108 C77.6216456,128.31482 79.6644849,127.334478 80.4712279,126.976491 C80.6953524,126.87705 80.9263003,126.763056 81.0590953,126.56951 C81.2254828,126.326487 81.1325788,125.78708 80.99401,125.197226 C81.6091713,125.028419 82.2217081,124.78394 82.8247971,124.451177 C85.356826,123.056578 86.7698073,120.306188 86.970837,117.584903 C87.1718667,114.863617 86.3089613,112.162705 85.1410997,109.657764" id="Fill-26" fill="#DDC8AC"></path>
            <path d="M80.6161965,99.7796816 C80.6161965,99.7796816 82.7604401,104.173216 76.912458,106.778076 C71.0644758,109.382462 68.1481462,114.863453 70.3433021,119.515905 C72.5389522,124.168358 77.9183445,126.788421 75.8116671,128.588972 C73.7049897,130.389998 64.5877527,131 64.5877527,131 C64.5877527,131 55.2411637,114.939466 60.7243575,105.940511 C66.2075513,96.9420323 76.5699128,94.4464401 80.6161965,99.7796816" id="Fill-27" fill="#1A3151"></path>
            <polyline id="Fill-28" fill="#1A3151" points="129.428726 283.377243 129 286.754486 135.237941 291 139 288.05713 136.094922 284.245514 129.856982 280 129.428726 283.377243"></polyline>
            <polyline id="Fill-29" fill="#999999" points="129.044016 281.730559 134.182162 237.320126 128 187.601876 129.389843 177.026066 157.003234 176 158 193.213529 153.364509 237.387973 135.924367 284 129.044016 281.730559"></polyline>
            <polyline id="Fill-30" fill="#145566" points="150 129 163.590465 131.399189 195 138.704759 193.004083 149 160.893879 148.526482 150 129"></polyline>
            <polyline id="Fill-31" fill="#999999" points="174.927247 181.315656 175 226.208722 165.793943 284 159.167369 283.935484 155.525186 230.491381 147 177 174.927247 181.315656"></polyline>
            <polyline id="Fill-32" fill="#1A3151" points="161 286.465058 167.633525 290 171 286.568913 167.699809 283.068913 161.033609 283 161 286.465058"></polyline>
            <path d="M121.426937,200.446616 C121.318838,198.525517 121.284779,196.917462 121.249733,196.34493 C120.93284,191.193602 120.941724,186.025721 121.14114,180.866604 C121.319825,176.243505 121.050317,164.827917 121.440265,160.215042 C121.762588,156.406439 123.214278,146.843303 124.554907,143.220675 C127.888217,134.211572 126.550056,133.521223 144.339552,129.395682 C152.136031,127.587532 154.433265,132.28025 161.384693,137.304511 C162.069816,137.800121 162.325996,141.080983 162.550586,141.936373 C162.946457,143.442191 163.360591,144.944113 163.814706,146.435326 C164.172076,147.607653 164.554619,148.773652 164.970728,149.92894 L164.96974,149.928453 C164.96974,149.928453 172.54854,173.786389 176.591158,178.643661 C180.633283,183.500446 188.679032,190.084078 176.684449,195.56354 C174.551586,196.452523 172.401939,197.309374 170.14913,197.862432 C170.14913,197.862432 159.921156,197.626798 154.715113,198.115105 C149.920241,198.564465 145.145114,199.45929 140.499805,200.668618 C137.392072,201.461205 134.240409,202.494294 131.547798,204.191442 C128.979082,205.810696 127.217408,208.018547 124.613646,209.690379 C124.367338,209.848604 124.095855,210.014132 123.798212,209.99904 C122.210781,209.920171 121.654489,204.48988 121.426937,200.446616" id="Fill-33" fill="#145566"></path>
            <path d="M145.330761,130.528068 C144.581106,131.245513 142.504184,132.092244 139.980878,131.991851 C139.47198,131.971283 139.020947,131.660308 138.86182,131.202417 C138.41492,129.915914 138.059467,128.601496 137.79856,127.269938 C135.928813,127.257695 133.698963,127.052501 132.808263,125.494201 C132.527723,125.003498 132.42956,124.440317 132.33553,123.889378 C131.947528,121.611185 131.55901,119.332992 131.171007,117.054799 C131.036679,116.266834 130.902867,115.453893 131.098677,114.677681 C131.441731,113.315271 132.717333,112.352475 134.011535,111.677146 C137.314978,109.95381 141.404758,109.426867 144.920027,110.719737 C145.855675,111.064013 146.764458,111.548349 147.391151,112.29077 C148.357798,113.435743 148.511759,114.996491 148.626972,116.459295 C148.733401,117.808973 148.83983,119.15914 148.94626,120.509307 C149.068188,122.06173 149.086271,123.866361 147.832368,124.872253 C147.166409,125.406541 146.229211,125.61957 145.685698,126.266005 C144.726801,127.405592 145.519854,129.081425 145.330761,130.528068" id="Fill-34" fill="#E1CFB5"></path>
            <path d="M155.909384,103.243694 C156.04718,102.599223 156.215282,101.964473 156.434998,101.347706 C156.910418,100.011134 157.62781,98.756701 157.903402,97.3622922 C158.179468,95.9683694 157.886355,94.3134506 156.731425,93.5270604 C155.985621,93.0196491 155.035728,92.9700745 154.142185,93.0113867 C151.1978,93.147474 148.293664,94.1117498 145.828961,95.7710428 C143.481692,97.3511136 141.552074,99.277235 138.629944,99.1989848 C135.883967,99.1251088 134.253617,100.125836 132.022835,101.954753 C129.608326,103.934337 125.993428,105.476012 123.979048,107.778317 C123.138066,108.740163 122.619081,109.961546 122.316025,111.215494 C121.26527,115.560567 122.894674,120.46457 126.313058,123.245125 C127.08017,123.869183 127.9221,124.389231 128.783444,124.866022 C130.565796,125.853141 132.717025,127.090078 134.682631,126.994816 C134.175485,125.339898 130.987234,120.682796 131.763817,118.905398 C132.996405,116.084989 137.648798,115.274783 140.240407,114.947202 C143.067357,114.589487 146.057674,115.675755 148.80744,115.162511 C150.785832,114.793618 152.867926,113.000181 154.13224,111.43858 C155.692035,109.511 155.406973,105.596546 155.909384,103.243694" id="Fill-35" fill="#1A3151"></path>
            <path d="M227,206.674499 L226.52328,215.224206 C226.368285,218.000848 223.922102,220.136193 221.059827,219.993219 L197.910316,218.836941 C195.048042,218.693968 192.853176,216.326812 193.007682,213.549707 L193.48489,205 L227,206.674499" id="Fill-36" fill="#666666"></path>
            <path d="M160.083181,80.608393 C161.754737,48.8568922 188.144567,24.4427302 219.026459,26.0775373 C249.907863,27.7123444 273.588234,54.7772679 271.916679,86.5282802 C271.322965,97.8112336 267.604825,108.166152 261.675965,116.756338 L261.678401,116.756827 C244.707631,142.738879 239.930157,165 239.930157,165 L211.792305,163.510748 L183.654453,162.021007 C183.654453,162.021007 181.240633,139.378904 167.091831,111.749344 L167.094266,111.749833 C162.099568,102.580846 159.489468,91.8913464 160.083181,80.608393" id="Fill-37" fill="#EBB044"></path>
            <path d="M241,165.037852 L239.002261,203.251013 C238.918359,204.847346 237.630413,206.076605 236.124514,205.996277 L184.579666,203.249552 C183.073767,203.168738 181.920836,201.809494 182.004256,200.213161 L184.002477,162 L241,165.037852" id="Fill-38" fill="#B0B0B0"></path>
            <path d="M239.965144,165 L212,164 L239.965144,165 C239.965144,165 239.976099,164.964238 240,164.893725 C239.979087,164.957152 239.965144,165 239.965144,165" id="Fill-39" fill="#FFF0C5"></path>
            <path d="M239.965891,165 L212.599996,163.553834 L183.665101,162.024236 C183.658767,161.966175 181.231689,139.371058 167.095096,111.807065 L167.097533,111.807553 C162.568872,103.507226 160,93.9593134 160,83.8532315 C160,82.8076402 160.027774,81.7561939 160.083323,80.6998685 C160.084784,80.6710818 160.086734,80.6422951 160.088195,80.6139963 L160.088195,80.6135084 C160.285539,76.9668683 160.823481,73.4236652 161.644039,70 C174.349529,99.2687512 199.622612,144.782469 240,164.846308 C239.976611,164.948282 239.965891,165 239.965891,165" id="Fill-40" fill="#F2BD4B"></path>
            <polyline id="Fill-41" fill="#CCBD92" points="213 163 212.213735 162.972887 184 162 213 163"></polyline>
            <path d="M262.995459,91.2991167 C264.456224,63.5468097 243.760755,39.8909412 216.770736,38.4620534 C200.994866,37.626824 186.562744,44.5727249 177,56.0292559 C186.231195,41.412252 202.581912,32.1083439 220.702514,33.0677819 C247.692046,34.4966697 268.387515,58.1525382 266.927237,85.9048452 C266.32021,97.4357057 261.98131,107.856513 255.184073,116 C259.7024,108.845781 262.515689,100.418668 262.995459,91.2991167" id="Fill-42" fill="#FFD559"></path>
            <polyline id="Fill-43" fill="#F4F5F5" points="223.242484 163.847314 234.058659 90.7090493 224.038569 98.2692228 216.389914 84.437198 207.216871 96.9652905 198.202154 88.7733951 201.150986 162.697531 198.216997 162.544845 195 81.8820174 206.784441 92.5915315 216.736748 79 224.968737 93.8842441 238 84.0508477 226.175977 164 223.242484 163.847314"></polyline>
            <path d="M227,156.835268 L225.924291,164 L223,163.850016 L224.328237,155 C225.210604,155.622937 226.099877,156.235332 227,156.835268" id="Fill-44" fill="#EBEAEB"></path>
            <path d="M199.866513,132.579076 L201,163 L198.26097,162.847398 L197,129 C197.93903,130.203751 198.894226,131.396776 199.866513,132.579076" id="Fill-45" fill="#EBEAEB"></path>
            <polyline id="Fill-46" fill="#7F7F7F" points="184 179.990596 240.633476 183 241 176.008922 184.366524 173 184 179.990596"></polyline>
            <polyline id="Fill-47" fill="#7F7F7F" points="183 192.990596 239.633476 196 240 189.008922 183.366524 186 183 192.990596"></polyline>
            <path d="M209,188 L183,186.684077 L183.423117,179 L199.461619,179.811774 C202.65666,182.898755 205.851701,185.611826 209,188" id="Fill-48" fill="#8E8E8E"></path>
            <path d="M183,171.527767 L183.506176,162 L184.420638,162.047908 C186.908723,165.650274 189.443048,168.960305 192,172 L183,171.527767" id="Fill-49" fill="#8E8E8E"></path>
            <path d="M236.249945,206.996415 L184.585644,204.334476 C183.076256,204.256641 181.920653,202.939588 182.004266,201.392805 L182.350318,195 L219.653436,196.921804 C227.011404,201.114016 233.707232,203.580189 239,205.030741 C238.630265,206.221372 237.522027,207.061984 236.249945,206.996415" id="Fill-50" fill="#8E8E8E"></path>
            <path d="M199,181 L182,180.143033 L182.394809,173 L191.837189,173.476038 C194.21275,176.188863 196.605859,178.6957 199,181" id="Fill-51" fill="#666666"></path>
            <path d="M220,195 L183,193.025419 L183.366731,186 L208.965484,187.366309 C212.741611,190.386828 216.448226,192.903764 220,195" id="Fill-52" fill="#666666"></path>
            <path d="M194.187627,210 C200.13436,216.724054 212.053237,219.308438 216,220 L198.725911,219.060136 C195.970659,218.910281 193.858691,216.429195 194.007395,213.518429 L194.187627,210" id="Fill-53" fill="#4E4E4E"></path>
            <path d="M218.601289,18.9993577 L216.768731,18.9556603 C215.763992,18.9312711 214.972633,18.2194099 215.000725,17.3647701 L215.527302,1.50362963 C215.555992,0.649497869 216.393374,-0.0237469751 217.398711,0.000642272093 L219.230671,0.0443396733 C220.236008,0.0687289205 221.027367,0.780590073 220.999275,1.63522994 L220.472698,17.4963704 C220.444008,18.3505021 219.606626,19.023747 218.601289,18.9993577" id="Fill-54" fill="#EBB044"></path>
            <path d="M195.329685,20.8685238 L193.885142,21.7926288 C193.234108,22.2087098 192.392786,21.979112 192.005933,21.2788908 L184.193038,7.1529146 C183.805701,6.45321284 184.019654,5.54832755 184.670205,5.13172709 L186.114748,4.20762208 C186.765782,3.79102162 187.607104,4.02113883 187.993958,4.7208406 L195.806853,18.8468168 C196.194189,19.547038 195.98072,20.4519233 195.329685,20.8685238" id="Fill-55" fill="#EBB044"></path>
            <path d="M242.685489,21.9027259 L243.900241,22.7312572 C244.611718,23.2167564 245.577328,23.0262953 246.057138,22.3063823 L254.734652,9.27974706 C255.213963,8.55983412 255.026233,7.58226812 254.314257,7.09727414 L253.100004,6.26874275 C252.388528,5.78324357 251.422418,5.97370475 250.943108,6.69361769 L242.265593,19.7202529 C241.785784,20.4401659 241.974013,21.4177319 242.685489,21.9027259" id="Fill-56" fill="#EBB044"></path>
            <path d="M186.20511,157.598406 L194.280431,158 L199,152.985102 L196.425059,151 L191.018376,152.750915 L189.503355,151.798157 L184,153.744381 C184,153.744381 186.314175,157.598863 186.20511,157.598406" id="Fill-57" fill="#E1CFB5"></path>
            <polyline id="Fill-58" fill="#145566" points="137.481462 135 163.428811 156.92475 185.613119 151.829511 189 158.202735 163.043043 170 154.347647 167.321862 132 145.619018 137.481462 135"></polyline>
            <path d="M428.118595,57.6366752 C427.956732,57.8377021 427.661858,57.8685164 427.460874,57.7061298 C425.16203,55.8450417 422.27686,54.9910444 419.334476,55.3006551 C416.39307,55.610755 413.748005,57.0477791 411.887315,59.3471154 C410.026625,61.6469409 409.17281,64.5337062 409.482355,67.4757416 C409.509739,67.7325277 409.323426,67.9624124 409.066206,67.9898029 L409.015837,67.9922485 C408.779645,67.9917594 408.577683,67.813721 408.552254,67.5735649 C408.216303,64.3830583 409.142492,61.2527131 411.160643,58.7587084 C413.178795,56.2651928 416.046849,54.7063787 419.236673,54.3703557 C422.426497,54.0338435 425.556173,54.9607192 428.049644,56.9788136 C428.250139,57.1412003 428.281436,57.4361375 428.118595,57.6366752 Z M389.195211,67.763342 C389.143864,67.7809502 389.092029,67.7892652 389.040683,67.7892652 C388.847523,67.7887761 388.667078,67.6674752 388.600083,67.4747633 C386.813723,62.3263237 381.211115,59.5706417 376.054485,61.2683648 L375.989447,61.2889077 L375.900447,61.3172765 C375.656919,61.4023827 375.389918,61.2727669 375.305319,61.0286978 C375.258863,60.895169 375.278912,60.7552817 375.34444,60.6418067 C374.395757,56.5748035 371.389313,53.229247 367.434674,51.8690142 C361.079965,49.6836419 354.131108,53.0766427 351.946203,59.4331999 C351.862093,59.6777582 351.59607,59.8078631 351.351564,59.7237351 C351.107548,59.6396071 350.977959,59.3735277 351.06158,59.1294586 C353.414216,52.2847632 360.895608,48.6310633 367.738839,50.9846917 C371.936028,52.4280743 375.141011,55.9477562 376.209991,60.2417094 C381.722621,58.6833844 387.581472,61.6860703 389.483728,67.1680873 C389.568327,67.4121564 389.439228,67.6787249 389.195211,67.763342 Z M441.043666,44.1757017 C441.064205,35.4977978 434.049819,28.4447387 425.373283,28.4202829 C424.20161,28.4173482 422.442635,29.0517322 421.365342,28.4256632 C420.46556,27.9027977 420.132543,26.6570181 419.442058,25.9233435 C418.599002,25.0287495 417.635649,24.2471414 416.585251,23.6083554 C414.467341,22.3205118 412.012502,21.6342814 409.53419,21.6274338 C407.509681,21.6220535 405.588354,22.0588345 403.857741,22.8443555 L403.828889,22.8580507 L403.821554,22.8604963 C403.712015,22.9108753 403.602477,22.9622326 403.493916,23.0155462 L403.479735,23.0023401 C402.088496,23.6147139 396.983213,26.2525188 396.562174,32.0509942 C399.568129,31.9546383 402.587777,33.1143334 404.765836,35.4620923 C406.977147,33.2943282 410.164037,32.3405512 413.21107,32.9695549 C415.657107,33.4743231 417.760347,34.9015649 419.133003,36.9891138 C420.505659,39.0756846 420.983913,41.572624 420.479252,44.0196735 C420.433285,44.2407542 420.23817,44.3933585 420.020559,44.3923803 L419.926669,44.3825979 C419.67385,44.3307516 419.511009,44.0832587 419.562844,43.8303855 C420.500769,39.2845373 417.566698,34.8237953 413.021822,33.88567 C410.125405,33.2874806 407.088153,34.2764741 405.094452,36.464781 C404.920853,36.6555364 404.624511,36.6692317 404.433797,36.4951062 L404.369247,36.4232061 C400.88406,32.3185409 394.710775,31.8069251 390.598186,35.2869886 C390.401114,35.4537773 390.10624,35.4293215 389.938998,35.2317185 C389.772245,35.0346045 389.797184,34.7396673 389.994256,34.5728786 C391.649561,33.1720491 393.610009,32.3640288 395.616914,32.1219161 C395.972425,26.1918684 400.773054,23.2713541 402.711497,22.3288268 C399.475217,19.6381972 395.321062,18.0128633 390.783521,18.0000728 C384.071834,17.9815598 378.176797,21.4934159 374.846626,26.7846775 C373.726789,26.5391411 372.565386,26.4046341 371.372686,26.4012102 C365.506989,26.3845803 359.968442,29.6151944 357.086206,34.7240156 C356.359045,36.0128374 355.876391,37.3608423 355.48078,38.77928 C355.427478,38.9705245 355.363417,39.1417153 355.291044,39.2977434 C358.665714,38.0431598 363.373431,37.1118821 368.53544,38.5337435 C368.784347,38.602709 368.930561,38.8599842 368.862099,39.1089445 C368.793638,39.3579048 368.536907,39.5041506 368.287022,39.4356743 C357.525339,36.4716286 348.627769,44.1150513 348.539258,44.1928208 C348.471774,44.2520039 348.392065,44.2877094 348.309911,44.3018937 C347.153398,45.2106721 346.086863,46.227056 345.179746,47.4293043 C342.486758,50.9998543 341.012877,55.400924 341.000081,59.8724265 C340.968377,71.3524785 350.246887,80.6853093 361.724972,80.7171018 C363.018897,80.7205257 364.39351,79.9863619 365.650759,80.4138496 C364.973478,78.5498269 364.594493,76.2108721 365.357841,73.7496381 C365.434127,73.5031235 365.696237,73.3647035 365.942699,73.4414948 C366.18965,73.5182861 366.327062,73.7799634 366.250776,74.0269672 C364.674691,79.1103543 368.618572,83.8420668 368.658182,83.889022 C368.707083,83.9467377 368.737401,84.0127684 368.754028,84.0812447 C369.443535,84.9416005 370.191234,85.6165812 371.18784,86.2304224 C373.900388,87.9022224 377.068696,88.8105116 380.255097,88.8193157 C382.954442,88.8266524 385.509529,88.2152569 387.790769,87.1211034 L387.879769,87.0545836 C394.853077,83.1470323 395.894183,75.4189926 395.903475,75.341223 C395.935749,75.084926 396.16803,74.9024856 396.42525,74.9347673 C396.681493,74.967049 396.863405,75.1998684 396.831619,75.4561654 C396.794943,75.7550156 395.953354,82.0744 390.551729,86.3825376 C393.785565,90.1096048 398.547562,92.4759502 403.868499,92.4906237 C406.458795,92.4979604 409.14836,91.7447211 411.599287,90.7870311 C414.184692,89.7765166 416.060053,93.6190153 417.041988,95.2722289 C418.488485,97.7070505 419.274816,100.701421 421.337468,102.734189 C424.31066,105.664975 427.536671,103.058473 427.887781,99.4742282 C428.088765,97.4248303 428.032529,95.3627154 427.792913,93.3191869 C427.675061,92.3140526 427.466253,91.1568031 427.92299,90.2020479 C428.468727,89.0619174 429.508856,89.2414232 430.596418,88.984637 C432.684987,88.4920968 434.65326,87.5280483 436.327147,86.1854236 C439.73018,83.4551757 441.7542,79.2590457 441.765937,74.895638 C441.770827,73.2057407 441.482799,71.5848088 440.956133,70.0753954 C440.244621,70.3810932 438.792745,70.892709 436.799533,71.0277052 C436.487543,71.0487372 436.154037,71.0609651 435.80146,71.0594977 C433.228279,71.0526501 429.629152,70.3576156 425.665712,67.5481308 C425.455437,67.3989503 425.405557,67.1069478 425.554706,66.8961386 C425.704344,66.6853294 425.995795,66.6359286 426.206559,66.7851092 C434.376968,72.577226 440.928748,69.0609679 440.993787,69.0247733 C441.03682,69.0008066 441.082298,68.9866223 441.127776,68.977329 C445.766053,66.8017391 448.984729,62.096439 448.999944,56.6325192 C449.015537,51.1089272 445.751383,46.3449331 441.043666,44.1757017 L441.043666,44.1757017 Z" id="Fill-59" fill="#EAC5B0"></path>
            <polyline id="Fill-60" fill="#A39372" points="325.802145 135.393145 321 131.520565 322.298018 129 326.078974 130.783306 326.228982 129.25121 330 133.162742 328.947106 136 325.802145 135.393145"></polyline>
            <polyline id="Fill-61" fill="#145566" points="374.65446 127 354.68834 139.745252 328.939495 130.759313 327 135.751501 355.014155 153 383 142.817894 374.65446 127"></polyline>
            <polyline id="Fill-62" fill="#1A3151" points="374 283.770076 374 286.5 366.666667 290 363 286.5 366.666667 283 367.139673 283 367.257551 283.770076 374 283.770076"></polyline>
            <polyline id="Fill-63" fill="#1A3151" points="374 284 367.120278 284 367 283 374 283 374 284"></polyline>
            <path d="M384.243016,125 C391.853354,125.461908 399.653879,129.489188 401.83718,136.966482 C402.017281,137.582521 402.15752,138.212617 402.208428,138.852406 C402.512918,142.69405 401.349708,145.531903 402.448082,149.390995 C403.402376,152.743587 404.26734,156.145618 404.902255,159.576245 C405.82149,164.541882 406.670124,169.484739 407.338658,174.414024 C408.078753,179.873559 408.600805,185.316614 408.751609,190.728165 C408.768418,191.326755 408.888005,192.999416 408.954763,194.998273 C409.095001,199.18453 409.005191,204.78414 407.258454,204.993526 C406.931391,205.032785 406.615854,204.886409 406.328173,204.74585 C404.081476,203.644152 402.311206,202.205596 400.330097,200.948797 C399.633707,200.507246 398.911383,200.087505 398.132387,199.712841 C396.571514,198.963027 394.904501,198.391579 393.194264,197.93888 C396.070113,198.090103 396.427914,197.552583 396.427914,197.552583 C396.427914,197.552583 393.833502,187.037744 392.011843,177.890697 C391.073398,173.177098 390.339547,168.826531 390.272309,166.467066 C390.070116,159.370737 389.170093,135.933125 389.170093,135.933125 L384.805411,126.968806 L384,126.976561 C384.057632,126.969775 384.115745,126.962505 384.173857,126.955719 C384.092212,126.190396 384.126791,125.555453 384.243016,125" id="Fill-64" fill="#145566"></path>
            <path d="M351.051401,199.930873 C351.522373,195.227655 352.011577,190.525418 352.609155,185.835445 C353.800259,176.481005 355.422329,167.14864 358.16663,158.093425 C359.214923,154.633704 360.424259,151.222547 361.633088,147.812371 C363.105257,143.66002 364.577425,139.507669 366.049594,135.355318 C367.879297,130.194434 370.966951,126.558613 376.374019,124.752966 C377.339765,124.430687 378.356154,124.181987 379.403941,124 C379.429262,124.106445 379.453064,124.214853 379.467244,124.328656 C379.53004,124.824584 379.676396,125.373979 380,125.733539 L376.450995,125.766405 C376.450995,125.766405 366.438526,159.659692 366.070357,165.500944 C365.930585,167.721581 365.465183,172.569015 364.94762,177.67545 C364.128735,185.75696 363.178181,194.487933 363.178181,194.487933 C363.178181,194.487933 367.574431,194.588492 373.933571,195.04763 C373.463105,195.037329 372.992639,195.025065 372.52268,195.021141 C368.09959,194.98337 363.511913,196.803243 359.277213,197.983462 C358.972853,198.067834 358.670013,198.150243 358.369705,198.227256 C356.644325,198.670697 355.24103,199.888687 353.807856,200.843752 C351.691012,202.254522 350.76274,202.813237 351.051401,199.930873" id="Fill-65" fill="#145566"></path>
            <path d="M360.308592,197.959582 C364.424135,196.780684 368.882722,194.962849 373.181354,195 C373.638089,195.004498 374.095317,195.016747 374.552545,195.027037 C374.934963,195.055456 375.324763,195.085345 375.720962,195.116704 C378.601645,195.343566 381.838169,195.646375 385.216931,196.04816 C385.382793,196.06776 385.548163,196.086869 385.715009,196.106958 C390.036772,197.027635 392.842646,197.387772 394.664667,197.482339 C396.416799,197.939982 398.125129,198.517672 399.724688,199.276164 C400.522991,199.654431 401.263218,200.078756 401.976868,200.525619 L402,205.122634 L393.760054,283.205249 L387.0045,283.205249 L387.0045,284 L386.965618,284 L379.537757,231.625782 L379.50675,231.330813 L375.437471,284 L375.398589,284 L375.398589,283.205249 L368.610059,283.205249 L360,224.554356 L360.308592,197.959582" id="Fill-66" fill="#145566"></path>
            <polyline id="Fill-67" fill="#1A3151" points="392.827003 283 393.333333 283 397 286.5 393.333333 290 386 286.5 386 283.770076 392.742449 283.770076 392.827003 283"></polyline>
            <polyline id="Fill-68" fill="#1A3151" points="393 283 392.913303 284 386 284 386 283 393 283"></polyline>
            <path d="M364,194.948863 C364,194.948863 368.161376,195.049628 374.181468,195.509706 C374.553978,195.538215 374.93368,195.568199 375.320094,195.599658 C378.125666,195.827239 381.27834,196.131009 384.569567,196.533578 C384.731132,196.553731 384.892217,196.572901 385.054262,196.593054 C389.264539,197.516651 391.997719,197.877931 393.772057,197.972798 C396.642831,198.126157 397,197.581043 397,197.581043 C397,197.581043 394.410167,186.917641 392.591722,177.641849 C391.654933,172.861161 390.922377,168.449126 390.855258,166.056324 C390.653422,158.859733 389.754987,135.090975 389.754987,135.090975 L385.398007,126 L384.594017,126.007865 C383.483198,126.142546 382.37238,126.277227 381.26204,126.411908 C380.974867,126.446807 380.677146,126.480232 380.402438,126.387823 C380.264364,126.341127 380.144989,126.268379 380.041434,126.176462 L379.924455,126.053578 L376.564671,126.08651 C376.564671,126.08651 367.085555,160.049252 366.737495,165.902473 C366.605175,168.127661 366.164587,172.985028 365.674618,178.101927 C364.899394,186.199998 364,194.948863 364,194.948863" id="Fill-69" fill="#F1F1F1"></path>
            <path d="M373.538795,114.308505 C373.768122,113.410389 373.327611,112.496381 373.118444,111.592967 C373.066026,111.364706 373.055946,111.129221 373.071066,110.890847 C374.749444,110.613466 376.443446,110.017772 377.676777,109.503462 C380.244745,108.432464 385.245605,107.291639 387.911856,108.556707 C390.020161,109.556915 389.372498,112.746312 389.266655,114.763583 C389.238934,115.282227 389.1971,115.810021 389.322601,116.314218 C389.451125,116.833344 389.789321,117.183922 390,117.620701 C389.765128,118.406613 389.379555,119.153037 388.752557,119.829634 C387.063091,121.651871 385.344392,122.548061 384.88876,124.605302 C384.766788,125.157174 384.730499,125.788022 384.816182,126.548412 C384.755196,126.555153 384.69421,126.562377 384.633728,126.569119 C383.46592,126.701067 382.298111,126.833016 381.130807,126.964964 C380.828901,126.999155 380.515906,127.031902 380.227104,126.941368 C380.081947,126.895619 379.956447,126.824348 379.847579,126.734295 L379.724599,126.613904 C379.402028,126.260918 379.256871,125.721567 379.194373,125.234706 C379.18026,125.122983 379.157076,125.016557 379.131371,124.912058 C378.674731,123.034441 376.503928,122.188815 375.334608,120.523086 C374.009043,118.635837 373.315011,116.436054 373.015121,114.196301 L373,114.081689 C373.171366,114.171259 373.350796,114.247828 373.538795,114.308505" id="Fill-70" fill="#E1CFB5"></path>
            <path d="M365.002296,103.505821 C364.926089,105.823133 366.757073,109.587014 369.008456,110.531122 C369.446015,110.715021 369.930509,110.822657 370.442761,110.874785 C370.916152,112.131182 371.708502,113.347518 372.865736,113.952307 C373.037328,114.042084 373.216994,114.118829 373.40524,114.179645 C373.634871,113.279461 373.193779,112.363348 372.984336,111.457854 C372.931849,111.229067 372.921756,110.99304 372.936896,110.754117 C374.617485,110.476098 376.313719,109.879031 377.548674,109.363537 C380.120026,108.290073 385.127475,107.146621 387.797239,108.414602 C389.908321,109.417114 389.259806,112.613855 389.153822,114.635771 C389.126065,115.15561 389.084176,115.684619 389.209842,116.189977 C389.338536,116.710298 389.677177,117.061684 389.888134,117.499468 C389.961817,117.652476 390.02036,117.815136 390.048623,118 C391.777156,117.257649 392.822856,115.393567 393.79891,113.877975 C394.287441,113.120179 394.743673,112.328595 395.103511,111.46799 C396.709407,107.622536 396.117416,102.438631 393.651543,98.7519771 C392.939942,97.6876838 392.072899,96.7324745 391.053948,96.1378217 C388.613309,94.7139371 385.215794,94.5831328 382.585899,93.6071686 C378.887594,92.2339647 377.007656,93.4720202 373.515766,94.544519 C372.119817,94.9736151 370.515435,95.3457557 369.776077,96.6103583 C369.36779,97.3087857 369.307228,98.1708392 368.895408,98.8673359 C368.364483,99.7641418 367.357139,100.232334 366.483536,100.796579 C365.470135,101.451566 365.037623,102.420773 365.002296,103.505821" id="Fill-71" fill="#1A3151"></path>
            <polyline id="Fill-72" fill="#E1CFB5" points="428.993925 102.29683 430 96.4764649 427.114684 96 425.395271 99.8549472 424.152538 99.0869356 424 104.157541 426.921768 105 428.993925 102.29683"></polyline>
            <polyline id="Fill-73" fill="#145566" points="391 131.757865 414.181458 126.033556 424.919523 102 430 103.902882 423.948336 134.944682 397.244701 148 391 131.757865"></polyline>
            <polyline id="Fill-74" fill="#1A3151" points="335.695274 284.1216 336 287.24369 330.304883 291 327 288.19551 329.695431 284.75631 335.390078 281 335.695274 284.1216"></polyline>
            <polyline id="Fill-75" fill="#1A3151" points="337.026922 188.548178 338 197.969224 329.450673 240.069536 337.021972 282.144037 330.895441 284 311.086422 233.974224 310 218.680914 312.682647 187 337.026922 188.548178"></polyline>
            <polyline id="Fill-76" fill="#1A3151" points="291.189333 191.754597 291 231.634629 298.681106 283 304.328193 282.960961 307.583578 235.494632 315 188 291.189333 191.754597"></polyline>
            <polyline id="Fill-77" fill="#1A3151" points="304 285.476649 298.02015 289 295 285.546703 297.97985 282.046703 303.97985 282 304 285.476649"></polyline>
            <path d="M286.149004,186.609592 C290.363631,173.753099 290.812625,160.25281 292.038725,146.859416 C292.401868,142.908206 292.7882,138.869052 294.458361,135.258447 C296.376208,131.112398 299.547293,128.923976 303.241382,127.728702 C307.942994,126.206913 313.491775,126.294372 318.38088,126.000898 C323.019337,125.857076 327.122949,143.029191 331.854659,151.353357 C334.754373,156.454654 337.742406,160.966574 339.698245,166.531404 C341.575634,171.871756 343.378026,177.30637 344.470414,182.863426 C346.119358,191.2527 350.336452,197.111005 346.308824,199.965088 C345.939267,200.085101 345.584019,200.204143 345.246533,200.323185 C338.639901,202.65397 331.803838,204.378859 324.842452,205.284061 C318.667052,206.086256 312.39544,206.232507 306.194383,205.630496 C297.706416,204.806923 289.482911,203.626225 282,199.266873 C283.383001,195.047941 284.766003,190.82901 286.149004,186.609592" id="Fill-78" fill="#3ABABA"></path>
            <polyline id="Fill-79" fill="#145566" points="254 113.875614 279.986594 101 328 196.124386 302.013406 209 254 113.875614"></polyline>
            <polyline id="Fill-80" fill="#E1CFB5" points="280 101.874566 255.389658 85 254 115 280 101.874566"></polyline>
            <polyline id="Fill-81" fill="#1A3151" points="264 91.1874092 255.480954 85 255 96 264 91.1874092"></polyline>
            <path d="M312.159192,220.614076 L331.884669,211.210431 C333.774249,210.309517 334.540214,208.118442 333.595173,206.317092 L328.568999,197 L302,209.666349 L307.026174,218.983441 C307.971215,220.784791 310.26911,221.51499 312.159192,220.614076" id="Fill-82" fill="#B5B7B8"></path>
            <polyline id="Fill-83" fill="#FFFFFF" points="301.574363 211 328 197.171187 325.528412 192 299 205.613717 301.574363 211"></polyline>
            <polyline id="Fill-84" fill="#A39372" points="320.612933 177.865533 315.883714 182 314 180.087312 316.601858 176.550681 315.284686 176.052646 319.769273 173 322 174.728105 320.612933 177.865533"></polyline>
            <polyline id="Fill-85" fill="#3ABABA" points="320.028219 141.8877 328.349962 151.614568 316 172.750344 320.690729 176 346 152.338951 326.307767 125 320.028219 141.8877"></polyline>
            <path d="M319.557551,113.14138 C316.82961,105.345493 304.811085,102.630337 302.017441,111.690983 C301.178074,114.413854 300.672315,117.302595 301.243268,120.087185 C301.81422,122.871775 303.611626,125.543535 306.354847,126.684855 L306.401704,126.703178 C306.294746,127.425966 306.187788,128.148754 306.080321,128.871542 C306.057401,129.026804 306.038047,129.197978 306.130235,129.328166 C306.235665,129.476195 306.443978,129.515252 306.630391,129.541772 C307.541572,129.670514 308.452753,129.799256 309.363935,129.927998 C309.815705,129.991646 310.286321,130.054329 310.721284,129.922212 C311.673211,129.633868 312.068956,128.553785 312.110721,127.60823 C312.120907,127.382087 312.11836,127.153534 312.114795,126.924498 C317.50803,125.175631 321.340696,118.238024 319.557551,113.14138" id="Fill-86" fill="#A39372"></path>
            <path d="M307.230764,99.0312746 C305.089955,98.7277191 303.267221,100.708395 301.29189,101.748616 C299.649002,102.613891 297.786137,102.843686 296.082804,103.560493 C294.379967,104.278245 292.705865,105.774746 292.670194,107.649035 C290.944566,106.791798 289.074765,105.912811 287.141051,106.268378 C285.207338,106.623945 283.412348,108.827322 284.182762,110.643454 C284.872914,112.269982 287.095966,112.652973 287.835662,114.253968 C289.005403,116.786434 285.842,120.719416 288.00114,122.398901 C288.519869,122.802696 289.225875,122.900571 289.736181,123.316187 C290.369357,123.832515 290.572984,124.719067 290.854891,125.507744 C292.133133,129.081377 295.907913,131.415728 299.63612,130.938172 C301.954297,129.901261 303.802795,127.760296 304.63068,125.308684 C305.628997,122.353982 303.972732,121.322272 303.693302,118.548663 C303.387614,115.517364 304.397822,112.306863 306.397429,109.952653 C307.698958,108.42069 309.561327,107.100555 311.528731,106.921353 C312.328871,106.848538 312.077186,107.485437 312.97691,106.894402 C313.363356,106.640966 313.890507,105.682544 314,105.222483 C311.846805,103.569949 310.046861,99.431287 307.230764,99.0312746" id="Fill-87" fill="#1A3151"></path>
            <path d="M329.129516,103.089287 C330.222981,103.390031 331.410145,103.346375 332.45161,103.797976 C334.016507,104.476106 333.921338,106.081693 334.364317,107.476759 C334.85488,109.021227 335.567669,111.094423 336.597851,112.29546 C337.340074,113.160827 338.379087,113.654145 339.283195,114.322089 C340.187794,114.990032 341.018808,115.976183 340.999676,117.18013 C340.981525,118.320533 340.205945,119.345004 340.092624,120.483952 C339.954286,122.182188 340.251076,123.051921 339.721759,124.787992 C339.448515,125.683434 339.142894,126.632234 338.462973,127.242939 C337.566714,128.048158 336.290759,128.032636 335.169822,127.847338 C334.048885,127.662041 332.890665,127.354506 331.785426,127.72219 C329.388533,128.519163 329.835927,130.916386 329.198195,132.925552 C328.226879,135.982473 324.642333,137.766566 321.899594,136.679521 C319.574324,135.757885 318.228218,133.088051 318.333199,130.452173 C318.385689,129.132778 318.916969,127.903122 318.955724,126.582272 C318.993006,125.308474 318.266973,123.544754 319.434023,122.533865 C319.71904,122.287448 320.083038,122.157449 320.339112,121.877078 C320.545639,121.650064 320.660431,121.345925 320.732053,121.04227 C320.980278,119.989665 320.74628,118.8415 320.118359,118.035311 C319.667531,117.456136 319.020968,117.032668 318.744781,116.334165 C318.427877,115.533312 318.678555,114.596639 318.732027,113.711869 C318.861535,111.572703 317.678297,109.474769 315.876458,108.648692 C314.688804,108.104442 313.618395,107.783324 312.580363,106.955307 C312.422402,106.829188 310.06083,104.765209 310,105.21099 C310.105962,104.43536 310.564148,103.755775 311.028221,103.132943 C311.791537,102.109442 312.639231,101.112135 313.714055,100.499005 C317.190677,98.5160324 317.358449,103.124212 320.148774,102.517873 C320.821826,102.371866 321.328578,101.761646 321.934424,101.397357 C323.078908,100.709526 324.484863,100.955457 325.654856,101.471088 C326.82534,101.986719 327.897711,102.750222 329.129516,103.089287" id="Fill-88" fill="#1A3151"></path>
            <polyline id="Fill-89" fill="#A39372" points="284 174.724607 287.106169 174 291 177.255148 288.05839 181 285.11589 178.375303 284 174.724607"></polyline>
        </g>
    </g>
</svg>