<svg width="815" height="475" viewBox="0 0 815 475" fill="none" xmlns="http://www.w3.org/2000/svg">
<path d="M0 65.9181L233.454 430.389H814.117L543.12 65.9181H0Z" fill="url(#paint0_linear)"/>
<path d="M264.134 65.9181H438.02L710.963 426.547H495.077L264.134 65.9181Z" fill="url(#paint1_linear)"/>
<path d="M376.968 65.9181H358.119V231.251H376.968V65.9181Z" fill="url(#paint2_linear)"/>
<path d="M725.919 312.381C723.768 298.911 715.829 264.748 679.515 283.699C663.279 292.201 613.751 352.28 572.11 353.459C557.001 353.919 549.164 372.051 547.525 378.76C545.015 388.953 521.865 392.743 514.284 400.016C506.755 407.34 510.443 404.984 505.475 411.182C495.897 423.218 478.944 436.074 478.944 436.074L528.728 444.013C528.728 444.013 695.905 447.035 705.278 442.066C738.211 424.755 731.092 344.803 725.919 312.381Z" fill="url(#paint3_linear)"/>
<path d="M306.03 18.2338C304.34 18.2338 302.752 18.4386 301.164 18.7972C299.884 8.19495 290.818 0 279.909 0C269.05 0 260.036 8.09252 258.653 18.5923C257.373 18.3362 256.092 18.2338 254.76 18.2338C242.929 18.2338 233.3 27.8116 233.3 39.6943H327.439C327.491 27.8628 317.862 18.2338 306.03 18.2338Z" fill="#99D6FF"/>
<path d="M457.381 96.8029C456.203 96.8029 455.076 96.9566 453.949 97.2126C453.027 89.7348 446.676 83.9983 438.993 83.9983C431.31 83.9983 425.011 89.6835 424.037 97.1102C423.167 96.9566 422.245 96.8541 421.323 96.8541C412.974 96.8541 406.213 103.615 406.213 111.964H472.49C472.49 103.564 465.729 96.8029 457.381 96.8029Z" fill="white"/>
<path d="M333.125 260.651C333.125 260.651 325.288 235.861 308.95 246.002C308.95 246.002 292.713 218.395 269.306 246.412C269.306 246.412 250.97 243.953 249.792 260.651H333.125Z" fill="url(#paint4_linear)"/>
<path d="M442.783 103.205H435.203V187.664H442.783V103.205Z" fill="url(#paint5_linear)"/>
<path d="M388.902 65.9181H381.833V211.686H388.902V65.9181Z" fill="url(#paint6_linear)"/>
<path fill-rule="evenodd" clip-rule="evenodd" d="M75.7009 386.546V385.316L82.7178 388.953C84.3056 384.958 85.8933 380.707 87.4811 376.148L74.9326 372.922V371.692C74.9326 371.692 80.8227 373.178 87.8396 374.919C88.3006 373.434 88.864 371.948 89.325 370.412L74.8814 367.492L75.6496 364.317C75.6496 364.317 82.6666 365.648 90.4006 367.083C91.0664 364.778 91.8347 362.473 92.4493 360.066C93.7298 355.661 94.6517 351.051 95.2663 346.39L78.313 347.005V343.368L95.8809 341.012C96.3931 335.43 96.5468 329.847 96.3931 324.366L81.13 326.313V325.083L96.3419 322.42C96.1882 316.735 95.7273 311.152 95.0614 305.928L80.6178 313.15V311.92C80.6178 311.92 87.8396 308.335 95.0102 304.852C94.8053 303.264 94.6005 301.677 94.3956 300.14L80.6178 307.72L81.1812 304.084C81.1812 304.084 87.3274 300.396 93.8322 296.657C92.7054 289.692 91.4249 283.545 90.2981 278.782L82.4105 286.004V282.367L89.4274 275.197C88.3006 270.843 87.5323 268.282 87.5323 268.282C87.5323 268.282 69.0425 273.763 56.033 312.228C42.9723 350.693 54.7525 391.463 53.8306 392.999C52.9599 394.536 65.6108 423.577 65.6108 423.577C65.6108 423.577 73.4985 411.438 82.1544 390.028L75.7009 386.546Z" fill="#58998B"/>
<path fill-rule="evenodd" clip-rule="evenodd" d="M66.8913 309.512C61.8207 241.289 26.5824 172.912 26.5824 172.912C26.5824 172.912 19.6167 182.336 16.1338 209.533L32.6262 226.487V230.123L15.5704 214.553C14.9046 221.058 14.3924 228.433 14.2387 236.782C22.28 241.391 33.8042 248.203 33.8042 248.203L34.3676 251.84L14.1363 240.623C14.1363 242.364 14.1363 244.26 14.1363 246.103C22.4849 250.201 34.3676 256.04 34.3676 256.04V257.269L14.1875 247.384C14.2387 251.481 14.3412 255.784 14.546 260.291C14.6485 262.186 14.7509 264.132 14.8533 265.976L33.8042 269.254V270.483L15.007 268.076C15.4168 273.864 16.0314 279.447 16.6972 284.876L36.6724 287.59V291.227L17.4143 290.356C18.5411 297.834 19.924 304.953 21.4605 311.714C30.3213 310.075 39.387 308.385 39.387 308.385L40.1553 311.561L22.28 315.197C22.6386 316.785 23.0995 318.373 23.458 319.96C32.0115 317.758 40.1553 315.76 40.1553 315.76V316.99L23.8166 321.241C25.097 326.26 26.4287 330.972 27.8116 335.428L39.4382 329.436V330.665L28.2726 336.862C35.9041 361.652 43.8942 378.349 44.0479 384.854C44.2527 392.742 66.8913 423.934 66.8913 423.934C66.8913 423.934 71.9619 377.735 66.8913 309.512Z" fill="#70AE81"/>
<path fill-rule="evenodd" clip-rule="evenodd" d="M68.3254 334.148C68.0181 326.26 67.5059 318.117 66.8913 309.512C61.8207 241.289 26.5824 172.912 26.5824 172.912C26.5824 172.912 19.6167 182.336 16.1338 209.533L32.6261 226.487V230.123L15.5704 214.553C14.9046 221.058 14.3924 228.433 14.2387 236.782C22.28 241.391 33.8042 248.203 33.8042 248.203L34.3676 251.84L14.1363 240.623C14.1363 242.364 14.1363 244.26 14.1363 246.103C22.4849 250.201 34.3676 256.04 34.3676 256.04V257.269L14.1875 247.384C14.2387 251.481 14.3412 255.784 14.546 260.291C14.6485 262.186 14.7509 264.132 14.8533 265.976L33.8042 269.254V270.483L15.007 268.076C15.4168 273.864 16.0314 279.447 16.6972 284.876L36.6724 287.59V291.227L17.4143 290.356C17.6704 292.2 17.9777 294.095 18.3362 295.888L35.5456 309.051C37.9017 308.641 39.387 308.283 39.387 308.283L40.1553 311.458L39.0797 311.663L68.3254 334.148Z" fill="#8CC8B0"/>
<path fill-rule="evenodd" clip-rule="evenodd" d="M66.8913 374.509L59.4646 381.424L58.0817 372.153L68.1205 362.37L67.301 358.222L57.4671 367.851L56.9549 364.778L67.5059 354.534L66.7376 350.437L56.3403 360.527L51.4745 327.952L59.1061 321.191L58.5427 319.706L51.2185 326.21L38.0041 237.295L57.2622 397.967L62.0768 399.145L59.9256 384.599L67.5059 377.531L66.8913 374.509Z" fill="#5B926A"/>
<path d="M16.185 209.535L17.9776 211.379C18.7459 205.847 19.6166 200.828 20.5898 196.32C22.9458 185.564 25.9165 177.933 27.4018 174.45C26.8897 173.374 26.5823 172.862 26.5823 172.862C26.5823 172.862 19.6166 182.338 16.185 209.535Z" fill="white"/>
<path d="M14.546 260.138C14.6485 262.034 14.7509 263.98 14.8533 265.824L16.5948 266.131C16.1338 259.882 15.8265 253.787 15.7753 248L14.1875 247.18C14.2387 251.38 14.3412 255.631 14.546 260.138Z" fill="white"/>
<path d="M27.8116 335.327L28.5799 334.969C27.5555 330.564 26.5312 325.852 25.4556 320.781L23.8678 321.191C25.097 326.159 26.4799 330.871 27.8116 335.327Z" fill="white"/>
<path d="M18.6435 285.031C17.7728 279.243 17.2094 273.66 16.7484 268.18L15.007 267.975C15.4168 273.763 16.0314 279.345 16.6972 284.774L18.6435 285.031Z" fill="white"/>
<path d="M22.3312 315.147C22.6898 316.735 23.1507 318.323 23.5093 319.91C24.0214 319.757 24.6361 319.654 25.1483 319.501C24.8409 317.964 24.5336 316.376 24.1239 314.789L22.3312 315.147Z" fill="white"/>
<path d="M14.2387 236.68C14.7509 236.988 15.3143 237.295 15.8265 237.654C16.0314 229.92 16.5948 222.749 17.3118 216.193L15.5192 214.554C14.9045 220.956 14.3924 228.332 14.2387 236.68Z" fill="white"/>
<path d="M28.8872 336.403L28.2214 336.761C29.1945 339.886 30.1677 342.907 31.1408 345.776C30.4238 342.805 29.6555 339.681 28.8872 336.403Z" fill="white"/>
<path d="M23.458 311.306C22.6897 307.618 21.9727 303.879 21.1532 299.884C20.5386 296.708 19.9752 293.533 19.463 290.357L17.4655 290.306C18.5923 297.784 19.9752 304.903 21.5117 311.664C22.1776 311.511 22.7922 311.408 23.458 311.306Z" fill="white"/>
<path d="M15.7753 246.771C15.7753 244.978 15.7753 243.134 15.7753 241.393L14.1875 240.471C14.1875 242.212 14.1875 244.107 14.1875 245.951C14.7509 246.31 15.2119 246.514 15.7753 246.771Z" fill="white"/>
<path d="M94.2932 424.601H37.5944V431.567H94.2932V424.601Z" fill="#9EA7B3"/>
<path d="M94.2932 424.601H37.5944V426.65H94.2932V424.601Z" fill="#788495"/>
<path d="M99.5686 383.882H32.2164V424.601H99.5686V383.882Z" fill="url(#paint7_linear)"/>
<path d="M99.5686 383.882H32.2164V385.111H99.5686V383.882Z" fill="white"/>
<path fill-rule="evenodd" clip-rule="evenodd" d="M47.838 417.174V383.882H32.2164V401.245L47.838 417.174Z" fill="white"/>
<path d="M424.703 346.903C424.703 346.903 434.589 309.001 489.085 312.637C543.581 316.274 557.205 330.922 550.393 364.88C543.581 398.838 525.706 426.854 525.706 426.854H414.152L424.703 346.903Z" fill="#1F294C"/>
<path d="M414.46 351.615C414.46 351.615 424.345 313.713 478.841 317.349C533.338 320.986 546.962 335.634 540.15 369.592C533.338 403.55 515.462 431.567 515.462 431.567H403.909L414.46 351.615Z" fill="#324A6D"/>
<path d="M269.716 253.326H236.168V273.046H269.716V253.326Z" fill="#8F9EC5"/>
<path d="M270.997 319.911V251.38H272.329V319.962C271.304 319.962 271.253 319.962 270.997 319.911Z" fill="#7B98C2"/>
<path d="M335.583 403.601L305.313 403.55H242.571V106.893H335.378L335.583 403.601Z" fill="url(#paint8_linear)"/>
<path d="M285.338 184.95H255.017V388.646H285.338V184.95Z" fill="url(#paint9_linear)"/>
<path d="M244.056 65.9181H221.059V430.132H244.056V65.9181Z" fill="#C7EEFF"/>
<path d="M267.873 65.9181H248.768V434.281H267.873V65.9181Z" fill="#C7EEFF"/>
<path d="M331.281 158.521H312.176V212.249H331.281V158.521Z" fill="url(#paint10_linear)"/>
<path d="M334.712 75.6495H318.118V372.256H334.712V75.6495Z" fill="#C7EEFF"/>
<path d="M327.696 151.094H325.698V191.967H327.696V151.094Z" fill="#88D5FF"/>
<path d="M253.787 191.813H251.79V232.685H253.787V191.813Z" fill="#88D5FF"/>
<path d="M308.642 164.36H344.649C344.649 164.36 347.312 150.531 333.893 152.887C333.893 152.887 334.2 145.819 327.439 145.768C319.244 145.665 319.347 153.758 319.347 153.758C319.347 153.758 307.618 150.582 308.642 164.36Z" fill="#99D6FF"/>
<path d="M237.397 194.22H268.385C268.385 194.22 270.689 182.133 258.807 184.796C258.807 184.796 258.807 178.24 253.326 178.394C246.412 178.599 246.566 185.411 246.566 185.411C246.566 185.411 236.68 183.311 237.397 194.22Z" fill="white"/>
<path d="M293.584 242.109C294.574 242.109 295.377 241.307 295.377 240.317C295.377 239.327 294.574 238.524 293.584 238.524C292.594 238.524 291.791 239.327 291.791 240.317C291.791 241.307 292.594 242.109 293.584 242.109Z" fill="white"/>
<path d="M296.299 243.902C296.808 243.902 297.221 243.489 297.221 242.98C297.221 242.471 296.808 242.058 296.299 242.058C295.789 242.058 295.377 242.471 295.377 242.98C295.377 243.489 295.789 243.902 296.299 243.902Z" fill="white"/>
<path d="M428.135 270.485C428.34 270.177 441.042 267.514 441.042 267.514C441.042 267.514 421.886 293.123 412.104 293.379C409.235 293.43 428.135 270.485 428.135 270.485Z" fill="#4B0A10"/>
<path d="M414.152 309.052C414.152 309.052 453.232 320.935 455.434 322.215C457.637 323.547 484.066 357.658 490.519 386.699C496.768 414.767 500.251 424.396 495.692 424.396C491.134 424.396 385.88 424.038 385.88 424.038H307.925L334.559 330.564L362.934 315.711L414.152 309.052Z" fill="#F2F4F7"/>
<path d="M362.883 278.116L375.38 241.802L375.841 240.573C375.739 239.907 377.275 238.371 377.275 238.371C377.275 238.371 403.14 240.573 403.55 240.727C403.96 240.88 420.964 272.994 421.323 273.353C421.733 273.763 422.142 285.645 422.142 285.645L412.104 292.048L411.95 308.642C411.95 308.642 397.865 321.344 391.411 323.598C385.009 325.852 372.87 321.396 372.87 321.396C372.87 321.396 373.178 311.408 368.466 308.745C363.805 306.081 362.832 298.04 362.832 297.374C362.832 297.067 362.729 295.121 362.575 291.587L362.883 278.116Z" fill="#CC968D"/>
<path d="M391.258 335.122L398.377 390.643L391.565 407.955L379.785 407.647L372.358 389.619L383.268 334.712L391.258 335.122Z" fill="#305277"/>
<path d="M379.478 333.483L368.773 342.447L359.349 317.503L359.554 317.35L379.017 330.769L379.478 333.483Z" fill="#E2E2E2"/>
<path d="M406.623 289.948L400.118 319.142C400.118 319.142 385.777 330.41 373.434 322.42L372.153 314.686L401.245 299.781L406.623 289.948Z" fill="#A56E67"/>
<path d="M385.829 293.635C385.829 293.635 372.153 290.152 365.444 286.874C365.444 286.874 365.802 294.352 372.358 296.657C378.658 298.859 385.829 293.635 385.829 293.635Z" fill="white"/>
<path d="M408.211 265.465C408.211 265.465 404.523 256.144 402.679 251.483C400.836 246.822 392.128 243.646 386.699 243.134C381.27 242.622 374.612 244.005 374.612 244.005L375.38 241.7C375.38 241.7 379.734 235.759 390.797 238.115C401.86 240.471 408.723 247.949 408.723 248.153C408.723 248.358 408.211 265.465 408.211 265.465Z" fill="#A56E67"/>
<path d="M412.104 291.433C412.104 291.433 421.528 288.052 419.889 279.96C418.147 271.406 408.928 281.753 408.928 281.753C408.928 281.753 410.618 271.406 407.955 266.285C405.291 261.214 405.035 247.692 405.035 247.692C405.035 247.692 389.414 234.734 375.277 241.905L376.251 233.812C376.251 233.812 380.399 228.946 390.131 227.205C390.131 227.205 430.44 256.246 431.259 264.697C432.079 273.148 426.598 289.589 412.411 293.328L412.155 293.379V291.433H412.104Z" fill="#4B0A10"/>
<path d="M391.463 323.342L396.687 331.127L390.028 339.681L383.063 339.732L377.787 330.871L382.038 323.035L391.463 323.342Z" fill="#0D163D"/>
<path d="M382.038 323.035L372.153 341.729L359.553 317.349L367.236 312.842L374.1 317.964C374.1 317.964 379.426 322.266 382.038 323.035Z" fill="white"/>
<path d="M406.726 289.487L398.582 299.218C398.582 299.218 384.241 307.567 378.402 306.645C372.563 305.723 373.997 303.418 368.875 302.65C363.753 301.83 363.856 301.625 363.446 298.757C363.036 295.838 362.985 291.023 362.729 291.177C361.705 291.996 363.446 301.984 361.5 304.186C359.605 306.389 359.502 311.101 368.107 314.328C376.507 317.452 395.714 313.15 395.714 313.15L406.726 289.487Z" fill="#4B0A10"/>
<path d="M424.294 312.74L426.496 312.996L407.75 343.42L394.638 333.791L398.582 328.669L424.294 312.74Z" fill="#E2E2E2"/>
<path d="M404.626 403.601C404.216 403.601 394.997 404.933 391.719 404.677C386.699 404.267 372.102 399.76 372.102 399.76L352.229 404.267L336.147 415.945C336.147 415.945 335.481 416.662 336.3 418.403C337.171 420.145 340.961 417.891 340.961 417.891C340.961 417.891 337.837 420.452 337.376 421.63C336.915 422.808 339.681 424.089 340.859 423.73C342.037 423.372 347.312 419.274 347.312 419.274C347.312 419.274 343.42 423.218 343.266 424.191C343.112 425.164 345.366 426.701 347.005 425.881C348.644 425.062 355.507 420.094 355.507 420.094C355.507 420.094 350.744 424.345 351.205 426.137C351.615 427.93 354.278 427.213 355.968 426.035C357.658 424.857 367.748 417.021 367.748 417.021C367.748 417.021 384.651 421.067 388.133 420.042C391.616 419.018 393.05 420.298 394.587 420.503C401.297 421.477 407.289 420.811 407.289 420.811C407.289 420.811 408.672 403.601 404.626 403.601Z" fill="#CC968D"/>
<path d="M417.021 279.448L409.799 284.877L411.489 287.438L411.643 284.774L417.021 279.448Z" fill="#A56E67"/>
<path d="M386.085 270.485L400.067 272.38C400.067 272.38 393.306 265.055 390.694 264.697C388.133 264.338 385.726 268.794 386.085 270.485Z" fill="#A56E67"/>
<path d="M386.699 261.111L400.835 267.155L402.321 265.721C402.321 265.721 396.636 262.546 391.309 258.909C389.363 257.577 388.082 256.502 388.082 256.502L386.699 261.111Z" fill="#4B0A10"/>
<path d="M396.738 271.765L385.572 264.748L387.365 267.975L386.494 270.331L396.738 271.765Z" fill="#4B0A10"/>
<path d="M372.204 260.599C373.382 260.753 375.482 262.392 377.377 264.133C376.814 264.594 376.353 265.209 375.943 265.824C375.636 266.285 375.073 266.797 374.714 267.309L367.595 266.336C367.236 264.646 369.643 260.241 372.204 260.599Z" fill="#A56E67"/>
<path d="M366.98 260.036L376.148 265.721C375.943 265.977 375.739 266.233 375.585 266.49C375.534 266.541 375.482 266.592 375.482 266.643L367.8 265.568L368.773 263.468L366.98 260.036Z" fill="#4B0A10"/>
<path d="M377.531 282.214L376.712 280.472L370.566 276.375L369.439 276.528L367.492 276.887L369.9 279.909L377.531 282.214Z" fill="#A56E67"/>
<path d="M369.439 256.553C371.282 256.348 372.307 256.041 374.663 255.375C375.892 255.017 377.89 254.402 377.89 254.402L376.917 259.421L368.978 258.141L369.439 256.553Z" fill="#4B0A10"/>
<path d="M426.393 264.031L428.289 279.396C428.289 279.396 435.664 265.465 436.996 253.019L433.052 237.961L424.959 237.705L427.059 232.89C427.059 232.89 428.032 226.795 426.086 224.49L418.711 225.054L410.618 226.181L406.367 227.563L409.235 224.49C409.235 224.49 400.118 223.005 392.641 224.542C383.114 226.59 380.297 236.322 380.297 236.322L395.15 238.729C395.15 238.729 413.538 249.69 413.538 249.946C413.538 250.253 415.74 263.672 415.842 264.185C415.945 264.697 426.393 264.031 426.393 264.031Z" fill="#4B0A10"/>
<path d="M423.474 224.746C423.474 224.746 413.128 224.9 405.138 236.322C405.138 236.322 406.931 227.358 410.413 226.232C413.896 225.105 423.474 224.746 423.474 224.746Z" fill="#A5626A"/>
<path d="M404.165 223.978C400.17 224.644 393.767 225.361 389.158 233.044C389.158 233.044 388.953 229.919 392.589 226.539L381.577 229.919C381.577 229.919 387.57 224.9 395.201 224.081C401.348 223.466 404.165 223.978 404.165 223.978Z" fill="#A5626A"/>
<path d="M427.111 227.205C427.111 227.205 424.242 240.47 414.152 249.28C414.152 249.28 424.498 245.08 426.957 244.926C430.85 244.67 433.308 246.412 433.308 246.412C433.308 246.412 430.542 253.377 430.901 256.451C431.157 258.807 432.284 263.519 432.284 263.519C432.284 263.519 439.147 255.17 436.586 248.768C434.998 244.773 434.486 240.88 433.82 237.653C433.615 236.578 426.445 236.322 426.445 236.322C426.445 236.322 428.494 232.993 427.111 227.205Z" fill="#A5626A"/>
<path d="M432.181 263.826C432.181 263.57 438.123 252.661 438.123 252.661C438.123 252.661 438.174 263.98 432.642 269.563C427.162 275.094 431.925 267.565 432.028 267.36C432.181 267.155 432.181 263.826 432.181 263.826Z" fill="#4B0A10"/>
<path d="M380.246 260.395C379.836 260.651 367.492 276.887 367.492 276.887L370.566 276.375L380.246 260.395Z" fill="#D6ABA5"/>
<path d="M363.446 301.011L370.002 301.728L380.348 307.515H369.9L363.446 301.011Z" fill="#4B0A10"/>
<path d="M462.708 395.919C462.708 395.919 461.12 388.85 452.31 378.812C452.31 378.812 450.569 377.992 451.849 381.885C452.669 384.343 460.454 391.309 457.33 392.077C454.205 392.845 431.208 377.121 431.106 380.604C431.003 384.087 446.83 391.975 444.218 392.845C441.606 393.716 427.418 388.902 428.698 390.336C430.03 391.77 442.118 394.689 442.118 396.021C442.118 397.353 462.708 395.919 462.708 395.919Z" fill="#E2E2E2"/>
<path d="M413.026 318.22C413.026 318.22 452.976 320.525 456.049 324.008C459.122 327.491 473.105 347.159 469.366 346.083C465.678 345.007 445.293 335.942 452.259 341.883C459.225 347.773 476.28 357.607 477.151 361.551C478.022 365.495 457.586 353.561 459.686 357.453C461.376 360.578 490.57 384.241 490.57 384.241C490.57 384.241 489.034 378.863 485.346 369.9C481.658 360.936 469.366 336.249 456.51 322.062C456.51 322.062 417.738 308.642 414.101 307.925C410.413 307.157 413.026 318.22 413.026 318.22Z" fill="white"/>
<path d="M486.473 378.095L487.343 382.038C487.343 382.038 492.004 387.724 484.424 383.78C476.844 379.836 457.329 370.975 462.707 376.046C468.085 381.116 489.956 393.972 485.551 396.738C481.197 399.504 479.302 395.56 458.456 396.175C437.61 396.738 405.957 400.989 398.223 402.884C398.223 402.884 399.862 402.372 400.989 406.879C402.065 411.387 398.479 407.648 407.955 405.035C417.43 402.423 442.476 411.284 447.137 410.874C451.798 410.413 426.752 403.755 432.284 402.423C437.815 401.092 465.781 407.238 478.892 407.955C492.004 408.672 496.819 423.167 496.819 423.167L499.38 424.396C499.38 424.396 493.848 391.872 489.187 379.682L486.473 378.095Z" fill="white"/>
<path d="M411.848 307.925C411.848 307.925 400.836 319.808 391.411 323.342L404.011 343.01L426.496 312.996L412.001 300.601L411.848 307.925Z" fill="white"/>
<path d="M408.313 416.56L407.801 424.396H505.014C505.014 424.396 505.629 420.452 476.024 420.452C454.615 420.503 410.874 424.191 408.313 416.56Z" fill="#E2E2E2"/>
<path d="M442.425 355.661C442.425 355.661 459.737 390.182 460.761 392.487C461.785 394.792 459.02 394.075 459.02 394.075L457.995 389.721C457.995 389.721 450.722 382.294 446.932 375.431C443.142 368.619 438.788 352.434 442.425 355.661Z" fill="#E2E2E2"/>
<path d="M350.129 355.815C350.129 355.815 338.605 404.318 340.09 403.857C341.576 403.396 351.307 385.726 349.054 387.109C346.749 388.441 346.442 393.511 345.366 391.309C344.239 389.107 355.507 350.232 350.129 355.815Z" fill="#E2E2E2"/>
<path d="M391.616 337.632L389.977 339.732L383.011 339.783L381.065 336.454C381.065 336.403 384.702 339.22 391.616 337.632Z" fill="#6D8AB4"/>
<path d="M419.838 279.96C419.838 279.96 417.533 275.555 413.794 278.014C410.516 280.165 408.979 281.65 408.979 281.65C408.979 281.65 413.538 276.426 415.894 276.375C417.789 276.272 419.325 277.04 419.838 279.96Z" fill="#EABEB9"/>
<path d="M399.299 402.987C399.299 402.987 402.372 405.087 401.706 422.347L407.852 422.655C407.852 422.655 409.901 407.135 406.777 401.911L399.299 402.987Z" fill="white"/>
<path d="M249.843 426.393H439.198C440.069 426.393 440.786 425.676 440.786 424.806V420.555C440.786 419.684 440.069 418.967 439.198 418.967H249.843C248.973 418.967 248.256 419.684 248.256 420.555V424.806C248.256 425.625 248.973 426.393 249.843 426.393Z" fill="#0D163D"/>
<path d="M333.586 364.214L370.002 418.916H254.248L216.552 365.7L220.803 364.214H333.586Z" fill="white"/>
<path d="M329.335 365.802L364.573 418.916H248.87L216.552 365.802H221.673H329.335Z" fill="#24466B"/>
<path d="M286.977 393.358C293.313 393.358 298.45 392.463 298.45 391.36C298.45 390.257 293.313 389.363 286.977 389.363C280.641 389.363 275.504 390.257 275.504 391.36C275.504 392.463 280.641 393.358 286.977 393.358Z" fill="#6D8AB4"/>
<path d="M343.932 403.755C343.932 402.782 324.827 374.202 324.827 374.202L279.141 373.69L321.754 379.426L343.932 403.755Z" fill="#0D163D"/>
<path d="M283.084 32.1652H277.706V72.8326H283.084V32.1652Z" fill="#99D6FF"/>
<path d="M508.906 65.9181H490.058V245.131H508.906V65.9181Z" fill="url(#paint11_linear)"/>
<path d="M521.916 65.9181H514.848V219.983H521.916V65.9181Z" fill="url(#paint12_linear)"/>
<path d="M562.84 214.554H555.771V327.542H562.84V214.554Z" fill="url(#paint13_linear)"/>
<path d="M505.526 272.687C505.526 272.687 507.268 300.447 492.517 312.945L480.788 312.791C480.788 312.791 497.587 291.228 491.953 275.453L505.526 272.687Z" fill="#1F294C"/>
<path d="M458.866 281.087C455.742 280.114 447.598 275.145 451.337 266.438C455.076 257.731 473.617 250.919 511.826 254.709C530.162 256.502 538.869 253.378 540.918 257.526C543.991 263.673 544.708 269.614 538.408 272.328C531.391 275.35 479.149 287.233 458.866 281.087Z" fill="#1F294C"/>
<path d="M459.173 278.218C454.922 277.399 447.547 272.943 450.774 264.031C453.949 255.119 472.08 247.18 510.443 248.614C548.806 250.048 542.967 262.187 537.128 265.465C533.235 267.616 480.429 282.265 459.173 278.218Z" fill="#324A6D"/>
<path d="M528.933 256.707C528.933 256.707 505.526 249.536 477.919 254.607C450.364 259.729 456.356 271.048 456.356 271.048L528.933 256.707Z" fill="#526882"/>
<path d="M501.173 278.321C501.173 278.321 502.812 300.038 488.112 313.098L476.434 312.74C476.434 312.74 492.824 294.096 488.727 280.011L501.173 278.321Z" fill="#526882"/>
<path d="M506.345 327.286C506.345 327.286 534.72 331.588 534.464 355.251C534.157 378.914 521.711 391.36 521.711 391.36C521.711 391.36 533.901 350.334 506.345 327.286Z" fill="#526882"/>
<path fill-rule="evenodd" clip-rule="evenodd" d="M627.119 318.118L629.731 329.744H655.801V300.806L627.119 318.118Z" fill="#A56E67"/>
<path fill-rule="evenodd" clip-rule="evenodd" d="M609.756 258.858C609.756 258.858 589.268 297.682 607.451 331.896L628.809 325.852L621.28 256.4L609.756 258.858Z" fill="#0D163D"/>
<path fill-rule="evenodd" clip-rule="evenodd" d="M617.899 307.157L626.658 320.474C626.658 320.474 635.57 321.037 638.592 319.961C644.379 317.862 657.594 304.75 657.594 304.75L675.059 295.582L666.403 272.328L640.743 251.841L626.76 254.146L615.902 262.648L617.899 307.157Z" fill="#BE897C"/>
<path fill-rule="evenodd" clip-rule="evenodd" d="M615.902 259.012L613.034 270.382L624.558 272.38L626.914 254.095C626.914 254.095 616.721 256.861 615.902 259.012Z" fill="#EDC5C0"/>
<path fill-rule="evenodd" clip-rule="evenodd" d="M625.685 272.482C625.685 272.482 627.631 277.758 618.821 291.587L621.946 295.582L621.587 301.625L629.782 320.627C629.782 320.627 624.046 321.14 621.587 317.913C617.234 312.176 608.27 286.618 613.034 270.433C613.392 269.153 623.124 270.433 623.124 270.433L625.685 272.482Z" fill="#EDC5C0"/>
<path d="M660.411 285.492C660.411 285.492 657.081 283.545 652.164 273.66C647.247 263.775 641.357 258.397 631.472 256.707C621.587 255.017 615.082 262.341 615.082 262.341C615.082 262.341 615.851 258.09 617.899 255.068C621.126 250.253 637.209 245.541 644.226 251.79C655.647 262.034 660.411 285.492 660.411 285.492Z" fill="#A56E67"/>
<path d="M679.361 324.111C679.361 324.111 698.671 327.287 711.783 360.118C724.946 392.949 737.238 418.404 729.812 421.58C715.419 427.726 560.996 422.297 560.996 422.297C560.996 422.297 563.813 405.036 567.193 395.458C570.573 385.932 579.844 362.166 582.2 353.818C584.607 345.316 585.888 338.913 593.314 336.148C600.741 333.382 623.841 327.645 623.841 327.645L638.643 329.694L655.801 324.06H679.361V324.111Z" fill="white"/>
<path d="M598.846 403.089C598.846 403.089 575.388 403.396 570.727 406.93C566.066 410.465 569.498 411.335 570.112 413.896C570.881 417.072 582.661 419.633 584.607 421.323C587.424 423.73 618.155 425.267 618.155 425.267H631.216L598.846 403.089Z" fill="#E2E2E2"/>
<path d="M649.604 345.724L635.928 374.56L623.277 327.235L628.86 325.852C628.86 325.852 636.236 328.976 653.957 323.649C654.469 323.496 655.238 324.315 655.801 324.11L649.604 345.724Z" fill="#BE897C"/>
<path d="M595.619 384.292C597.566 378.709 605.095 370.002 605.095 372.307C605.095 375.226 595.67 381.577 597.822 396.021C598.59 401.348 601.509 405.65 603.353 408.365C603.251 408.365 603.148 408.365 603.097 408.416C602.585 408.467 602.073 408.467 601.561 408.518C600.485 407.135 599.307 405.343 597.975 403.14C594.185 396.789 593.673 389.875 595.619 384.292Z" fill="#E2E2E2"/>
<path d="M684.33 384.087L687.864 400.887L691.398 401.04C691.398 401.04 686.891 388.748 685.456 383.37C684.022 377.992 684.33 384.087 684.33 384.087Z" fill="#E2E2E2"/>
<path d="M674.803 334.303C674.803 334.303 689.503 339.117 697.185 349.105C699.951 352.69 713.729 371.59 710.092 370.514C706.507 369.438 686.686 360.68 693.498 366.417C700.259 372.153 716.802 381.68 717.673 385.47C718.544 389.26 698.671 377.685 700.719 381.526C702.358 384.548 730.375 407.647 730.375 407.647C730.375 407.647 729.197 402.27 725.612 393.614C722.026 384.906 709.324 349.719 701.027 340.398C701.027 340.398 693.549 332.356 678.491 327.542C676.903 327.081 674.803 334.303 674.803 334.303Z" fill="white"/>
<path d="M725.919 410.311C725.919 410.311 694.266 401.553 631.472 415.023C631.472 415.023 682.793 397.455 721.668 404.933L725.919 410.311Z" fill="white"/>
<path d="M609.551 332.92L617.285 333.278L613.699 347.773L636.901 377.787L619.846 331.793C619.846 331.793 618.975 330.513 618.463 330.41C617.951 330.308 609.551 332.92 609.551 332.92Z" fill="#E2E2E2"/>
<path d="M623.533 327.132C623.533 327.132 616.209 328.669 609.243 331.025C602.892 333.125 608.68 333.586 615.697 332.203C622.56 330.871 615.39 338.707 613.443 340.705C611.446 342.702 636.748 377.429 637.157 377.429C637.567 377.429 623.431 328.156 623.533 327.132Z" fill="white"/>
<path d="M669.63 329.796L661.896 330.154L665.481 344.649L635.928 374.509L659.335 328.618C659.335 328.618 660.206 327.337 660.718 327.235C661.23 327.183 669.63 329.796 669.63 329.796Z" fill="#F2F4F7"/>
<path d="M655.698 324.008C655.698 324.008 662.664 326.261 669.63 328.259C676.032 330.103 670.552 330.41 663.484 329.078C656.62 327.747 663.791 335.583 665.737 337.581C667.735 339.578 636.338 374.612 635.877 374.612C635.416 374.612 655.75 325.032 655.698 324.008Z" fill="white"/>
<path d="M719.67 397.045L720.285 399.094C720.285 399.094 727.302 406.316 720.9 404.83C714.497 403.345 655.596 409.491 654.623 409.645C653.65 409.799 643.201 412.462 643.201 412.462C643.201 412.462 669.067 415.842 671.32 414.459C673.574 413.025 662.152 412.36 665.686 411.233C669.22 410.106 689.4 415.023 692.115 412.923C694.778 410.823 682.486 408.672 686.327 407.955C690.117 407.238 726.431 407.955 726.585 415.177C726.739 422.398 723.461 423.064 723.461 423.064C723.461 423.064 732.782 423.474 732.373 416.15C731.963 408.825 725.151 392.436 725.151 392.436L719.67 397.045Z" fill="white"/>
<path d="M686.942 394.126C686.942 394.126 688.222 397.096 685.456 397.199C682.691 397.301 677.313 393.511 677.722 395.714C678.132 397.916 685.559 398.787 684.381 399.862C683.203 400.938 666.915 403.55 666.813 404.728C666.71 405.906 667.786 406.008 667.786 406.008C667.786 406.008 689.093 403.038 692.268 403.345C692.268 403.345 689.503 395.611 689.298 395.201C689.093 394.74 686.942 394.126 686.942 394.126Z" fill="#E2E2E2"/>
<path d="M636.952 377.787C636.952 377.787 631.779 389.823 633.367 399.913C634.904 409.645 636.748 413.384 636.748 413.384L635.774 413.691C635.774 413.691 631.523 405.804 631.267 395.765C630.96 385.214 636.133 376.558 636.133 376.558L636.952 377.787Z" fill="#F2F4F7"/>
<path d="M627.836 413.384C624.046 412.667 616.055 405.548 601.305 404.37C595.927 403.909 586.861 403.448 583.276 405.445C581.329 406.521 569.959 406.213 569.908 406.316C569.549 407.289 574.005 411.335 574.005 411.335C574.005 411.335 566.988 411.591 576.566 415.382C578.512 416.15 581.073 418.096 584.3 418.199C602.124 418.557 602.687 421.579 610.268 422.552C620.05 423.833 624.865 423.833 624.865 423.833L626.402 423.167L627.836 413.384Z" fill="#CC968D"/>
<path d="M618.411 420.401C615.082 418.608 604.224 415.177 604.224 415.177L584.556 418.199C584.556 418.199 585.58 419.325 588.09 419.377C590.497 419.428 598.641 419.633 598.641 419.633L609.909 422.808L622.765 423.781C622.867 423.73 619.641 421.067 618.411 420.401Z" fill="#A56E67"/>
<path d="M575.849 415.125C575.849 415.125 577.744 416.355 579.895 416.252C583.634 416.099 596.131 412.718 596.131 412.718L575.849 415.125Z" fill="#A56E67"/>
<path d="M572.11 411.643C572.11 411.643 572.571 412.36 575.183 412.462C578.973 412.616 592.341 409.082 592.341 409.082C592.341 409.082 578.615 410.772 573.954 411.284C572.366 411.489 572.11 411.643 572.11 411.643Z" fill="#A56E67"/>
<path d="M569.856 406.316C569.856 406.316 570.522 407.545 573.647 407.443C577.385 407.34 588.91 404.165 588.91 404.165L569.856 406.316Z" fill="#A56E67"/>
<path d="M625.736 415.228L624.66 412.206C624.66 412.206 630.397 414.767 632.548 414.767C632.548 414.767 630.55 419.376 630.55 423.935L624.558 423.884L625.121 422.962L625.736 415.228Z" fill="#CC968D"/>
<path d="M700.361 366.878C700.361 366.878 699.593 350.846 694.676 344.7C689.759 338.554 655.647 324.008 655.647 324.008L655.34 306.542C655.34 306.542 658.362 299.935 662.511 299.935C666.659 299.935 673.881 295.018 671.218 287.438C668.554 279.857 660.36 285.491 660.36 285.491C660.36 285.491 655.084 258.602 638.592 255.068L655.75 233.249C655.75 233.249 675.059 237.961 681.41 257.526C687.659 276.631 681.513 294.608 685.252 301.625C688.991 308.642 699.081 315.813 702.563 327.542C706.046 339.271 705.278 366.878 705.278 366.878H700.361Z" fill="#0D163D"/>
<path fill-rule="evenodd" clip-rule="evenodd" d="M619.333 303.725L621.382 302.189C621.382 302.189 622.816 303.367 624.455 302.342C624.455 302.342 631.319 305.159 634.392 304.852C636.082 304.698 638.643 303.572 638.643 303.572C638.643 303.572 632.138 308.642 619.538 305.518L619.333 303.725Z" fill="#9A5544"/>
<path fill-rule="evenodd" clip-rule="evenodd" d="M623.431 308.591L628.297 308.95L627.016 311.101L625.685 310.742L623.431 308.591Z" fill="#9A5544"/>
<path fill-rule="evenodd" clip-rule="evenodd" d="M629.014 295.53C629.014 295.53 623.789 293.277 622.867 292.713C621.997 292.15 618.821 291.638 618.821 291.638L621.177 295.274C621.177 295.274 626.453 295.684 629.014 295.53Z" fill="#9A5544"/>
<path opacity="0.4" fill-rule="evenodd" clip-rule="evenodd" d="M658.618 292.457C656.928 296.196 653.957 299.167 650.218 300.96C647.452 302.394 645.711 303.162 645.711 303.162L647.913 291.638L660.308 287.899C660.308 287.95 660.923 287.591 658.618 292.457Z" fill="#A15F4F"/>
<path d="M739.236 430.132H549.881C549.011 430.132 548.293 429.415 548.293 428.545V424.293C548.293 423.423 549.011 422.706 549.881 422.706H739.236C740.107 422.706 740.824 423.423 740.824 424.293V428.545C740.824 429.415 740.107 430.132 739.236 430.132Z" fill="#0D163D"/>
<path d="M655.494 368.158L619.077 422.808H734.831L768.277 368.158H655.494Z" fill="white"/>
<path d="M659.745 369.592L623.943 423.525H739.748L772.528 369.592H659.745Z" fill="#24466B"/>
<path d="M702.102 397.148C708.439 397.148 713.575 396.253 713.575 395.15C713.575 394.047 708.439 393.153 702.102 393.153C695.766 393.153 690.629 394.047 690.629 395.15C690.629 396.253 695.766 397.148 702.102 397.148Z" fill="#6D8AB4"/>
<path d="M645.147 407.545C645.147 406.572 664.252 377.992 664.252 377.992L709.939 377.48L667.325 383.216L645.147 407.545Z" fill="#0D163D"/>
<path d="M644.174 284.211L630.345 278.731L632.958 281.958L632.497 284.723L644.174 284.211Z" fill="#143053"/>
<path d="M649.091 274.633C649.091 274.633 635.211 270.946 631.523 272.789C631.523 272.789 630.806 268.18 635.365 268.18C639.923 268.18 649.091 274.633 649.091 274.633Z" fill="#143053"/>
<path d="M612.06 270.945C612.06 270.945 618.565 270.024 621.331 271.867C621.28 271.867 620.358 263.519 612.06 270.945Z" fill="#143053"/>
<path d="M637.977 297.323C644.37 297.323 649.552 292.141 649.552 285.748C649.552 279.355 644.37 274.172 637.977 274.172C631.584 274.172 626.401 279.355 626.401 285.748C626.401 292.141 631.584 297.323 637.977 297.323Z" stroke="white" stroke-miterlimit="10" stroke-linecap="round"/>
<path d="M617.387 292.662C616.26 293.072 615.031 293.277 613.751 293.277C607.604 293.277 602.636 288.309 602.636 282.162C602.636 276.016 607.604 271.048 613.751 271.048C618.514 271.048 622.611 274.07 624.148 278.27C624.148 278.27 624.609 279.448 624.609 280.267" stroke="white" stroke-miterlimit="10" stroke-linecap="round"/>
<path d="M649.552 287.079L660.82 285.236" stroke="white" stroke-miterlimit="10" stroke-linecap="round"/>
<path d="M611.19 275.35L622.253 280.933C622.202 280.984 622.202 281.036 622.15 281.138C621.946 281.445 621.689 281.753 621.485 282.06L612.88 281.65L613.597 278.833L611.19 275.35Z" fill="#143053"/>
<path opacity="0.2" d="M617.694 291.638C618.411 290.87 620.05 287.848 620.358 287.284C620.563 286.874 621.126 285.748 621.075 285.645C621.075 285.645 620.614 284.928 620.665 284.928L614.314 270.997C607.912 270.587 604.378 276.989 604.378 276.989C604.378 276.989 610.934 293.021 611.19 293.174C611.497 293.277 611.804 293.379 612.112 293.482C613.955 293.482 615.799 293.174 617.541 292.611C617.438 292.304 617.438 291.945 617.694 291.638Z" fill="white"/>
<path d="M627.119 281.497C626.197 280.78 623.124 280.267 623.072 280.319" stroke="white" stroke-miterlimit="10" stroke-linecap="round"/>
<path opacity="0.2" d="M637.977 274.326L646.735 293.482C646.735 293.482 641.357 298.962 634.853 296.555C634.545 296.401 628.041 280.37 628.041 280.37C628.041 280.37 631.523 273.865 637.977 274.326Z" fill="white"/>
<path d="M617.387 292.662L618.155 292.355" stroke="white" stroke-miterlimit="10" stroke-linecap="round"/>
<path fill-rule="evenodd" clip-rule="evenodd" d="M613.034 263.263L615.338 261.163C615.338 261.163 622.099 251.79 638.643 255.068L655.801 233.249C655.801 233.249 623.687 224.951 609.807 258.858L613.034 263.263Z" fill="#0D163D"/>
<path d="M628.655 253.736C628.655 253.736 639.104 222.39 673.932 254.248C673.932 254.248 647.657 227.41 628.655 253.736Z" fill="#7AA9D3"/>
<path d="M683.1 333.944C683.1 335.634 691.398 228.281 633.675 254.095C633.675 254.044 682.127 234.017 683.1 333.944Z" fill="#24466B"/>
<path d="M766.791 430.388H22.3312V438.174H766.791V430.388Z" fill="#F2F4F7"/>
<path d="M766.791 437.098H22.3312V475H766.791V437.098Z" fill="url(#paint14_linear)"/>
<path d="M766.791 426.086H22.3312V430.44H766.791V426.086Z" fill="white"/>
<path d="M629.424 75.8544C628.246 75.8544 627.119 76.0081 625.992 76.2642C625.07 68.7863 618.719 63.0498 611.036 63.0498C603.353 63.0498 597.054 68.7351 596.08 76.1617C595.21 76.0081 594.288 75.9056 593.366 75.9056C585.017 75.9056 578.256 82.6665 578.256 91.0151H644.533C644.482 82.6153 637.721 75.8544 629.424 75.8544Z" fill="#99D6FF"/>
<path d="M568.832 173.323C568.217 173.323 567.603 173.374 567.039 173.528C566.579 169.584 563.198 166.511 559.101 166.511C555.054 166.511 551.674 169.533 551.162 173.426C550.701 173.323 550.189 173.272 549.728 173.272C545.323 173.272 541.738 176.857 541.738 181.262H576.822C576.822 176.908 573.288 173.323 568.832 173.323Z" fill="white"/>
<path d="M613.546 85.4323H609.192V131.375H613.546V85.4323Z" fill="#99D6FF"/>
<path d="M628.553 159.75L611.599 174.399L594.185 159.75V127.073H628.553V159.75Z" fill="url(#paint15_linear)"/>
<path d="M598.744 129.531L618.258 163.489L624.558 158.214V129.531H598.744Z" fill="#99D6FF"/>
<path d="M602.585 147.304L609.551 154.782C609.756 155.038 610.063 155.141 610.421 155.089C610.729 155.038 611.036 154.885 611.19 154.628L621.433 138.136C621.741 137.675 621.587 137.009 621.126 136.702C620.665 136.395 619.999 136.548 619.692 137.009L610.165 152.375L604.07 145.87C603.661 145.46 603.046 145.409 602.636 145.819C602.226 146.229 602.226 146.894 602.585 147.304Z" fill="white"/>
<path d="M297.477 105.51L280.523 120.158L263.109 105.51V72.8325H297.477V105.51Z" fill="url(#paint16_linear)"/>
<path d="M267.667 75.291L287.182 109.3L293.533 104.025V75.291H267.667Z" fill="#99D6FF"/>
<path d="M271.509 93.064L278.475 100.542C278.68 100.798 278.987 100.9 279.345 100.849C279.653 100.798 279.96 100.644 280.114 100.388L290.357 83.8959C290.665 83.4349 290.511 82.7691 290.05 82.4618C289.589 82.1545 288.923 82.3081 288.616 82.7691L279.089 98.1346L272.994 91.6811C272.584 91.2713 271.97 91.2201 271.56 91.6299C271.15 92.0396 271.15 92.6542 271.509 93.064Z" fill="white"/>
<path d="M207.588 15.6729H200.52V219.369H207.588V15.6729Z" fill="url(#paint17_linear)"/>
<path d="M188.279 27.2994H169.431V230.995H188.279V27.2994Z" fill="url(#paint18_linear)"/>
<path d="M629.782 327.388C629.372 327.132 628.86 325.852 628.86 325.852L628.297 320.628L636.953 320.269L643.099 326.569C643.048 326.62 633.675 329.591 629.782 327.388Z" fill="#BE897C"/>
<path opacity="0.4" d="M660.923 290.767C660.923 290.767 662.306 285.697 668.298 288.257C668.298 288.257 661.64 287.284 661.333 294.865L660.923 290.767Z" fill="#A15F4F"/>
<path d="M112.271 191.147C112.271 191.147 118.571 213.53 127.739 224.337C127.739 224.337 119.544 228.281 110.376 218.857C101.259 209.381 91.3225 206.052 83.8958 206.513C76.5716 207.025 112.271 191.147 112.271 191.147Z" fill="#C3B398"/>
<path fill-rule="evenodd" clip-rule="evenodd" d="M118.468 185.513C118.468 185.513 116.676 185.001 115.805 185.718C114.883 186.435 114.627 189.662 115.395 191.864C116.266 193.708 117.393 195.398 118.776 196.884C118.776 196.884 115.344 191.506 116.112 189.406C116.522 188.228 117.393 187.255 118.571 186.794L118.468 185.513Z" fill="#B2786A"/>
<path d="M175.577 323.086C175.577 323.086 173.323 310.435 175.833 293.943C178.343 277.45 172.76 249.536 169.072 245.08C165.435 240.573 155.089 239.19 155.089 239.19C155.089 239.19 157.753 353.1 164.462 353.458C171.172 353.817 176.396 343.778 176.396 343.778L175.577 323.086Z" fill="#C4C6C4"/>
<path d="M102.386 348.286C102.386 348.286 78.1594 370.924 82.9227 412.718C87.686 454.513 95.2664 475 95.2664 475H166.511C166.511 475 186.486 378.607 164.872 351.615C164.872 351.615 139.622 323.086 102.386 348.286Z" fill="#142B49"/>
<path fill-rule="evenodd" clip-rule="evenodd" d="M177.728 307.823L183.516 352.281C183.516 352.281 197.498 355.456 204.925 352.025L210.918 307.874H177.728V307.823Z" fill="#562A1D"/>
<path d="M121.132 351.615C121.132 351.615 102.13 370.77 97.9296 373.792C93.7297 376.814 95.4711 422.962 104.332 460.915C107.149 473.054 105.203 475 105.203 475H95.2663C95.2663 475 91.8858 469.263 82.308 430.235C72.7301 391.207 95.2663 349.566 95.2663 349.566L121.132 351.615Z" fill="#071F3F"/>
<path d="M129.531 352.178C129.531 352.178 143.002 353.356 157.599 355.097C157.599 355.097 168.355 370.873 168.918 381.219C168.918 381.219 158.316 392.897 155.089 398.684C151.863 404.472 166.511 475 166.511 475C166.511 475 181.313 398.684 174.245 368.978C174.245 368.978 166.306 348.183 161.492 343.727C156.728 339.271 129.531 352.178 129.531 352.178Z" fill="#819CB5"/>
<path fill-rule="evenodd" clip-rule="evenodd" d="M201.903 328.208C204.515 328.31 206.308 333.893 205.437 336.352C203.132 339.834 200.059 342.703 196.32 344.546C187.613 349.156 177.369 343.932 165.999 344.29C159.392 344.546 138.239 345.468 126.714 344.905C113.91 344.342 94.0883 340.705 91.9883 337.683C90.9639 336.352 92.0395 334.098 93.1151 332.613C99.7223 327.235 113.346 321.549 122.412 321.037C120.415 322.83 120.671 322.727 120.21 323.957C125.69 326.569 133.936 328.413 139.98 329.693C147.868 331.383 160.262 334.354 165.999 331.844C169.226 330.461 173.016 324.674 177.626 324.008C186.589 322.727 188.689 324.623 185.411 327.132C184.438 327.9 180.904 328.669 180.033 329.796C179.316 330.769 181.518 330.974 181.979 330.922C185.923 330.41 189.764 329.744 193.606 328.874C196.371 328.31 199.189 328.105 201.903 328.208Z" fill="#BE897C"/>
<path fill-rule="evenodd" clip-rule="evenodd" d="M189.867 339.373C189.867 336.095 189.867 331.742 189.816 329.591C191.096 329.386 192.376 329.079 193.606 328.771C196.32 328.31 199.086 328.054 201.903 328.157C204.515 328.259 206.308 333.842 205.437 336.3C203.132 339.783 200.059 342.651 196.32 344.495C194.323 345.571 192.325 346.032 190.123 346.288C190.02 343.983 189.867 341.678 189.867 339.373Z" fill="#D8A89D"/>
<path fill-rule="evenodd" clip-rule="evenodd" d="M150.582 217.269C150.582 217.269 148.585 239.139 157.292 239.139C159.802 250.919 159.802 253.941 159.392 254.863C134.602 262.341 99.1078 249.331 97.981 248.512C96.8541 247.692 106.739 244.005 110.069 243.39C114.115 242.673 122.258 241.751 122.617 232.583C122.873 223.415 123.488 205.027 123.488 205.027L150.582 217.269Z" fill="#BE897C"/>
<path fill-rule="evenodd" clip-rule="evenodd" d="M61.1548 198.318C61.1548 198.318 67.1474 199.035 79.0813 183.208C88.7104 170.404 92.5518 164.923 99.5175 154.475C106.381 144.18 111.144 140.953 122.822 138.853C134.602 136.753 146.587 140.39 155.243 148.585C165.794 158.521 170.609 176.755 172.196 184.335C177.062 208.305 175.935 221.469 175.013 220.342C171.377 216.142 149.404 224.388 133.219 224.388C126.919 224.388 131.99 228.229 127.79 229.51C98.1858 227.359 107.405 230.022 92.5005 231.046C74.4716 231.917 61.1548 198.318 61.1548 198.318Z" fill="#C3B398"/>
<path fill-rule="evenodd" clip-rule="evenodd" d="M173.733 220.547C174.194 221.11 175.014 221.11 175.526 219.215C171.94 213.018 167.126 207.588 161.287 203.388C155.038 198.728 147.919 195.347 140.339 193.401L139.622 218.908L145.563 223.773C159.033 221.264 171.889 217.115 173.733 220.547Z" fill="#F1E9C8"/>
<path fill-rule="evenodd" clip-rule="evenodd" d="M123.488 216.347C123.488 216.347 128.2 221.264 134.909 225.566C137.163 227 139.622 230.483 142.08 231.303C145.307 232.327 148.636 231.507 150.992 230.329C150.992 230.329 150.07 225.669 150.48 219.778C151.658 213.069 122.361 203.952 122.361 203.952L123.488 216.347Z" fill="url(#paint19_linear)"/>
<path d="M127.432 139.365C127.432 139.365 97.3151 167.331 103.717 193.964C110.12 220.547 105.203 229.151 105.203 229.151C105.203 229.151 113.91 227.308 118.366 230.893C121.9 233.71 129.429 240.676 136.856 236.988C136.856 236.988 124.051 193.759 123.027 186.794C122.054 179.828 125.639 156.319 126.971 155.653L127.432 139.365Z" fill="url(#paint20_linear)"/>
<path fill-rule="evenodd" clip-rule="evenodd" d="M164.565 176.704C164.565 176.704 162.055 186.64 162.772 191.864C163.489 197.089 166.358 198.471 166.358 198.471C166.358 198.471 160.416 218.447 154.475 220.188C148.534 221.93 129.275 217.064 122.515 206.154C121.798 204.976 120.722 200.981 120.722 200.981C120.722 200.981 108.327 196.013 112.066 183.567C112.066 183.567 116.317 177.113 123.027 185.564C123.027 185.564 120.107 173.374 126.561 161.543C133.322 149.199 160.365 160.826 164.565 176.704Z" fill="#BE897C"/>
<path opacity="0.3" fill-rule="evenodd" clip-rule="evenodd" d="M160.928 157.702C161.594 158.06 169.123 177.779 169.533 189.508C164.001 180.904 158.316 180.494 158.316 180.494L155.141 172.504L157.036 166.819C156.984 166.87 160.16 157.343 160.928 157.702Z" fill="#B08E61"/>
<path opacity="0.4" fill-rule="evenodd" clip-rule="evenodd" d="M130.402 189.969C133.936 192.684 136.344 196.576 137.317 200.93C138.136 204.208 138.546 206.257 138.546 206.257L126.919 201.084L126.049 187.05C126.049 187.05 125.844 186.333 130.402 189.969Z" fill="#A15F4F"/>
<path fill-rule="evenodd" clip-rule="evenodd" d="M162.465 208.767L160.98 207.025C160.98 207.025 159.494 207.742 158.265 206.513C158.265 206.513 151.658 207.64 149.097 206.769C147.663 206.257 145.614 204.771 145.614 204.771C145.614 204.771 150.326 210.508 161.953 210.252L162.465 208.767Z" fill="#9A5544"/>
<path fill-rule="evenodd" clip-rule="evenodd" d="M157.036 213.939L152.785 212.966L153.297 215.169H154.526L157.036 213.939Z" fill="#9A5544"/>
<path fill-rule="evenodd" clip-rule="evenodd" d="M152.375 189.56C152.119 189.047 150.121 185.052 149.148 184.335C148.175 183.618 145.921 180.34 141.414 180.084C136.907 179.828 132.502 180.852 132.502 180.852C132.502 180.852 137.47 177.165 139.98 177.165C142.439 177.165 148.431 179.162 149.712 180.443C150.89 181.621 152.375 189.56 152.375 189.56Z" fill="#562A1D"/>
<path fill-rule="evenodd" clip-rule="evenodd" d="M134.961 187.101L141.67 185.616L147.151 185.36L149.404 188.586L145.87 187.818L143.873 190.072L141.158 188.33L134.961 187.101Z" fill="#562A1D"/>
<path fill-rule="evenodd" clip-rule="evenodd" d="M163.745 178.957C163.745 178.957 158.726 172.76 122.463 175.884C122.463 175.884 122.822 171.428 123.539 169.226C124.41 166.614 125.28 159.033 125.28 159.033C125.28 159.033 147.663 164.923 164.514 171.479L164.77 176.038L163.745 178.957Z" fill="#A15F4F"/>
<path fill-rule="evenodd" clip-rule="evenodd" d="M163.028 177.472L158.316 181.672C158.316 181.672 158.06 187.408 161.287 192.633C161.287 192.633 160.775 189.201 161.031 188.433C161.287 187.665 164.719 188.433 164.719 188.433L162.465 185.206L159.955 186.435L160.467 182.491L163.694 179.009L163.028 177.472Z" fill="#562A1D"/>
<path fill-rule="evenodd" clip-rule="evenodd" d="M122.668 173.733C124.871 171.684 128.2 168.355 129.531 165.948L125.588 146.536L122.668 173.733Z" fill="#C7A67B"/>
<path fill-rule="evenodd" clip-rule="evenodd" d="M154.577 201.545C154.577 201.545 160.519 199.803 161.543 199.291C162.567 198.779 166.05 198.625 166.05 198.625L163.028 202.262C163.028 202.313 157.292 202.057 154.577 201.545Z" fill="#9A5544"/>
<path fill-rule="evenodd" clip-rule="evenodd" d="M125.741 148.687C125.741 148.687 128.302 162.823 128.763 166.46C128.968 168.15 129.07 169.789 129.173 171.479C129.173 171.889 129.173 172.504 129.429 172.453C129.583 172.401 130.095 172.248 130.146 172.248C132.451 171.684 137.419 170.865 143.616 170.557C157.087 170.301 164.974 174.092 164.821 173.477C164.821 164.821 161.44 155.807 153.911 147.253C143.104 138.495 134.704 138.187 127.483 139.109C124.717 139.468 125.639 146.434 125.639 146.434L125.741 148.687Z" fill="#D1C3AB"/>
<path fill-rule="evenodd" clip-rule="evenodd" d="M131.836 138.392C131.836 138.392 127.585 141.158 125.639 143.309C123.744 144.897 115.498 153.246 115.498 153.246L103.256 154.424C103.256 154.424 76.6227 198.062 64.2791 203.849C64.2791 203.849 59.4133 196.013 58.6963 193.298C58.6963 193.298 70.8351 195.347 80.3105 180.699C89.7859 166.05 103 146.485 110.939 142.541C119.441 138.341 128.302 137.419 131.836 138.392Z" fill="#8E7C64"/>
<path d="M80.6178 345.724C79.5934 344.495 61.1548 247.129 109.095 243.902C142.029 241.7 157.036 245.439 157.292 239.088C157.292 239.088 162.158 264.697 169.533 276.682C176.908 288.667 174.808 296.401 169.072 301.984C163.54 307.362 160.826 321.601 163.438 330.922C165.487 338.298 164.206 344.803 162.311 345.673C144.794 353.817 87.0201 353.356 80.6178 345.724Z" fill="#F2F4F7"/>
<path d="M108.788 289.436C108.788 289.436 116.471 305.877 125.178 308.54C133.885 311.255 162.926 300.601 168.201 302.957C168.201 302.957 159.853 315.352 163.643 330.666L105.305 323.701L108.788 289.436Z" fill="#D3D3D3"/>
<path d="M91.6299 251.175C91.6299 251.175 100.798 251.841 105.305 263.314C111.503 278.936 105.305 323.701 105.305 323.701L163.848 331.844L163.592 330.205C163.592 330.205 135.217 322.113 107.866 322.266C107.917 322.318 122.668 248.973 91.6299 251.175Z" fill="white"/>
<path d="M143.565 243.134C143.565 243.134 137.47 243.544 129.532 239.907C125.537 238.063 121.746 235.297 121.746 235.297C121.746 235.297 117.393 241.034 105.971 244.312C105.971 244.312 142.746 258.397 143.565 243.134Z" fill="#C4C6C4"/>
<path d="M154.014 237.244C154.014 237.244 151.965 239.549 150.326 240.471C146.331 242.775 143.565 243.134 143.565 243.134C143.565 243.134 148.073 248.358 154.372 247.897C160.672 247.436 158.726 239.139 158.726 239.139C158.726 239.139 156.524 239.344 154.014 237.244Z" fill="#C4C6C4"/>
<path d="M138.648 393.87L146.177 428.186C146.177 428.186 134.807 402.936 134.039 401.758C133.322 400.58 138.648 393.87 138.648 393.87Z" fill="#819CB5"/>
<path fill-rule="evenodd" clip-rule="evenodd" d="M183.362 316.376L179.06 318.169L180.545 330.718L186.435 328.566L188.996 326.518L188.279 322.113L183.362 316.376Z" fill="#562A1D"/>
<path d="M212.505 307.26H176.243V310.998H212.505V307.26Z" fill="#F2F4F7"/>
<path fill-rule="evenodd" clip-rule="evenodd" d="M207.64 307.26H181.006L182.799 300.96H205.847L207.64 307.26Z" fill="#D3D3D3"/>
<path d="M140.851 242.724L152.272 265.26L145.973 242.007L140.851 242.724Z" fill="#BE897C"/>
<path d="M277.245 294.711H229.971L228.639 293.379L229.971 226.949H277.245V294.711Z" fill="#6D8AB4"/>
<path d="M275.914 293.328H228.639V225.566H275.914V293.328Z" fill="url(#paint21_linear)"/>
<path d="M266.848 239.754H238.678V242.058H266.848V239.754Z" fill="#99D6FF"/>
<path d="M266.848 248.973H238.678V251.278H266.848V248.973Z" fill="#99D6FF"/>
<path d="M266.848 259.114H238.678V261.419H266.848V259.114Z" fill="#99D6FF"/>
<path d="M266.848 268.333H238.678V270.638H266.848V268.333Z" fill="#99D6FF"/>
<path d="M266.848 278.475H238.678V280.779H266.848V278.475Z" fill="#99D6FF"/>
<path d="M351.973 249.331H304.699L303.367 248L304.699 181.569H351.973V249.331Z" fill="#6D8AB4"/>
<path d="M350.641 248H303.367V180.186H350.641V248Z" fill="url(#paint22_linear)"/>
<path d="M341.576 194.425H313.406V196.73H341.576V194.425Z" fill="#99D6FF"/>
<path d="M341.576 203.645H313.406V205.949H341.576V203.645Z" fill="#99D6FF"/>
<path d="M341.576 213.786H313.406V216.091H341.576V213.786Z" fill="#99D6FF"/>
<path d="M341.576 222.954H313.406V225.259H341.576V222.954Z" fill="#99D6FF"/>
<path d="M341.576 233.095H313.406V235.4H341.576V233.095Z" fill="#99D6FF"/>
<defs>
<linearGradient id="paint0_linear" x1="407.06" y1="65.9355" x2="407.06" y2="430.412" gradientUnits="userSpaceOnUse">
<stop stop-color="#B2E9F0" stop-opacity="0.8104"/>
<stop offset="0.0214318" stop-color="#BAEBF2" stop-opacity="0.7901"/>
<stop offset="0.0837352" stop-color="#CBF0F5" stop-opacity="0.731"/>
<stop offset="0.1613" stop-color="#D6F3F7" stop-opacity="0.6573"/>
<stop offset="0.2701" stop-color="#DDF5F9" stop-opacity="0.5541"/>
<stop offset="0.5723" stop-color="#DFF6F9" stop-opacity="0.2674"/>
<stop offset="1" stop-color="white" stop-opacity="0"/>
</linearGradient>
<linearGradient id="paint1_linear" x1="487.535" y1="426.563" x2="487.535" y2="65.936" gradientUnits="userSpaceOnUse">
<stop offset="0.175" stop-color="white"/>
<stop offset="0.8222" stop-color="#BDF3FD"/>
<stop offset="1" stop-color="#BDF3FD"/>
</linearGradient>
<linearGradient id="paint2_linear" x1="367.557" y1="231.279" x2="367.557" y2="65.9385" gradientUnits="userSpaceOnUse">
<stop stop-color="white" stop-opacity="0"/>
<stop offset="0.1468" stop-color="white" stop-opacity="0.1468"/>
<stop offset="1" stop-color="white"/>
</linearGradient>
<linearGradient id="paint3_linear" x1="597.616" y1="455.069" x2="627.695" y2="266.477" gradientUnits="userSpaceOnUse">
<stop stop-color="#9AC6AA"/>
<stop offset="0.2532" stop-color="#A3CCB3"/>
<stop offset="0.6728" stop-color="#BDDDCA"/>
<stop offset="1" stop-color="#D5EDE1"/>
</linearGradient>
<linearGradient id="paint4_linear" x1="249.799" y1="247.241" x2="333.115" y2="247.241" gradientUnits="userSpaceOnUse">
<stop stop-color="#F8F8F8"/>
<stop offset="1" stop-color="white"/>
</linearGradient>
<linearGradient id="paint5_linear" x1="438.993" y1="187.662" x2="438.993" y2="103.227" gradientUnits="userSpaceOnUse">
<stop stop-color="white" stop-opacity="0"/>
<stop offset="0.1468" stop-color="white" stop-opacity="0.1468"/>
<stop offset="1" stop-color="white"/>
</linearGradient>
<linearGradient id="paint6_linear" x1="385.369" y1="211.716" x2="385.369" y2="65.936" gradientUnits="userSpaceOnUse">
<stop stop-color="white" stop-opacity="0"/>
<stop offset="0.1468" stop-color="white" stop-opacity="0.1468"/>
<stop offset="1" stop-color="white"/>
</linearGradient>
<linearGradient id="paint7_linear" x1="32.2051" y1="404.239" x2="99.5733" y2="404.239" gradientUnits="userSpaceOnUse">
<stop stop-color="#E0E6EE"/>
<stop offset="2.7e-07" stop-color="#D4D9DD"/>
<stop offset="1" stop-color="#9FA7B3"/>
</linearGradient>
<linearGradient id="paint8_linear" x1="289.055" y1="106.911" x2="289.055" y2="403.615" gradientUnits="userSpaceOnUse">
<stop stop-color="#B6EDFA"/>
<stop offset="0.3864" stop-color="#D8F5FC"/>
<stop offset="0.7751" stop-color="#F4FCFE"/>
<stop offset="1" stop-color="white"/>
</linearGradient>
<linearGradient id="paint9_linear" x1="270.179" y1="184.938" x2="270.179" y2="388.624" gradientUnits="userSpaceOnUse">
<stop stop-color="white" stop-opacity="0"/>
<stop offset="0.1468" stop-color="white" stop-opacity="0.1468"/>
<stop offset="1" stop-color="white"/>
</linearGradient>
<linearGradient id="paint10_linear" x1="321.722" y1="158.496" x2="321.722" y2="212.235" gradientUnits="userSpaceOnUse">
<stop stop-color="#C7EEFF"/>
<stop offset="1" stop-color="white"/>
</linearGradient>
<linearGradient id="paint11_linear" x1="499.518" y1="245.131" x2="499.518" y2="65.936" gradientUnits="userSpaceOnUse">
<stop stop-color="white" stop-opacity="0"/>
<stop offset="0.1468" stop-color="white" stop-opacity="0.1468"/>
<stop offset="1" stop-color="white"/>
</linearGradient>
<linearGradient id="paint12_linear" x1="518.378" y1="219.987" x2="518.378" y2="65.936" gradientUnits="userSpaceOnUse">
<stop stop-color="white" stop-opacity="0"/>
<stop offset="0.1468" stop-color="white" stop-opacity="0.1468"/>
<stop offset="1" stop-color="white"/>
</linearGradient>
<linearGradient id="paint13_linear" x1="559.297" y1="327.541" x2="559.297" y2="214.574" gradientUnits="userSpaceOnUse">
<stop stop-color="white" stop-opacity="0"/>
<stop offset="0.1468" stop-color="white" stop-opacity="0.1468"/>
<stop offset="1" stop-color="white"/>
</linearGradient>
<linearGradient id="paint14_linear" x1="495.809" y1="631.443" x2="293.291" y2="280.67" gradientUnits="userSpaceOnUse">
<stop stop-color="#E0E6EE"/>
<stop offset="2.7e-07" stop-color="#D4D9DD"/>
<stop offset="1" stop-color="#A1A9B5"/>
</linearGradient>
<linearGradient id="paint15_linear" x1="611.297" y1="174.352" x2="611.297" y2="127.042" gradientUnits="userSpaceOnUse">
<stop stop-color="#2D6EFF"/>
<stop offset="0.3615" stop-color="#3B96FF"/>
<stop offset="0.7827" stop-color="#4ABFFF"/>
<stop offset="1" stop-color="#50CFFF"/>
</linearGradient>
<linearGradient id="paint16_linear" x1="280.319" y1="120.186" x2="280.319" y2="72.8173" gradientUnits="userSpaceOnUse">
<stop stop-color="#2D6EFF"/>
<stop offset="0.3615" stop-color="#3B96FF"/>
<stop offset="0.7827" stop-color="#4ABFFF"/>
<stop offset="1" stop-color="#50CFFF"/>
</linearGradient>
<linearGradient id="paint17_linear" x1="204.059" y1="219.364" x2="204.059" y2="15.6797" gradientUnits="userSpaceOnUse">
<stop stop-color="white" stop-opacity="0"/>
<stop offset="0.1468" stop-color="white" stop-opacity="0.1468"/>
<stop offset="1" stop-color="white"/>
</linearGradient>
<linearGradient id="paint18_linear" x1="178.86" y1="230.966" x2="178.86" y2="27.2809" gradientUnits="userSpaceOnUse">
<stop stop-color="white" stop-opacity="0"/>
<stop offset="0.1468" stop-color="white" stop-opacity="0.1468"/>
<stop offset="1" stop-color="white"/>
</linearGradient>
<linearGradient id="paint19_linear" x1="147.094" y1="211.941" x2="126.421" y2="222.216" gradientUnits="userSpaceOnUse">
<stop stop-color="#B88778"/>
<stop offset="1" stop-color="#985846"/>
</linearGradient>
<linearGradient id="paint20_linear" x1="141.38" y1="234.716" x2="100.608" y2="152.687" gradientUnits="userSpaceOnUse">
<stop stop-color="#F6EDBD"/>
<stop offset="0.5056" stop-color="#D2C6AC"/>
<stop offset="1" stop-color="#E4DBBF"/>
</linearGradient>
<linearGradient id="paint21_linear" x1="252.257" y1="293.336" x2="252.257" y2="225.546" gradientUnits="userSpaceOnUse">
<stop stop-color="#F5F3F4"/>
<stop offset="1" stop-color="white"/>
</linearGradient>
<linearGradient id="paint22_linear" x1="326.996" y1="247.975" x2="326.996" y2="180.185" gradientUnits="userSpaceOnUse">
<stop stop-color="#F5F3F4"/>
<stop offset="1" stop-color="white"/>
</linearGradient>
</defs>
</svg>
