<?xml version="1.0" encoding="utf-8"?>
<svg width="144" height="144" viewBox="0 0 144 144" xmlns="http://www.w3.org/2000/svg">
  <g fill="none" fill-rule="evenodd">
    <path fill="#F0F0F0" d="M27.54 55c-4.724 7.15-6.89 15.932-5.906 24.614L30 122h-1.87l-5.905-.308-5.71-29.822c-1.18-7.455-.196-16.443 1.576-23.695L27.539 55zM31 50.672L37.456 72 40 67.957 39.51 44M54.304 90h22.631c.514-2.61 1.234-5.426 1.03-8.14 0-.834-.206-1.669-.72-2.295-.515-.73-1.545-1.148-2.265-.73L55.23 78c-.515 1.252-2.571 1.044-3.086 2.296-.206.73-.206 1.46.102 2.087.824 2.504 1.235 5.217 2.058 7.617"/>
    <path stroke="#514D4E" stroke-linecap="round" stroke-linejoin="round" stroke-width="1.288" d="M41 42c-9.538 8.571-19.277 17.96-23.947 30-3.179 8.164 1.49 32.654 5.367 50M77.584 81c1.537 9.796-1.23 19.793-7.584 27.368L72.255 122"/>
    <path d="M127.9 75.726l.1-50.144c0-1.842-1.513-3.377-3.33-3.377L43.43 22c-1.816 0-3.33 1.536-3.33 3.378L40 75.316c0 1.842 1.513 3.377 3.33 3.377l81.24.307c1.917 0 3.33-1.433 3.33-3.274" style="fill: rgb(254, 209, 152);"/>
    <path d="M 40 34.48 L 40 24.288 C 40 23.039 41.01 22 42.222 22 L 125.777 22.207 C 126.988 22.207 128 23.247 128 24.497 L 128 35" style="fill: rgb(236, 140, 18);"/>
    <path stroke-linecap="round" stroke-linejoin="round" stroke-width="1.288" d="M127.9 75.726l.1-50.144c0-1.842-1.513-3.377-3.33-3.377L43.43 22c-1.816 0-3.33 1.536-3.33 3.378L40 75.316c0 1.842 1.513 3.377 3.33 3.377l81.24.307c1.917 0 3.33-1.433 3.33-3.274z" style="stroke: rgb(0, 0, 0);"/>
    <path fill="#FFF" d="M102.484 60h16.032c.791 0 1.484.73 1.484 1.562v6.876c0 .834-.693 1.562-1.484 1.562h-16.032c-.791 0-1.484-.728-1.484-1.562v-6.876c0-.937.693-1.562 1.484-1.562"/>
    <path stroke-linecap="round" stroke-linejoin="round" stroke-width="1.288" d="M52.856 44.78c-1.031 0-1.856-.84-1.856-1.89 0-1.05.825-1.89 1.856-1.89h.206l9.176.21c1.032 0 1.856.945 1.753 1.996-.102 1.049-.928 1.89-1.958 1.785l-9.177-.21zM69.815 44.789c-1.009 0-1.815-.843-1.815-1.895S68.806 41 69.815 41h.202l19.261.105c1.007.105 1.815 1.053 1.713 2.105-.1.947-.908 1.79-1.815 1.79l-19.361-.211z" style="stroke: rgb(0, 0, 0);"/>
    <path stroke="#514D4E" stroke-linecap="round" stroke-linejoin="round" stroke-width="1.288" d="M52.291 82c4.564 9.9 3.29 21.314-3.291 30"/>
    <path fill="#FFF" d="M34.335 76.559c6.504-8.414 13.409-16.524 20.712-24.228C56.148 51.216 57.348 50 58.95 50c1.3.101 2.5.912 3.102 2.129.6 1.216.9 2.534.9 3.85.6 10.949-4.402 21.29-13.107 27.574-3.804 2.636-9.606 1.419-13.008-1.622-1.401-1.318-3.702-3.852-2.502-5.372"/>
    <path stroke="#514D4E" stroke-linecap="round" stroke-linejoin="round" stroke-width="1.288" d="M35 75.913c6.58-8.526 13.565-16.744 20.954-24.551C57.068 50.232 58.282 49 59.902 49c1.315.102 2.53.924 3.138 2.157a8.833 8.833 0 0 1 .91 3.903C64.56 66.154 59.499 76.632 50.69 83"/>
    <path stroke="#D8DFF8" stroke-linecap="round" stroke-linejoin="round" stroke-width="1.288" d="M106.5 59v12M114.5 59v12M106 65.5h8"/>
    <path stroke-linecap="round" stroke-linejoin="round" stroke-width="1.288" d="M69 68.5h3M75 68.5h3M80 68.5h3M69 63.5h23" style="stroke: rgb(0, 0, 0);"/>
  </g>
</svg>