<?xml version="1.0" encoding="utf-8"?>
<svg width="144" height="144" viewBox="0 0 144 144" xmlns="http://www.w3.org/2000/svg">
  <defs>
    <path id="a" d="M0 .377h41.824v9.006H0z"/>
  </defs>
  <g fill="none" fill-rule="evenodd">
    <path fill="#F0F0F0" d="M92 115l1.647 9H134l-5.178-9z"/>
    <path fill="#F0F0F0" d="M88.898 94.963l4.452 25.496h24.485c1.524 0 2.812-1.286 2.812-2.807 0-.467-.118-.935-.353-1.402-3.982-7.135-8.082-14.152-12.065-21.287h-19.33z"/>
    <path stroke="#D2D2D2" stroke-linecap="round" stroke-linejoin="round" stroke-width="1.021" d="M92.648 115.43h36.433"/>
    <path stroke="#514D4E" stroke-linecap="round" stroke-linejoin="round" stroke-width="1.021" d="M132.127 120.46l-13.823-24.21a2.511 2.511 0 0 0-2.226-1.286H91.944c-1.405 0-2.577 1.17-2.577 2.573v.467l4.217 24.21c.234 1.286 1.29 2.223 2.578 2.223h33.623c1.405 0 2.577-1.17 2.577-2.573.116-.586 0-1.054-.235-1.404z"/>
    <g transform="translate(9 115.053)">
      <mask id="b" fill="#fff">
        <path d="M0 .377h41.824v9.006H0z" transform="matrix(1, 0, 0, 1, 0, 0)"/>
      </mask>
      <path fill="#F0F0F0" d="M5.155.377L0 9.383h40.183L41.824.377z" mask="url(#b)"/>
    </g>
    <path fill="#F0F0F0" d="M53.752 94.963L49.3 120.46H20.95c-.352 0-.586-.234-.586-.584 0-.117 0-.235.117-.235 4.686-8.186 9.372-16.49 14.058-24.677h19.213z"/>
    <path stroke="#D2D2D2" stroke-linecap="round" stroke-linejoin="round" stroke-width="1.021" d="M14.155 115.43h36.317"/>
    <path stroke="#514D4E" stroke-linecap="round" stroke-linejoin="round" stroke-width="1.021" d="M11.343 120.46c4.57-8.07 9.138-16.14 13.706-24.21a2.513 2.513 0 0 1 2.227-1.286h24.016c1.406 0 2.577 1.17 2.577 2.573v.467l-4.334 24.21c-.117 1.286-1.171 2.223-2.46 2.223H13.569c-1.406 0-2.577-1.17-2.577-2.573 0-.586.117-1.054.35-1.404z"/>
    <path d="M 106.354 115.43 L 37.234 115.43 C 35.36 115.431 33.84 113.914 33.836 112.04 C 33.836 111.453 33.953 110.869 34.304 110.401 L 48.13 86.074 L 95.225 86.074 L 109.167 110.635 C 110.104 112.155 109.518 114.144 107.995 115.08 C 107.527 115.197 106.941 115.43 106.355 115.43" style="fill: rgba(236, 142, 18, 0.9);"/>
    <path d="M105.768 115.43H37.586c-1.992 0-3.633-1.637-3.633-3.625 0-.585.117-1.287.47-1.754l.701-1.17h72.987l.704 1.17c.936 1.754.35 3.975-1.407 4.912-.468.234-1.054.467-1.64.467" style="fill: rgba(236, 142, 18, 0.76);"/>
    <path stroke-linecap="round" stroke-linejoin="round" stroke-width="1.021" d="M 76.246 85.958 L 93.233 85.958 C 94.404 85.958 95.575 86.66 96.161 87.712 L 109.048 110.402 C 109.986 112.039 109.399 114.144 107.76 115.08 C 107.291 115.314 106.706 115.547 106.119 115.547 L 37.233 115.547 C 35.359 115.547 33.839 114.029 33.837 112.155 C 33.837 111.572 33.953 110.987 34.305 110.518 C 38.64 102.916 42.857 95.431 47.192 87.829 C 47.778 86.776 48.949 86.074 50.121 86.074 L 74.606 86.074 M 81.986 102.683 L 87.258 102.683 M 57.033 102.683 L 78.706 102.683" style="stroke: rgb(0, 0, 0);"/>
    <path d="M77.417 97.42c3.983 0 7.146-1.637 7.146-3.51 0-1.988-3.163-3.508-7.146-3.508H67.81c-3.983 0-7.146 1.638-7.146 3.509 0 1.872 3.163 3.509 7.146 3.509" style="fill: rgb(165, 94, 1);"/>
    <path stroke-linecap="round" stroke-linejoin="round" stroke-width="1.021" d="M35.125 108.764h73.103" style="stroke: rgb(0, 0, 0);"/>
    <path fill="#FFF" d="M100.592 67.98c-.335-1.672-1.34-3.01-2.346-4.18-5.194-6.525-8.545-14.554-13.572-20.91-3.519-6.69-4.021-14.385-1.507-21.578H47.98l1.843 14.386c0 3.178-1.173 8.865-1.843 12.043-.838 3.847-2.346 8.53-2.68 12.546-.336 4.18-3.52 19.904 4.523 18.4 1.842-.335 3.35-1.841 3.686-3.681 0 1.673.838 3.346 2.178 4.349 2.346 1.505 5.361.836 6.702-1.505.336-.67.671-1.338.671-2.175.503 2.342 2.345 4.015 4.691 4.348 2.346 0 4.357-1.504 5.027-3.679.335 2.343 3.52 22.415 8.88 19.404a3.9 3.9 0 0 0 1.173-1.172c1.843-3.344 2.178-22.08 2.01-29.94 3.017 3.344 6.033 5.855 10.39 7.359 1.005.502 2.01.502 3.015.335 2.01-.837 2.682-2.676 2.346-4.35"/>
    <path fill="#F0F0F0" d="M69.427 64.803c-1.844-1.004-4.524-1.004-6.703-1.506-2.01-.67-4.692-1.506-6.031-3.178-2.68-3.848-1.508-9.032-1.174-13.215.168-3.01.504-6.021.504-9.032 0-6.858-.169-8.698-.169-15.222 0-1.171-1.005-2.174-2.177-2.174h-5.698l2.01 15.222c-1.674 7.192-2.512 13.715-4.187 20.908L43.79 74.17c0 2.007 1.508 3.847 3.518 4.35 1.844.333 3.687 0 5.027-1.171.335-.168.503-.503.838-.67 1.172-.669 2.513 1.84 3.686 2.34 1.172.67 2.681.67 3.854.169 1.005-.5 1.676-1.338 2.848-1.506.837 0 1.675.168 2.514.502 1.172.503 2.346.669 3.518.669a4.13 4.13 0 0 0 3.184-1.504c.67-1.005 1.173-2.343 1.005-3.514.168-3.512-1.173-7.36-4.356-9.032"/>
    <path stroke="#514D4E" stroke-linecap="round" stroke-linejoin="round" stroke-width="1.533" d="M85.177 62.293c.167 6.022.167 28.27-2.01 31.95-.335.5-.67 1.003-1.174 1.17-5.361 3.01-7.707-16.893-8.043-19.403l-.67-3.68"/>
    <path stroke="#514D4E" stroke-linecap="round" stroke-linejoin="round" stroke-width="1.533" d="M73.95 76.177c-.838 2.175-2.848 3.68-5.193 3.68-2.179-.167-4.86-2.175-5.362-4.349-.335 2.676-2.681 4.683-5.362 4.349-.838 0-1.508-.335-2.179-.67-1.34-1.003-2.177-2.508-2.177-4.348-.503 1.84-1.844 3.513-3.687 3.68-7.54.5-6.032-8.865-5.53-13.047 1.341-8.866 3.687-17.564 5.53-26.262.67-3.513.335-6.524-.167-10.036-.503-2.676-1.174-5.185-1.676-7.862M53.677 74.839l.167-3.681M63.395 75.508v-3.513M83.167 21.312c-.168 1.84-2.011 13.549-1.006 16.058 1.508 3.513 4.021 6.858 5.865 10.204 3.183 5.52 6.199 11.206 10.22 16.225 1.005 1.337 2.012 2.676 2.346 4.181.335 1.674-.334 3.513-2.01 4.015-1.006.168-2.011.168-3.016-.334-4.357-1.506-7.373-4.015-10.39-7.36"/>
    <path stroke="#D8DFF8" stroke-linecap="round" stroke-linejoin="round" stroke-width="1.021" d="M70.271 93.794h5.272"/>
  </g>
</svg>