<?xml version="1.0" encoding="utf-8"?>
<svg width="144" height="144" viewBox="0 0 144 144" xmlns="http://www.w3.org/2000/svg">
  <g fill="none" fill-rule="evenodd">
    <path fill="#F0F0F0" d="M14.668 50.931c.669-1.33 1.337-2.77 1.226-4.1l-.223-.886S14.668 36.525 27.484 25h1.895c.446 0 .669.332.669.665 0 .11 0 .222-.112.332-2.229 4.1-1.894 9.31-.668 13.853 3.12 11.192 10.81 20.39 21.286 25.599.223.11.335.332.446.554 0 .332-.223.665-.669.665h-8.024c-.223-7.425-6.353-13.299-13.931-13.188-6.687.111-12.26 5.209-13.15 11.858-.112.886-.892 1.662-1.784 1.662-.446 0-.892-.222-1.115-.665-.111-.222-.222-.665-.222-1.108-.446-4.987.557-9.863 2.563-14.296M108.938 39.005h-4.914L93.166 28.64"/>
    <path stroke="#D2D2D2" stroke-linecap="round" stroke-linejoin="round" stroke-width="1.221" d="M108.938 39.005h-4.914L93.166 28.64"/>
    <path fill="#F0F0F0" d="M87.986 41.84c-15.998-.45-53.18-1.692-54.284-2.03-1.766-.451-1.986-1.128-1.435-2.82.663-2.144 1.545-4.174 2.87-5.979 2.426-3.497 6.399-5.076 10.37-5.753 4.855-.903 7.284-1.354 12.249-1.241 3.53.113 7.06.226 10.59.677 4.305.451 8.387 1.58 12.358 3.271 2.759 1.354 5.739 2.82 8.055 4.85 2.318 2.031 4.082 5.303 5.076 8.123.22.226.22.677 0 .902-.22.113-.442.226-.663.113-1.103 0-2.206-.113-3.31-.451"/>
    <path stroke="#D2D2D2" stroke-linecap="round" stroke-linejoin="round" stroke-width="1.221" d="M27 26l-5.455 11.87A2.025 2.025 0 0 1 19.727 39H17"/>
    <path stroke="#514D4E" stroke-linecap="round" stroke-linejoin="round" stroke-width="1.221" d="M29 56c6.628 0 12 5.372 12 12s-5.372 12-12 12-12-5.372-12-12 5.372-12 12-12zM130.65 67c.676 0 1.35.526 1.35 1.263v.21c0 .316-.111.632-.338.843l-1.35 1.158c-.337.315-.9.526-1.462.526H123"/>
    <path stroke="#514D4E" stroke-linecap="round" stroke-linejoin="round" stroke-width="1.221" d="M15.381 72c-.779 0-1.558-.111-2.338-.223a3.078 3.078 0 0 1-1.225-1.447 11.462 11.462 0 0 1-.668-3.896c-.334-2.894-.111-5.899.668-8.682a26.814 26.814 0 0 1 2.673-7.012v-4.453c.779-11.465 11.468-20.035 11.468-20.035l-.445-1.893c12.915-1.892 23.382-3.562 36.52-3.339 6.57.111 13.473.445 19.82 2.226 7.57 2.115 26.388 16.363 26.388 16.363 6.792.779 13.918 2.449 19.82 6.233 1.335.89 2.337 2.226 2.671 3.673.891 4.008 2.339 12.69 0 17.699h-1.336M48 71.5h-7M100 71.5h-6"/>
    <path stroke="#514D4E" stroke-linecap="round" stroke-linejoin="round" stroke-width="1.221" d="M123.267 53.3c.449.463 1.121.926 1.57.579.449-.348-.112-4.636-.672-6.142-.674-2.086-3.026-3.013-4.821-2.666-.784.116-1.344.812-1.344 1.623v.232c0 .463.111.927.447 1.158 1.234 1.275 3.923 4.288 4.82 5.215z"/>
    <path stroke="#D2D2D2" stroke-linecap="round" stroke-linejoin="round" stroke-width="1.221" d="M95 42c-2.213-5.146-5.973-9.377-10.621-12.122-1.107-.686-2.324-1.258-3.54-1.944-3.983-1.715-8.077-2.859-12.392-3.316a79.635 79.635 0 0 0-16.485-.344c-5.864.572-13.056 1.487-16.817 6.748a23.314 23.314 0 0 0-2.877 6.06c-.553 1.602-.332 2.402 1.438 2.86C34.813 40.285 95 42 95 42zM56 24l2 17"/>
    <path stroke="#514D4E" stroke-linecap="round" stroke-linejoin="round" stroke-width="1.221" d="M15.498 43.032c.995 0 4.578-.422 3.184 1.795L15 50M29.5 61a6.5 6.5 0 1 1 0 13 6.5 6.5 0 0 1 0-13zM112 56c6.628 0 12 5.372 12 12s-5.372 12-12 12-12-5.372-12-12 5.372-12 12-12z"/>
    <path stroke="#514D4E" stroke-linecap="round" stroke-linejoin="round" stroke-width="1.221" d="M111.5 61a6.5 6.5 0 1 1 0 13 6.5 6.5 0 0 1 0-13z"/>
    <path d="M58 33c7.18 0 13 5.82 13 13s-5.82 13-13 13c-7.179 0-13-5.82-13-13s5.821-13 13-13" style="fill: rgba(236, 142, 18, 0.53);"/>
    <path stroke-linecap="round" stroke-linejoin="round" stroke-width="1.221" d="M48 38.078c4.39-5.678 12.4-6.792 17.995-2.338C71.591 40.194 72.69 48.322 68.3 54M47.28 54c-3.295-4.855-2.987-11.476.72-16" style="stroke: rgb(236, 140, 18);"/>
    <path fill="#FFF" d="M44.164 98.872c.446 3.347 2.01 6.473 3.796 9.373 3.35 5.246 7.48 9.374 13.286 11.716 3.238 1.34 6.923 2.79 10.384 3.014 3.684.224 7.48-1.115 10.942-2.344 5.47-2.009 10.272-6.582 12.951-11.828l.335-1.34c.782-3.682 1.117-7.475 1.229-11.158.111-3.682 1.451-7.921.67-11.604-.67-3.347-2.903-6.026-5.137-8.592-1.004-1.228-2.12-2.344-3.46-3.237-1.34-.781-3.239-.893-4.467 0-.893-3.236-4.354-5.021-7.592-4.129a6.79 6.79 0 0 0-2.68 1.674c-.781-2.008-2.68-3.46-4.8-3.57-2.122-.112-4.355.11-5.36 2.009 0-5.915-.335-11.83-.893-17.743v-.447c-.67-1.562-1.675-2.9-3.127-3.905-3.014-2.009-5.024.336-6.81 2.678-.67 1.897-.782 3.905-.559 5.802.224 1.005-.111 2.12-.893 2.902v3.124l-.67 21.313c-2.568.335-4.8 2.232-6.14 4.463-.559 3.906-1.564 7.923-1.005 11.829"/>
    <path fill="#F0F0F0" d="M62.959 111.672c8.901 5.45 20.695 5.116 30.041.556-7.01 8.675-19.694 12.012-30.152 8.23-10.46-3.781-18.136-14.236-18.804-25.359-.222-3.893.334-8.008 3.116-10.788 1-1.001 3.004-2.002 4.116-.668.78 1.001-.111 2.225-.222 3.337-.445 3.225-.334 6.45.667 9.565 1.558 6.34 5.675 11.679 11.238 15.127"/>
    <path stroke="#514D4E" stroke-linecap="round" stroke-linejoin="round" stroke-width="1.221" d="M64 70.074c.333-1.931 1.667-3.521 3.556-3.976 1.666-.34 3.444.227 4.777 1.363 1.445 1.363 2.111 3.408 2.445 5.338.333 1.818 1 6.93 1.222 9.201M75 71.366c.435-2.061 2.836-2.604 4.69-2.278 5.128.76 6.437 8.789 7.31 12.912"/>
    <path stroke="#514D4E" stroke-linecap="round" stroke-linejoin="round" stroke-width="1.221" d="M50 95c1.324-11.765 1.875-32.605 2.647-38.543.441-3.361.33-10.756 4.853-11.428 1.544-.224 3.199.896 3.97 2.353.773 1.456.993 3.137 1.214 4.705l.22 1.569L65 81.331"/>
    <path stroke="#514D4E" stroke-linecap="round" stroke-linejoin="round" stroke-width="1.221" d="M84.496 72.934c.771-1.127 2.424-1.127 3.635-.564a7.734 7.734 0 0 1 2.864 2.82l3.416 5.073c2.864 4.285 2.754 11.501 2.424 16.575-.661 8.345-3.966 17.703-11.237 22.1-7.161 4.286-16.195 5.414-24.017 2.256-8.042-3.27-14.101-10.825-16.305-19.282-1.101-4.058-1.432-8.118-1.212-12.29.33-3.607 3.526-4.849 6.28-6.653"/>
  </g>
</svg>