<?xml version="1.0" encoding="utf-8"?>
<svg width="144" height="144" viewBox="0 0 144 144" xmlns="http://www.w3.org/2000/svg">
  <g fill="none" fill-rule="evenodd">
    <path stroke="#514D4E" stroke-linecap="round" stroke-linejoin="round" stroke-width="1.192" d="M65 73c1.895-1.071 3.684-2.25 5.263-3.75L73 67M60 65c-.778.968-1.444 1.935-2 3"/>
    <path fill="#F0F0F0" d="M109.522 97.863c2.186-1.011 3.06-3.712 2.077-5.962 0-.111-.11-.225-.11-.337l-7.322-13.723c-.985-1.913-3.171-3.038-5.248-2.813-1.64.338-3.28.338-4.919 0L104.384 100c1.75-.562 3.498-1.35 5.138-2.137"/>
    <path stroke="#514D4E" stroke-linecap="round" stroke-linejoin="round" stroke-width="1.192" d="M93 75l11 25M79 50l-18.629.5c-1.694 0-3.387.375-4.968 1-1.58.625-3.05 1.5-4.403 2.5M73.983 49c.217-.32-1.734-7.553-3.685-8.617C68.347 39.319 60 39 60 39M48 35c-.106.11-.318.22-.424.442-1.906 1.214-4.13 2.207-5.824 3.642-2.33 1.987-1.907 4.968-1.165 7.617.53 1.767.953 3.533 1.482 5.299M100 74.96c-8.414.435-16.716-2.718-22.661-8.48l-10.77-1.413c-2.132-.326-4.263-.761-6.507-.87-4.712-.326-9.311 1.74-13.91.978-1.46-.217-2.693-1.304-3.03-2.717-.224-.653-.112-1.414.112-2.066a7.23 7.23 0 0 1 2.02-2.066L45.59 58"/>
    <path d="M36.451 75.667l-.448 1.318c-.225.769-1.121 1.21-1.906.878L22.998 74.13c-.785-.221-1.233-1.099-.897-1.869l.449-1.318c.224-.769 1.12-1.207 1.906-.879l11.21 3.735c.673.22 1.01 1.1.785 1.868m2.466-5.382l-15.134-5.054c-2.354-.769-4.933.44-5.717 2.746l-5.83 17.137a4.397 4.397 0 0 0 2.803 5.601l15.134 5.054c2.354.768 4.933-.44 5.718-2.746l5.83-17.026c.896-2.416-.45-4.834-2.804-5.712" style="fill-rule: evenodd; paint-order: fill; fill: rgb(236, 142, 18);"/>
    <path d="M18.478 92L10 117.94l1.957 4.06 5.217-4.173-.326-2.707 2.391-1.128-1.087-4.285 3.261-1.692L20 104.18l3.043-2.48-.87-3.723L25 94.368M69.92 95.248l-4.56-20.762c-.556-2.468-2.892-3.927-5.339-3.366l-10.566 2.244c-2.447.561-3.892 2.92-3.336 5.388l4.449 20.762c.556 2.467 2.891 3.927 5.338 3.366l10.566-2.358c2.447-.447 3.893-2.805 3.448-5.274" style="fill: rgba(236, 142, 18, 0.57);"/>
    <path d="M17 96.22L22.423 98 26 93.847 18.73 91z" style="fill: rgba(236, 142, 18, 0.64);"/>
    <path stroke-linecap="round" stroke-linejoin="round" stroke-width="1.298" d="M 18.478 92 L 10 117.94 L 11.957 122 L 17.174 117.827 L 16.848 115.12 L 19.239 113.992 L 18.56 111.314 L 18.152 109.707 L 21.413 108.015 L 20 104.18 L 23.043 101.7 L 22.173 97.977 L 25 94.368 M 49.482 73.463 L 60.017 71.113 C 62.457 70.554 64.786 72.121 65.34 74.47 L 69.887 95.166 C 70.432 97.565 68.951 99.956 66.56 100.536 L 56.025 102.886 C 53.585 103.446 51.256 101.878 50.701 99.53 L 46.155 78.834 C 45.489 76.373 47.042 74.022 49.482 73.463 L 49.482 73.463 Z" style="fill-rule: evenodd; stroke: rgb(0, 0, 0);"/>
    <path stroke-linecap="round" stroke-linejoin="round" stroke-width="1.298" d="M55 79c-3.831 4.378-10.254 6.11-16 4.277M48 56c5.977 2.03 10 7.444 10 13.647 0 .45 0 .902-.115 1.353" style="stroke: rgb(0, 0, 0);"/>
    <path d="M59.5 88a4.5 4.5 0 1 1 0 9 4.5 4.5 0 0 1 0-9" style="fill: rgb(120, 120, 120);"/>
    <path stroke-linecap="round" stroke-linejoin="round" stroke-width="1.298" d="M36.451 75.667l-.448 1.318c-.225.769-1.121 1.21-1.906.878L22.998 74.13c-.785-.221-1.233-1.099-.897-1.869l.449-1.318c.224-.769 1.12-1.207 1.906-.879l11.21 3.735c.673.22 1.01 1.1.785 1.868zm2.466-5.382l-15.134-5.054c-2.354-.769-4.933.44-5.717 2.746l-5.83 17.137a4.397 4.397 0 0 0 2.803 5.601l15.134 5.054c2.354.768 4.933-.44 5.718-2.746l5.83-17.026c.896-2.416-.45-4.834-2.804-5.712z" style="stroke: rgb(0, 0, 0);"/>
    <path stroke-linecap="round" stroke-linejoin="round" stroke-width="1.298" d="M30.519 74c-2.053-7.602 2.16-15.652 9.617-17.776.324-.112.54-.112.864-.224" style="stroke: rgb(0, 0, 0);"/>
    <path stroke="#514D4E" stroke-linecap="round" stroke-linejoin="round" stroke-width="1.192" d="M134 71l-4.106-3.655-25.525-22.925-10.543-9.414c-5.44-4.873-11.431-7.53-18.534-8.97-4.439-.886-8.989-1.883-13.428-2.88-1.332-.332-2.775-.11-4.106.443-1.887.886-3.552 2.104-4.883 3.655-2.33 2.658-3.552 6.091-4.772 9.414L41.11 56.713c-.111.222-.111.443-.111.776.111.443.555.775.999.996 2.996 1.219 6.215-1.329 8.434-3.544 4.772-4.762 6.437-9.856 10.432-15.394"/>
  </g>
</svg>